<?xml version="1.0" encoding="utf-8"?>
<!-- Generator: Adobe Illustrator 21.1.0, SVG Export Plug-In . SVG Version: 6.00 Build 0)  -->
<svg version="1.1"
	 id="svg2" xmlns:cc="http://creativecommons.org/ns#" xmlns:dc="http://purl.org/dc/elements/1.1/" xmlns:rdf="http://www.w3.org/1999/02/22-rdf-syntax-ns#" xmlns:svg="http://www.w3.org/2000/svg"
	 xmlns="http://www.w3.org/2000/svg" xmlns:xlink="http://www.w3.org/1999/xlink" x="0px" y="0px" viewBox="0 0 31 21"
	 style="enable-background:new 0 0 31 21;" xml:space="preserve">
<style type="text/css">
	.st0{fill:#78ADDE;}
	.st1{fill:#FFFFFF;}
	.st2{clip-path:url(#SVGID_2_);}
	.st3{fill:#F7B625;stroke:#873E25;stroke-width:1.112;}
	.st4{fill:#873E25;}
	.st5{fill:#F7B625;}
	.st6{fill:none;stroke:#873E25;stroke-width:1.5;}
</style>
<g id="g10" transform="matrix(1.3333333,0,0,-1.3333333,0,533.33333)">
	<path id="path12" class="st0" d="M0,384.3h23.2V400H0L0,384.3z"/>
	<path id="path14" class="st1" d="M0,389.9h23.2v4.9H0L0,389.9L0,389.9z"/>
	<g id="g16">
		<g>
			<defs>
				<rect id="SVGID_1_" x="-3.9" y="381.6" width="31" height="21"/>
			</defs>
			<clipPath id="SVGID_2_">
				<use xlink:href="#SVGID_1_"  style="overflow:visible;"/>
			</clipPath>
			<g id="g18" class="st2">
				<g id="g24" transform="translate(297.6396,204.3354)">
					<path id="path26" class="st3" d="M-286.1,188l0.8-1.8c0,0,0,0,0,0c0,0,0,0,0,0l-0.7,1.9 M-285.9,187.3c0-0.3,0.2-0.4,0.1-0.7
						c0-0.2,0.1-0.4,0.1-0.5c0-0.1,0-0.2,0-0.2c0,0,0.1,0.1,0.1,0.2c0,0.1-0.1,0.2-0.1,0.5c0,0.3-0.1,0.4-0.1,0.7"/>
				</g>
				<g id="g28" transform="translate(297.4438,205.3193)">
					<path id="path30" class="st3" d="M-285.9,187l0.1-2c0,0,0,0,0,0c0,0,0,0,0,0l0.1,2 M-286,186.4c-0.1-0.3,0-0.5-0.1-0.7
						c-0.1-0.2,0-0.4-0.1-0.5c0-0.1-0.1-0.1-0.1-0.2c0,0,0.1,0,0.1,0.2c0,0.1,0,0.2,0.1,0.5c0.1,0.3,0,0.4,0.2,0.6"/>
				</g>
				<g id="g32" transform="translate(297.6396,206.3008)">
					<path id="path34" class="st3" d="M-286.1,186.1l-0.7-1.9c0,0,0,0,0,0c0,0,0,0,0,0l0.8,1.8 M-286.4,185.5
						c-0.2-0.2-0.2-0.4-0.4-0.6c-0.2-0.2-0.2-0.4-0.2-0.4c0-0.1-0.1-0.1-0.1-0.1c0,0,0.1,0,0.2,0.1c0.1,0.1,0,0.2,0.3,0.4
						c0.2,0.2,0.2,0.4,0.4,0.5"/>
				</g>
				<g id="g36" transform="translate(298.1948,207.1333)">
					<path id="path38" class="st3" d="M-286.6,185.3l-1.3-1.5c0,0,0,0,0,0c0,0,0,0,0,0l1.5,1.4 M-287.2,184.9
						c-0.3-0.1-0.3-0.3-0.6-0.4c-0.2-0.1-0.3-0.3-0.4-0.3c-0.1-0.1-0.2,0-0.2-0.1c0,0,0.1-0.1,0.2,0c0.1,0.1,0.1,0.2,0.4,0.3
						c0.3,0.1,0.3,0.3,0.6,0.3"/>
				</g>
				<g id="g40" transform="translate(303.2422,186.999)">
					<path id="path42" class="st4" d="M-291.5,204.6c0-0.3,0.2-0.4,0.1-0.6C-291.3,204.2-291.4,204.3-291.5,204.6 M-291.7,205.3
						l0.6-1.3L-291.7,205.3"/>
				</g>
				<g id="g44" transform="translate(295.9907,187.1562)">
					<path id="path46" class="st4" d="M-284.5,204.5c-0.1-0.3,0-0.4-0.1-0.6C-284.5,204-284.6,204.2-284.5,204.5 M-284.4,205.2
						l0-1.4L-284.4,205.2"/>
				</g>
				<g id="g48" transform="translate(289.3516,190.0762)">
					<path id="path50" class="st4" d="M-278.1,201.7c-0.2-0.2-0.2-0.4-0.3-0.5C-278.3,201.2-278.3,201.4-278.1,201.7 M-277.8,202.3
						l-0.5-1.3L-277.8,202.3"/>
				</g>
				<g id="g52" transform="translate(284.334,195.3203)">
					<path id="path54" class="st4" d="M-273.3,196.6c-0.2-0.1-0.3-0.3-0.5-0.4C-273.6,196.3-273.6,196.5-273.3,196.6 M-272.7,197
						l-0.9-1L-272.7,197"/>
				</g>
				<g id="g56" transform="translate(299.0264,207.6909)">
					<path id="path58" class="st3" d="M-287.4,184.7l-1.8-0.8c0,0,0,0,0,0c0,0,0,0,0,0l1.9,0.7 M-288.1,184.6
						c-0.3,0-0.4-0.2-0.7-0.1c-0.2,0-0.4-0.1-0.5-0.1c-0.1,0-0.2,0-0.2,0c0,0,0.1-0.1,0.2-0.1c0.1,0,0.2,0.1,0.5,0.1
						c0.3,0,0.4,0.1,0.6,0.1"/>
				</g>
				<g id="g60" transform="translate(300.0107,207.8872)">
					<path id="path62" class="st3" d="M-288.4,184.5l-2-0.1c0,0,0,0,0,0c0,0,0,0,0,0l2-0.1 M-289,184.6c-0.2,0.1-0.5,0-0.7,0.1
						c-0.2,0.1-0.4,0-0.5,0.1c-0.1,0-0.1,0.1-0.2,0.1c0,0,0-0.1,0.2-0.1c0.1,0,0.2,0,0.5-0.1c0.3-0.1,0.4,0,0.6-0.2"/>
				</g>
				<g id="g64" transform="translate(300.9912,207.6904)">
					<path id="path66" class="st3" d="M-289.3,184.7l-1.9,0.7c0,0,0,0,0,0c0,0,0,0,0,0l1.8-0.8 M-289.9,185.1
						c-0.2,0.2-0.4,0.2-0.6,0.4c-0.2,0.2-0.4,0.2-0.4,0.2c-0.1,0-0.1,0.1-0.1,0.1c0,0,0-0.1,0.1-0.2c0.1-0.1,0.2,0,0.4-0.3
						c0.2-0.2,0.3-0.2,0.5-0.4"/>
				</g>
				<g id="g68" transform="translate(301.8242,207.1348)">
					<path id="path70" class="st3" d="M-290.1,185.3l-1.5,1.4c0,0,0,0,0,0c0,0,0,0,0,0l1.3-1.5 M-290.5,185.8
						c-0.1,0.3-0.3,0.3-0.4,0.6c-0.1,0.2-0.3,0.3-0.3,0.4c-0.1,0.1,0,0.2-0.1,0.2c0,0-0.1-0.1,0-0.2c0.1-0.1,0.2-0.1,0.3-0.4
						c0.1-0.3,0.3-0.3,0.3-0.6"/>
				</g>
				<g id="g72" transform="translate(281.7021,202.0825)">
					<path id="path74" class="st4" d="M-270.8,190.1c-0.3,0-0.4-0.2-0.6-0.1C-271.2,189.9-271.1,190.1-270.8,190.1 M-270.1,190.3
						l-1.2-0.6L-270.1,190.3"/>
				</g>
				<g id="g76" transform="translate(281.8594,209.3418)">
					<path id="path78" class="st4" d="M-270.9,183.2c-0.2,0.1-0.4,0-0.6,0.1C-271.4,183.1-271.2,183.2-270.9,183.2 M-270.2,183
						l-1.4-0.1l1.4-0.1"/>
				</g>
				<g id="g80" transform="translate(284.7788,215.9854)">
					<path id="path82" class="st4" d="M-273.7,176.8c-0.2,0.2-0.4,0.2-0.5,0.3C-274.2,176.9-274,176.9-273.7,176.8 M-273.1,176.4
						l-1.3,0.5L-273.1,176.4"/>
				</g>
				<g id="g84" transform="translate(290.0171,221.0063)">
					<path id="path86" class="st4" d="M-278.8,171.9c-0.1,0.2-0.3,0.3-0.4,0.5C-279.1,172.3-278.9,172.2-278.8,171.9 M-278.4,171.4
						l-1,0.9L-278.4,171.4"/>
				</g>
				<g id="g88" transform="translate(302.3789,206.3027)">
					<path id="path90" class="st3" d="M-290.7,186.1l-0.8,1.8c0,0,0,0,0,0c0,0,0,0,0,0l0.7-1.9 M-290.8,186.7c0,0.3-0.2,0.4-0.1,0.7
						c0,0.2-0.1,0.4-0.1,0.5c0,0.1,0,0.2,0,0.2c0,0-0.1-0.1-0.1-0.2c0-0.1,0.1-0.2,0.1-0.5c0-0.3,0.1-0.4,0.1-0.7"/>
				</g>
				<g id="g92" transform="translate(302.5752,205.3193)">
					<path id="path94" class="st3" d="M-290.8,187l-0.1,2c0,0,0,0,0,0c0,0,0,0,0,0l-0.1-2 M-290.8,187.7c0.1,0.3,0,0.5,0.1,0.7
						c0.1,0.2,0,0.4,0.1,0.5c0,0.1,0.1,0.1,0.1,0.2c0,0-0.1,0-0.1-0.2c0-0.1,0-0.2-0.1-0.5c-0.1-0.3,0-0.4-0.2-0.6"/>
				</g>
				<g id="g96" transform="translate(302.3789,204.3364)">
					<path id="path98" class="st3" d="M-290.7,188l0.7,1.9c0,0,0,0,0,0c0,0,0,0,0,0l-0.8-1.8 M-290.3,188.5c0.2,0.2,0.2,0.4,0.4,0.6
						c0.2,0.2,0.2,0.4,0.2,0.4c0,0.1,0.1,0.1,0.1,0.1c0,0-0.1,0-0.2-0.1c-0.1-0.1,0-0.2-0.3-0.4c-0.2-0.2-0.2-0.4-0.4-0.5"/>
				</g>
				<g id="g100" transform="translate(301.8242,203.5029)">
					<path id="path102" class="st3" d="M-290.1,188.8l1.3,1.5c0,0,0,0,0,0c0,0,0,0,0,0l-1.5-1.4 M-289.6,189.2
						c0.3,0.1,0.3,0.3,0.6,0.4s0.3,0.3,0.4,0.3c0.1,0.1,0.2,0,0.2,0.1c0,0-0.1,0.1-0.2,0c-0.1-0.1-0.1-0.2-0.4-0.3
						c-0.3-0.1-0.3-0.3-0.6-0.3"/>
				</g>
				<g id="g104" transform="translate(296.7764,223.6401)">
					<path id="path106" class="st4" d="M-285.3,169.4c0,0.3-0.2,0.4-0.1,0.6C-285.5,169.9-285.3,169.7-285.3,169.4 M-285.1,168.7
						l-0.6,1.3L-285.1,168.7"/>
				</g>
				<g id="g108" transform="translate(304.0303,223.4834)">
					<path id="path110" class="st4" d="M-292.2,169.6c0.1,0.3,0,0.4,0.1,0.6C-292.3,170-292.2,169.8-292.2,169.6 M-292.4,168.9
						l0,1.4L-292.4,168.9"/>
				</g>
				<g id="g112" transform="translate(310.668,220.5615)">
					<path id="path114" class="st4" d="M-298.6,172.4c0.2,0.2,0.2,0.4,0.3,0.5C-298.5,172.8-298.5,172.6-298.6,172.4 M-299,171.8
						l0.5,1.3L-299,171.8"/>
				</g>
				<g id="g116" transform="translate(315.6875,215.3193)">
					<path id="path118" class="st4" d="M-303.5,177.4c0.2,0.1,0.3,0.3,0.5,0.4C-303.1,177.8-303.2,177.6-303.5,177.4 M-304,177
						l0.9,1L-304,177"/>
				</g>
				<g id="g120" transform="translate(300.9932,202.9478)">
					<path id="path122" class="st3" d="M-289.3,189.3l1.8,0.8c0,0,0,0,0,0c0,0,0,0,0,0l-1.9-0.7 M-288.7,189.5
						c0.3,0,0.4,0.2,0.7,0.1c0.2,0,0.4,0.1,0.5,0.1c0.1,0,0.2,0,0.2,0c0,0-0.1,0.1-0.2,0.1c-0.1,0-0.2-0.1-0.5-0.1
						c-0.3,0-0.4-0.1-0.6-0.1"/>
				</g>
				<g id="g124" transform="translate(300.0098,202.7524)">
					<path id="path126" class="st3" d="M-288.4,189.5l2,0.1c0,0,0,0,0,0c0,0,0,0,0,0l-2,0.1 M-287.7,189.4c0.2-0.1,0.5,0,0.7-0.1
						c0.2-0.1,0.4,0,0.5-0.1c0.1,0,0.1-0.1,0.2-0.1c0,0,0,0.1-0.2,0.1c-0.1,0-0.2,0-0.5,0.1c-0.3,0.1-0.4,0-0.6,0.2"/>
				</g>
				<g id="g128" transform="translate(299.0283,202.9458)">
					<path id="path130" class="st3" d="M-287.4,189.3l1.9-0.7c0,0,0,0,0,0c0,0,0,0,0,0l-1.8,0.8 M-286.9,189
						c0.2-0.2,0.4-0.2,0.6-0.4c0.2-0.2,0.4-0.2,0.4-0.2c0.1,0,0.1-0.1,0.1-0.1c0,0,0,0.1-0.1,0.2c-0.1,0.1-0.2,0-0.4,0.3
						c-0.2,0.2-0.3,0.2-0.5,0.4"/>
				</g>
				<g id="g132" transform="translate(298.1968,203.5029)">
					<path id="path134" class="st3" d="M-286.6,188.8l1.5-1.4c0,0,0,0,0,0c0,0,0,0,0,0l-1.3,1.5 M-286.3,188.2
						c0.1-0.3,0.3-0.3,0.4-0.6c0.1-0.2,0.3-0.3,0.3-0.4c0.1-0.1,0-0.2,0.1-0.2c0,0,0.1,0.1,0,0.2c-0.1,0.1-0.2,0.1-0.3,0.4
						c-0.1,0.3-0.3,0.3-0.3,0.6"/>
				</g>
				<g id="g136" transform="translate(318.3164,208.5537)">
					<path id="path138" class="st4" d="M-306,183.9c0.3,0,0.4,0.2,0.6,0.1C-305.6,184.1-305.7,184-306,183.9 M-306.7,183.7l1.2,0.6
						L-306.7,183.7"/>
				</g>
				<g id="g140" transform="translate(318.1611,201.2964)">
					<path id="path142" class="st4" d="M-305.8,190.9c0.2-0.1,0.4,0,0.6-0.1C-305.4,190.9-305.6,190.8-305.8,190.9 M-306.5,191
						l1.4,0.1l-1.4,0.1"/>
				</g>
				<g id="g144" transform="translate(315.2412,194.6523)">
					<path id="path146" class="st4" d="M-303,197.3c0.2-0.2,0.4-0.2,0.5-0.3C-302.6,197.1-302.8,197.1-303,197.3 M-303.6,197.6
						l1.3-0.5L-303.6,197.6"/>
				</g>
				<g id="g148" transform="translate(310.0029,189.6318)">
					<path id="path150" class="st4" d="M-298,202.1c0.1-0.2,0.3-0.3,0.4-0.5C-297.6,201.8-297.8,201.8-298,202.1 M-298.4,202.7
						l1-0.9L-298.4,202.7"/>
				</g>
				<g id="g152" transform="translate(300.0107,226.167)">
					<path id="path154" class="st5" d="M-288.4,167c0.4,0,0.8-0.4,0.8-0.8c0-0.5-0.4-0.8-0.8-0.8c-0.4,0-0.8,0.4-0.8,0.8
						C-289.2,166.6-288.8,167-288.4,167"/>
				</g>
				<g id="g156" transform="translate(300.0107,226.167)">
					<path id="path158" class="st6" d="M-288.4,167c0.4,0,0.8-0.4,0.8-0.8c0-0.5-0.4-0.8-0.8-0.8c-0.4,0-0.8,0.4-0.8,0.8
						C-289.2,166.6-288.8,167-288.4,167z"/>
				</g>
				<g id="g160" transform="translate(307.1133,209.7764)">
					<path id="path162" class="st4" d="M-295.2,182.7c-0.1,0-0.1,0-0.1-0.1c0.1-0.1,0.2-0.1,0.3,0
						C-295.1,182.7-295.2,182.7-295.2,182.7 M-295.2,182.7c0.1,0,0.1,0,0.1,0c-0.1-0.1-0.2-0.1-0.2,0
						C-295.3,182.7-295.3,182.7-295.2,182.7"/>
				</g>
				<g id="g164" transform="translate(307.3828,210.7671)">
					<path id="path166" class="st4" d="M-295.5,181.8c-0.1,0-0.1,0-0.1-0.1c0,0-0.1,0-0.1,0c0,0,0,0,0,0c0,0,0,0,0.1,0.1
						C-295.5,181.8-295.5,181.8-295.5,181.8c0.1,0,0.2-0.1,0.2-0.1C-295.3,181.7-295.3,181.8-295.5,181.8L-295.5,181.8z"/>
				</g>
				<g id="g168" transform="translate(313.1484,209.8071)">
					<path id="path170" class="st4" d="M-301,182.7c-0.1,0.1-0.3,0.1-0.4,0.1c0,0,0-0.1,0-0.1c0-0.1,0-0.1,0.1-0.2c0,0,0,0,0,0
						c0,0.1-0.1,0.2-0.1,0.3c0,0,0,0,0,0.1C-301.3,182.9-301.2,182.9-301,182.7"/>
				</g>
				<g id="g172" transform="translate(307.0605,209.6519)">
					<path id="path174" class="st4" d="M-295.2,182.9C-295.1,182.9-295.1,182.8-295.2,182.9c0.1-0.1,0-0.1,0-0.1
						C-295.2,182.7-295.2,182.8-295.2,182.9C-295.2,182.8-295.2,182.9-295.2,182.9"/>
				</g>
				<g id="g176" transform="translate(311.2295,207.2397)">
					<path id="path178" class="st4" d="M-299.2,185.2c-0.1-0.1-0.2-0.1-0.3,0c-0.1,0-0.1,0.1,0,0.1c0,0,0,0,0.1,0
						C-299.4,185.1-299.3,185.1-299.2,185.2L-299.2,185.2z"/>
				</g>
				<g id="g180" transform="translate(296.8223,202.4365)">
					<path id="path182" class="st4" d="M-285.3,189.8C-285.3,189.8-285.4,189.8-285.3,189.8c0-0.1,0-0.1,0-0.1
						C-285.3,189.7-285.3,189.7-285.3,189.8c0.1-0.1,0.1-0.1,0.1-0.1h0c0,0,0,0,0.1,0c0,0,0,0,0,0c0,0,0.1,0,0.1,0.1
						c0,0,0,0.1,0,0.1c0,0,0,0,0,0c0,0,0,0,0,0c0,0,0,0,0,0c0,0,0,0-0.1-0.1C-285.2,189.7-285.3,189.7-285.3,189.8
						C-285.3,189.7-285.3,189.7-285.3,189.8C-285.3,189.7-285.3,189.7-285.3,189.8C-285.3,189.8-285.3,189.8-285.3,189.8"/>
				</g>
				<g id="g184" transform="translate(298.3906,198.167)">
					<path id="path186" class="st4" d="M-286.8,193.9c-0.1,0-0.1-0.1-0.1-0.1C-286.9,193.8-286.9,193.8-286.8,193.9
						C-286.8,193.9-286.8,193.8-286.8,193.9L-286.8,193.9c0.1,0,0.1,0,0.2,0c0,0,0.1-0.1,0.1-0.1c-0.1,0-0.1,0.1-0.1,0.1
						C-286.7,193.9-286.7,193.9-286.8,193.9L-286.8,193.9C-286.8,193.9-286.8,193.9-286.8,193.9"/>
				</g>
				<g id="g188" transform="translate(297.8506,196.2676)">
					<path id="path190" class="st4" d="M-286.3,195.7c0,0-0.1,0-0.1,0C-286.3,195.7-286.3,195.7-286.3,195.7L-286.3,195.7
						c0.1,0,0.2,0,0.3,0C-286.2,195.7-286.2,195.7-286.3,195.7L-286.3,195.7C-286.2,195.7-286.3,195.7-286.3,195.7L-286.3,195.7z"/>
				</g>
				<g id="g192" transform="translate(295.3223,195.7725)">
					<path id="path194" class="st4" d="M-283.9,196.2C-283.9,196.2-283.9,196.2-283.9,196.2c0.1,0,0-0.1,0.2-0.1h0
						c0.1,0,0.1,0.1,0.2,0.1c-0.1,0-0.1-0.1-0.2-0.1h0C-283.8,196.1-283.8,196.2-283.9,196.2"/>
				</g>
				<g id="g196" transform="translate(302.8975,190.5635)">
					<path id="path198" class="st4" d="M-291.2,201.2c0,0.1-0.1,0.1-0.1,0.1c-0.1,0-0.1-0.1-0.1-0.1c0,0.1,0.1,0.1,0.1,0.1
						C-291.2,201.3-291.2,201.2-291.2,201.2"/>
				</g>
				<g id="g200" transform="translate(287.0576,209.8071)">
					<path id="path202" class="st4" d="M-275.9,182.7c0.1,0.1,0.3,0.1,0.4,0.1c0,0,0-0.1,0-0.1c0-0.1,0-0.1-0.1-0.2c0,0,0,0,0,0
						c0,0.1,0.1,0.2,0.1,0.3c0,0,0,0,0,0.1C-275.6,182.9-275.8,182.9-275.9,182.7L-275.9,182.7z"/>
				</g>
				<g id="g204" transform="translate(292.8257,210.7671)">
					<path id="path206" class="st4" d="M-281.5,181.8c0.1,0,0.1,0,0.1-0.1c0,0,0.1,0,0.1,0c0,0,0,0,0,0c0,0,0,0-0.1,0.1
						C-281.4,181.8-281.4,181.8-281.5,181.8c-0.1,0-0.2-0.1-0.2-0.1C-281.7,181.7-281.6,181.8-281.5,181.8"/>
				</g>
				<g id="g208" transform="translate(292.7275,209.7764)">
					<path id="path210" class="st4" d="M-281.4,182.7c-0.1,0-0.1,0-0.1-0.1c0.1-0.1,0.2-0.1,0.3,0
						C-281.3,182.7-281.3,182.7-281.4,182.7L-281.4,182.7z M-281.4,182.7c0.1,0,0.1,0,0.1,0c-0.1-0.1-0.2-0.1-0.2,0
						C-281.5,182.7-281.4,182.7-281.4,182.7"/>
				</g>
				<g id="g212" transform="translate(292.915,209.6519)">
					<path id="path214" class="st4" d="M-281.6,182.9C-281.5,182.9-281.5,182.8-281.6,182.9c0.1-0.1,0-0.1,0-0.1
						S-281.6,182.8-281.6,182.9C-281.6,182.8-281.6,182.9-281.6,182.9"/>
				</g>
				<g id="g216" transform="translate(288.9775,207.2397)">
					<path id="path218" class="st4" d="M-277.8,185.2c0.1-0.1,0.2-0.1,0.3,0c0.1,0,0.1,0.1,0,0.1c0,0,0,0-0.1,0
						C-277.6,185.1-277.7,185.1-277.8,185.2L-277.8,185.2z"/>
				</g>
			</g>
		</g>
	</g>
</g>
</svg>
