<?xml version="1.0" encoding="utf-8"?>
<!-- Generator: Adobe Illustrator 21.1.0, SVG Export Plug-In . SVG Version: 6.00 Build 0)  -->
<svg version="1.1"
	 id="svg2" xmlns:cc="http://creativecommons.org/ns#" xmlns:dc="http://purl.org/dc/elements/1.1/" xmlns:rdf="http://www.w3.org/1999/02/22-rdf-syntax-ns#" xmlns:svg="http://www.w3.org/2000/svg"
	 xmlns="http://www.w3.org/2000/svg" xmlns:xlink="http://www.w3.org/1999/xlink" x="0px" y="0px" viewBox="0 0 31 21"
	 style="enable-background:new 0 0 31 21;" xml:space="preserve">
<style type="text/css">
	.st0{fill:#1D1D1D;}
	.st1{fill:#FFFFFF;}
	.st2{fill:#D02533;}
	.st3{clip-path:url(#SVGID_2_);}
	.st4{fill:none;stroke:#C29620;stroke-width:1.27;stroke-linejoin:round;}
	.st5{fill:#C29620;}
	.st6{fill:none;stroke:#C29620;stroke-width:1.074;}
	.st7{fill:none;stroke:#C29620;stroke-width:1.189;stroke-linejoin:round;}
	.st8{fill:none;stroke:#C29620;stroke-width:2.378;stroke-linecap:round;stroke-linejoin:round;}
	.st9{fill:none;stroke:#C29620;stroke-width:1.27;stroke-linecap:round;stroke-linejoin:round;}
	.st10{fill:none;stroke:#C29620;stroke-width:0.891;stroke-linecap:round;stroke-linejoin:round;}
	.st11{fill:none;stroke:#C29620;stroke-width:1.15;}
	.st12{fill:none;stroke:#C29620;stroke-width:0.916;}
	.st13{fill:none;stroke:#C29620;stroke-width:1.218;}
	.st14{fill:none;stroke:#C29620;stroke-width:1.27;}
	.st15{fill:none;stroke:#C29620;stroke-width:0.354;}
</style>
<g id="g10" transform="matrix(1.3333333,0,0,-1.3333333,0,533.33333)">
	<path id="path12" class="st0" d="M0,384.3h23.3V400H0V384.3z"/>
	<path id="path14" class="st1" d="M0,389.5h23.3V400H0V389.5z"/>
	<path id="path16" class="st2" d="M0,394.8h23.3v5.2H0V394.8z"/>
	<g id="g18">
		<g>
			<defs>
				<rect id="SVGID_1_" x="-3.9" y="381.6" width="31" height="21"/>
			</defs>
			<clipPath id="SVGID_2_">
				<use xlink:href="#SVGID_1_"  style="overflow:visible;"/>
			</clipPath>
			<g id="g20" class="st3">
				<g id="g26" transform="translate(300.54,198.4004)">
					<path id="path28" class="st1" d="M-288.9,193.7l1.8-1.7l-0.1,3c0,0.5-0.4,0.4-0.7,0.2c-0.3-0.2-0.6-0.2-1-0.1
						c-0.3-0.1-0.7-0.1-1,0.1c-0.3,0.2-0.7,0.3-0.7-0.2l-0.1-3L-288.9,193.7L-288.9,193.7z"/>
				</g>
				<g id="g30" transform="translate(300.54,198.4004)">
					<path id="path32" class="st4" d="M-288.9,193.7l1.8-1.7l-0.1,3c0,0.5-0.4,0.4-0.7,0.2c-0.3-0.2-0.6-0.2-1-0.1
						c-0.3-0.1-0.7-0.1-1,0.1c-0.3,0.2-0.7,0.3-0.7-0.2l-0.1-3L-288.9,193.7L-288.9,193.7z"/>
				</g>
				<g id="g34" transform="translate(262.3135,235.6733)">
					<path id="path36" class="st5" d="M-252.1,157.9l-0.1-2.9l-0.2-0.2l0.1,3C-252.3,157.8-252.2,157.9-252.1,157.9z"/>
				</g>
				<g id="g38" transform="translate(268.7266,230.3135)">
					<path id="path40" class="st5" d="M-258.3,163l-0.1-2.5l-0.2-0.2l0.1,2.8C-258.5,163.1-258.3,163-258.3,163L-258.3,163z"/>
				</g>
				<g id="g42" transform="translate(274.5601,225.5327)">
					<path id="path44" class="st5" d="M-263.9,167.6l-0.1-2.1l-0.2-0.2l0.1,2.3C-264,167.7-263.9,167.6-263.9,167.6L-263.9,167.6z"
						/>
				</g>
				<g id="g46" transform="translate(280.8735,222.853)">
					<path id="path48" class="st5" d="M-270,170.2l-0.1-1.8l-0.2-0.1l0.1,2C-270.1,170.2-270,170.2-270,170.2"/>
				</g>
				<g id="g50" transform="translate(286.7061,222.853)">
					<path id="path52" class="st5" d="M-275.6,170.2l-0.1-1.5l-0.2-0.2l0.1,1.6C-275.7,170.2-275.6,170.2-275.6,170.2"/>
				</g>
				<g id="g54" transform="translate(337.6865,235.6733)">
					<path id="path56" class="st5" d="M-324.6,157.9l0.1-2.9l0.2-0.2l-0.1,3C-324.5,157.8-324.6,157.9-324.6,157.9z"/>
				</g>
				<g id="g58" transform="translate(331.2734,230.3135)">
					<path id="path60" class="st5" d="M-318.4,163l0.1-2.5l0.2-0.2l-0.1,2.8C-318.3,163.1-318.4,163-318.4,163L-318.4,163z"/>
				</g>
				<g id="g62" transform="translate(325.4395,225.5327)">
					<path id="path64" class="st5" d="M-312.8,167.6l0.1-2.1l0.2-0.2l-0.1,2.3C-312.7,167.7-312.8,167.6-312.8,167.6L-312.8,167.6z"
						/>
				</g>
				<g id="g66" transform="translate(319.127,222.853)">
					<path id="path68" class="st5" d="M-306.8,170.2l0.1-1.8l0.2-0.1l-0.1,2C-306.6,170.2-306.7,170.2-306.8,170.2"/>
				</g>
				<g id="g70" transform="translate(313.2939,222.853)">
					<path id="path72" class="st5" d="M-301.2,170.2l0.1-1.5l0.2-0.2l-0.1,1.6C-301,170.2-301.1,170.2-301.2,170.2"/>
				</g>
				<g id="g74" transform="translate(302.1074,189.96)">
					<path id="path76" class="st5" d="M-290.4,201.8l0.2-1.1l-0.1-0.1l-0.1,0.1l-0.1,1l0.1-1l-0.1-0.1l-0.1,0.1l0.1,1l-0.1-1
						l-0.1-0.1l-0.1,0.1l0.2,1.1H-290.4z"/>
				</g>
				<g id="g78" transform="translate(302.1074,189.96)">
					<path id="path80" class="st6" d="M-290.4,201.8l0.2-1.1l-0.1-0.1l-0.1,0.1l-0.1,1l0.1-1l-0.1-0.1l-0.1,0.1l0.1,1l-0.1-1
						l-0.1-0.1l-0.1,0.1l0.2,1.1H-290.4z"/>
				</g>
				<g id="g82" transform="translate(285.6538,202.7734)">
					<path id="path84" class="st1" d="M-274.6,189.5l-0.5-1.8l0.7-0.1l0.3,1.3L-274.6,189.5z"/>
				</g>
				<g id="g86" transform="translate(285.6538,202.7734)">
					<path id="path88" class="st7" d="M-274.6,189.5l-0.5-1.8l0.7-0.1l0.3,1.3L-274.6,189.5z"/>
				</g>
				<g id="g90" transform="translate(281.4468,187.373)">
					<path id="path92" class="st4" d="M-270.5,204.3l0.1-0.1l0.3,0.3"/>
				</g>
				<g id="g94" transform="translate(287.1733,196.7207)">
					<path id="path96" class="st4" d="M-276,195.3l0.1-0.6l0.2,0.3"/>
				</g>
				<g id="g98" transform="translate(292.0601,184.7002)">
					<path id="path100" class="st4" d="M-280.7,206.8l0.1-0.4"/>
				</g>
				<g id="g102" transform="translate(292.061,160.7881)">
					<path id="path104" class="st4" d="M-280.7,229.8l-0.1,0.3l-0.1,0.4l-0.2-0.2l-0.1,0.2l-0.2-0.2l0.1-0.4l0.1,0.2l0.1-0.3
						l0.2,0.2 M-280.6,230.5l-0.2-0.3"/>
				</g>
				<g id="g106" transform="translate(276.6602,158.6865)">
					<path id="path108" class="st4" d="M-265.9,231.8l0.1,0.2l0.1-0.3l0.1,0.2l0.1-0.3"/>
				</g>
				<g id="g110" transform="translate(314.3457,202.7734)">
					<path id="path112" class="st1" d="M-302.2,189.5l0.5-1.8l-0.7-0.1l-0.3,1.3L-302.2,189.5z"/>
				</g>
				<g id="g114" transform="translate(314.3457,202.7734)">
					<path id="path116" class="st7" d="M-302.2,189.5l0.5-1.8l-0.7-0.1l-0.3,1.3L-302.2,189.5z"/>
				</g>
				<g id="g118" transform="translate(318.5527,187.373)">
					<path id="path120" class="st4" d="M-306.2,204.3l-0.1-0.1l-0.3,0.3"/>
				</g>
				<g id="g122" transform="translate(312.8262,196.7207)">
					<path id="path124" class="st4" d="M-300.7,195.3l-0.1-0.6l-0.2,0.3"/>
				</g>
				<g id="g126" transform="translate(307.9395,184.7002)">
					<path id="path128" class="st4" d="M-296,206.8l-0.1-0.4"/>
				</g>
				<g id="g130" transform="translate(307.9395,160.7881)">
					<path id="path132" class="st4" d="M-296,229.8l0.1,0.3l0.1,0.4l0.2-0.2l0.1,0.2l0.2-0.2l-0.1-0.4l-0.1,0.2l-0.1-0.3l-0.2,0.2
						 M-296.2,230.5l0.2-0.3"/>
				</g>
				<g id="g134" transform="translate(323.3398,158.6865)">
					<path id="path136" class="st4" d="M-310.8,231.8l-0.1,0.2l-0.1-0.3l-0.1,0.2l-0.1-0.3"/>
				</g>
				<g id="g138" transform="translate(300,137.46)">
					<path id="path140" class="st1" d="M-288.4,252.2c0.5,0,1,0,1.3,0.1c0.1,0,0.1,0.1,0.1,0.2c0.1,0,0.1,0.2,0.1,0.2
						c-0.1,0-0.1,0.1-0.2,0.1c0,0.1-0.1,0.2-0.3,0.1c-0.2-0.1-0.7-0.1-1.1-0.1c-0.4,0-0.8,0-1.1,0.1c-0.1,0-0.3,0-0.3-0.1
						c-0.1,0-0.1-0.1-0.2-0.1c0.1,0,0-0.1,0.1-0.2c0-0.1,0-0.1,0.1-0.2C-289.4,252.2-288.9,252.2-288.4,252.2"/>
				</g>
				<g id="g142" transform="translate(300,137.46)">
					<path id="path144" class="st8" d="M-288.4,252.2c0.5,0,1,0,1.3,0.1c0.1,0,0.1,0.1,0.1,0.2c0.1,0,0.1,0.2,0.1,0.2
						c-0.1,0-0.1,0.1-0.2,0.1c0,0.1-0.1,0.2-0.3,0.1c-0.2-0.1-0.7-0.1-1.1-0.1c-0.4,0-0.8,0-1.1,0.1c-0.1,0-0.3,0-0.3-0.1
						c-0.1,0-0.1-0.1-0.2-0.1c0.1,0,0-0.1,0.1-0.2c0-0.1,0-0.1,0.1-0.2C-289.4,252.2-288.9,252.2-288.4,252.2z"/>
				</g>
				<g id="g146" transform="translate(281.9268,157.6396)">
					<path id="path148" class="st1" d="M-271,232.8c0.2,0,0.4,0,0.5,0c0.1,0,0.1-0.1,0-0.2c-0.1,0-0.4,0-0.5,0
						c-0.1,0-0.3,0.1-0.5,0.1c-0.1,0.1,0,0.2,0,0.2C-271.3,232.9-271.2,232.8-271,232.8z"/>
				</g>
				<g id="g150" transform="translate(281.9268,157.6396)">
					<path id="path152" class="st9" d="M-271,232.8c0.2,0,0.4,0,0.5,0c0.1,0,0.1-0.1,0-0.2c-0.1,0-0.4,0-0.5,0
						c-0.1,0-0.3,0.1-0.5,0.1c-0.1,0.1,0,0.2,0,0.2C-271.3,232.9-271.2,232.8-271,232.8L-271,232.8z"/>
				</g>
				<g id="g154" transform="translate(318.0801,157.6396)">
					<path id="path156" class="st1" d="M-305.8,232.8c-0.2,0-0.4,0-0.5,0c-0.1,0-0.1-0.1,0-0.2c0.1,0,0.4,0,0.5,0
						c0.1,0,0.3,0.1,0.5,0.1c0.1,0.1,0,0.2,0,0.2C-305.4,232.9-305.6,232.8-305.8,232.8"/>
				</g>
				<g id="g158" transform="translate(318.0801,157.6396)">
					<path id="path160" class="st9" d="M-305.8,232.8c-0.2,0-0.4,0-0.5,0c-0.1,0-0.1-0.1,0-0.2c0.1,0,0.4,0,0.5,0
						c0.1,0,0.3,0.1,0.5,0.1c0.1,0.1,0,0.2,0,0.2C-305.4,232.9-305.6,232.8-305.8,232.8z"/>
				</g>
				<g id="g162" transform="translate(268.7266,159.7402)">
					<path id="path164" class="st1" d="M-258.3,230.8c-0.1,0-0.2-0.1-0.1-0.2c0,0,0.1,0,0.1,0.1
						C-258.3,230.7-258.4,230.7-258.3,230.8"/>
				</g>
				<g id="g166" transform="translate(268.7266,159.7402)">
					<path id="path168" class="st9" d="M-258.3,230.8c-0.1,0-0.2-0.1-0.1-0.2c0,0,0.1,0,0.1,0.1
						C-258.3,230.7-258.4,230.7-258.3,230.8z"/>
				</g>
				<g id="g170" transform="translate(281.4468,149.96)">
					<path id="path172" class="st1" d="M-270.5,240.2c0,0.1,0.1,0.1,0.1,0.2c0,0,0,0.1-0.1,0.1c0,0-0.1,0-0.1-0.1
						C-270.6,240.3-270.5,240.3-270.5,240.2"/>
				</g>
				<g id="g174" transform="translate(281.4468,149.96)">
					<path id="path176" class="st9" d="M-270.5,240.2c0,0.1,0.1,0.1,0.1,0.2c0,0,0,0.1-0.1,0.1c0,0-0.1,0-0.1-0.1
						C-270.6,240.3-270.5,240.3-270.5,240.2z"/>
				</g>
				<g id="g178" transform="translate(296.5869,156.0137)">
					<path id="path180" class="st1" d="M-285.1,234.4c0.1,0,0.1-0.2,0.1-0.2c0,0.1-0.1,0.1-0.1,0.1
						C-285.1,234.3-285.1,234.3-285.1,234.4"/>
				</g>
				<g id="g182" transform="translate(296.5869,156.0137)">
					<path id="path184" class="st9" d="M-285.1,234.4c0.1,0,0.1-0.2,0.1-0.2c0,0.1-0.1,0.1-0.1,0.1
						C-285.1,234.3-285.1,234.3-285.1,234.4z"/>
				</g>
				<g id="g186" transform="translate(331.2734,159.7402)">
					<path id="path188" class="st1" d="M-318.4,230.8c0.1,0,0.2-0.1,0.1-0.2c0,0-0.1,0-0.1,0.1
						C-318.4,230.7-318.4,230.7-318.4,230.8"/>
				</g>
				<g id="g190" transform="translate(331.2734,159.7402)">
					<path id="path192" class="st9" d="M-318.4,230.8c0.1,0,0.2-0.1,0.1-0.2c0,0-0.1,0-0.1,0.1
						C-318.4,230.7-318.4,230.7-318.4,230.8z"/>
				</g>
				<g id="g194" transform="translate(318.5527,149.96)">
					<path id="path196" class="st1" d="M-306.2,240.2c0,0.1-0.1,0.1-0.1,0.2c0,0,0,0.1,0.1,0.1c0,0,0.1,0,0.1-0.1
						C-306.1,240.3-306.2,240.3-306.2,240.2"/>
				</g>
				<g id="g198" transform="translate(318.5527,149.96)">
					<path id="path200" class="st9" d="M-306.2,240.2c0,0.1-0.1,0.1-0.1,0.2c0,0,0,0.1,0.1,0.1c0,0,0.1,0,0.1-0.1
						C-306.1,240.3-306.2,240.3-306.2,240.2z"/>
				</g>
				<g id="g202" transform="translate(303.4131,156.0137)">
					<path id="path204" class="st1" d="M-291.7,234.4c-0.1,0-0.1-0.2-0.1-0.2c0,0.1,0.1,0.1,0.1,0.1
						C-291.6,234.3-291.7,234.3-291.7,234.4"/>
				</g>
				<g id="g206" transform="translate(303.4131,156.0137)">
					<path id="path208" class="st9" d="M-291.7,234.4c-0.1,0-0.1-0.2-0.1-0.2c0,0.1,0.1,0.1,0.1,0.1
						C-291.6,234.3-291.7,234.3-291.7,234.4z"/>
				</g>
				<g id="g210" transform="translate(269.7798,158.6865)">
					<path id="path212" class="st1" d="M-259.3,231.8c0,0,0.1,0,0.1,0L-259.3,231.8L-259.3,231.8z"/>
				</g>
				<g id="g214" transform="translate(269.7798,158.6865)">
					<path id="path216" class="st10" d="M-259.3,231.8c0,0,0.1,0,0.1,0L-259.3,231.8L-259.3,231.8z"/>
				</g>
				<g id="g218" transform="translate(275.0327,157.0605)">
					<path id="path220" class="st1" d="M-264.4,233.4c0,0,0.1,0,0.1,0L-264.4,233.4L-264.4,233.4z"/>
				</g>
				<g id="g222" transform="translate(275.0327,157.0605)">
					<path id="path224" class="st10" d="M-264.4,233.4c0,0,0.1,0,0.1,0L-264.4,233.4L-264.4,233.4z"/>
				</g>
				<g id="g226" transform="translate(294.1665,154.96)">
					<path id="path228" class="st1" d="M-282.8,235.4c0,0-0.1,0-0.1,0L-282.8,235.4L-282.8,235.4z"/>
				</g>
				<g id="g230" transform="translate(294.1665,154.96)">
					<path id="path232" class="st10" d="M-282.8,235.4c0,0-0.1,0-0.1,0L-282.8,235.4L-282.8,235.4z"/>
				</g>
				<g id="g234" transform="translate(288.3335,154.96)">
					<path id="path236" class="st1" d="M-277.2,235.4c0,0-0.1,0-0.1,0H-277.2L-277.2,235.4z"/>
				</g>
				<g id="g238" transform="translate(288.3335,154.96)">
					<path id="path240" class="st10" d="M-277.2,235.4c0,0-0.1,0-0.1,0H-277.2L-277.2,235.4z"/>
				</g>
				<g id="g242" transform="translate(330.2266,158.6865)">
					<path id="path244" class="st1" d="M-317.4,231.8c0,0-0.1,0-0.1,0L-317.4,231.8z"/>
				</g>
				<g id="g246" transform="translate(330.2266,158.6865)">
					<path id="path248" class="st10" d="M-317.4,231.8c0,0-0.1,0-0.1,0L-317.4,231.8z"/>
				</g>
				<g id="g250" transform="translate(324.9668,157.0605)">
					<path id="path252" class="st1" d="M-312.4,233.4c0,0-0.1,0-0.1,0L-312.4,233.4L-312.4,233.4z"/>
				</g>
				<g id="g254" transform="translate(324.9668,157.0605)">
					<path id="path256" class="st10" d="M-312.4,233.4c0,0-0.1,0-0.1,0L-312.4,233.4L-312.4,233.4z"/>
				</g>
				<g id="g258" transform="translate(305.834,154.96)">
					<path id="path260" class="st1" d="M-294,235.4c0,0,0.1,0,0.1,0L-294,235.4L-294,235.4z"/>
				</g>
				<g id="g262" transform="translate(305.834,154.96)">
					<path id="path264" class="st10" d="M-294,235.4c0,0,0.1,0,0.1,0L-294,235.4L-294,235.4z"/>
				</g>
				<g id="g266" transform="translate(311.666,154.96)">
					<path id="path268" class="st1" d="M-299.6,235.4c0,0,0.1,0,0.1,0H-299.6L-299.6,235.4z"/>
				</g>
				<g id="g270" transform="translate(311.666,154.96)">
					<path id="path272" class="st10" d="M-299.6,235.4c0,0,0.1,0,0.1,0H-299.6L-299.6,235.4z"/>
				</g>
				<g id="g274" transform="translate(268.8931,150.2793)">
					<path id="path276" class="st5" d="M-258.5,239.9C-258.5,239.9-258.5,239.9-258.5,239.9C-258.5,239.9-258.5,239.9-258.5,239.9
						C-258.5,239.9-258.4,239.9-258.5,239.9C-258.4,239.9-258.4,239.9-258.5,239.9C-258.5,239.9-258.5,239.9-258.5,239.9
						C-258.5,239.9-258.5,239.9-258.5,239.9"/>
				</g>
				<g id="g278" transform="translate(305.5137,147.666)">
					<path id="path280" class="st5" d="M-293.7,242.4C-293.7,242.4-293.7,242.4-293.7,242.4C-293.7,242.4-293.7,242.4-293.7,242.4
						C-293.7,242.4-293.6,242.4-293.7,242.4C-293.6,242.4-293.6,242.4-293.7,242.4C-293.7,242.4-293.7,242.4-293.7,242.4"/>
				</g>
				<g id="g282" transform="translate(305.7529,146.0137)">
					<path id="path284" class="st5" d="M-293.9,244C-293.9,244-293.9,244-293.9,244C-293.9,244-293.9,244-293.9,244L-293.9,244
						L-293.9,244C-293.9,244-293.9,244-293.9,244C-293.9,244-293.9,244-293.9,244C-293.9,244-293.9,244-293.9,244"/>
				</g>
				<g id="g286" transform="translate(269.4375,148.4395)">
					<path id="path288" class="st5" d="M-259,241.7C-259,241.7-259,241.7-259,241.7C-259,241.7-259,241.6-259,241.7
						C-259,241.6-259,241.6-259,241.7C-259,241.6-259,241.6-259,241.7C-259,241.6-259,241.6-259,241.7
						C-259,241.7-259,241.7-259,241.7 M-258.9,241.8C-258.9,241.8-258.9,241.8-258.9,241.8C-258.9,241.8-259,241.8-258.9,241.8
						c-0.1,0-0.1,0-0.1,0C-259,241.8-259,241.8-258.9,241.8C-259,241.8-258.9,241.8-258.9,241.8c0-0.1,0-0.1-0.1-0.1c0,0,0,0,0,0
						c0,0,0,0,0,0c0,0,0,0,0,0c0,0,0,0,0,0c0,0,0,0,0,0c0,0,0,0,0.1,0c0,0,0.1,0,0.1,0c0,0,0.1,0,0.1,0c0,0,0,0,0,0c0,0,0,0,0,0
						c0,0,0,0.1,0,0.1c0,0,0,0,0,0c0,0,0,0,0,0c0,0,0,0,0,0c0,0,0,0,0,0c0,0,0,0,0,0c0,0,0,0,0,0c0,0,0,0,0,0c0,0,0,0,0,0.1
						c0,0,0,0,0,0c0,0,0,0,0,0c0,0,0,0,0,0c0,0,0,0,0,0c0,0,0,0,0,0c0,0,0,0,0,0c0,0,0,0,0,0.1
						C-258.9,241.8-258.9,241.8-258.9,241.8C-258.9,241.8-258.9,241.8-258.9,241.8C-258.9,241.8-258.9,241.8-258.9,241.8"/>
				</g>
				<g id="g290" transform="translate(268.7471,145.0928)">
					<path id="path292" class="st5" d="M-258.3,244.9C-258.3,244.9-258.3,244.9-258.3,244.9C-258.3,244.9-258.3,244.9-258.3,244.9
						C-258.3,244.9-258.3,244.9-258.3,244.9C-258.3,244.9-258.3,244.9-258.3,244.9C-258.3,244.9-258.3,244.9-258.3,244.9"/>
				</g>
				<g id="g294" transform="translate(270.7798,144.4795)">
					<path id="path296" class="st5" d="M-260.3,245.5C-260.3,245.5-260.3,245.5-260.3,245.5C-260.3,245.5-260.3,245.5-260.3,245.5
						C-260.3,245.5-260.3,245.5-260.3,245.5C-260.3,245.5-260.3,245.5-260.3,245.5C-260.3,245.5-260.3,245.5-260.3,245.5"/>
				</g>
				<g id="g298" transform="translate(330.1865,144.4268)">
					<path id="path300" class="st5" d="M-317.4,245.5C-317.4,245.5-317.4,245.5-317.4,245.5C-317.4,245.5-317.4,245.5-317.4,245.5
						C-317.4,245.6-317.4,245.6-317.4,245.5C-317.3,245.5-317.3,245.5-317.4,245.5C-317.4,245.5-317.4,245.5-317.4,245.5
						C-317.4,245.5-317.4,245.5-317.4,245.5"/>
				</g>
				<g id="g302" transform="translate(273.4805,143.6602)">
					<path id="path304" class="st5" d="M-262.9,246.2C-262.9,246.2-262.9,246.3-262.9,246.2C-262.9,246.3-262.9,246.3-262.9,246.2
						C-262.9,246.3-262.9,246.3-262.9,246.2C-262.9,246.3-262.9,246.3-262.9,246.2C-262.8,246.3-262.8,246.3-262.9,246.2
						C-262.9,246.2-262.9,246.2-262.9,246.2"/>
				</g>
				<g id="g306" transform="translate(288.0928,143.0059)">
					<path id="path308" class="st5" d="M-276.9,246.9C-276.9,246.9-276.9,246.9-276.9,246.9C-276.9,246.9-276.9,246.9-276.9,246.9
						C-276.9,246.9-276.9,247-276.9,246.9c0,0.1,0,0.1,0,0.2c0,0,0,0,0,0c0,0,0,0,0,0.1c0,0,0,0,0,0c0,0,0,0,0,0c0,0,0,0,0,0
						c0,0,0,0,0,0c0,0,0,0,0,0c0,0,0,0,0,0C-276.9,247-276.9,246.9-276.9,246.9C-276.9,246.9-276.9,246.9-276.9,246.9
						C-276.9,246.9-276.9,246.9-276.9,246.9C-276.9,246.9-276.9,246.9-276.9,246.9"/>
				</g>
				<g id="g310" transform="translate(307.4766,144.04)">
					<path id="path312" class="st5" d="M-295.6,245.9L-295.6,245.9L-295.6,245.9L-295.6,245.9L-295.6,245.9
						C-295.6,245.9-295.6,245.9-295.6,245.9C-295.6,245.9-295.6,245.9-295.6,245.9C-295.6,245.9-295.6,245.9-295.6,245.9
						C-295.6,245.9-295.6,245.9-295.6,245.9L-295.6,245.9z M-295.5,246.1C-295.6,246.1-295.6,246.1-295.5,246.1
						C-295.6,246.1-295.6,246-295.5,246.1c0-0.1,0-0.1,0-0.1c0,0,0,0,0,0c0,0,0,0,0,0c0,0,0,0,0,0c0,0,0,0,0,0c0,0,0,0,0,0
						c0,0,0,0,0,0c0,0,0,0,0,0c0,0,0,0,0,0c0,0,0.1,0,0.1,0c0,0,0,0,0.1,0c0,0,0,0,0,0c0,0,0,0,0,0.1c0,0,0,0,0,0.1c0,0,0,0,0,0
						c0,0,0,0,0,0c0,0,0,0,0,0c0,0,0,0,0,0c0,0,0,0,0,0c0,0,0,0,0,0c0,0,0,0,0,0c0,0,0,0,0,0.1C-295.5,246-295.5,246-295.5,246.1
						C-295.5,246.1-295.5,246.1-295.5,246.1"/>
				</g>
				<g id="g314" transform="translate(282.979,147.4551)">
					<path id="path316" class="st5" d="M-272,242.6C-272,242.6-272,242.6-272,242.6C-272,242.6-272,242.6-272,242.6
						C-272,242.6-272,242.6-272,242.6C-272,242.6-272,242.6-272,242.6C-272,242.6-272,242.6-272,242.6L-272,242.6L-272,242.6
						C-272,242.6-272,242.6-272,242.6C-272,242.6-272,242.6-272,242.6 M-271.8,242.7C-271.8,242.7-271.9,242.7-271.8,242.7
						C-271.9,242.7-271.9,242.7-271.8,242.7C-271.9,242.7-271.9,242.6-271.8,242.7c0-0.1,0-0.1,0-0.1c0,0,0,0,0-0.1c0,0,0,0,0-0.1
						c0,0,0,0,0,0c0,0,0,0,0,0c0,0,0,0,0,0c0,0,0,0,0,0c0,0,0,0,0,0c0,0,0,0,0,0c0,0,0,0,0,0c0,0,0,0,0,0.1c0,0,0,0-0.1,0
						c0,0,0,0,0,0c0,0,0,0,0,0c0,0,0.1,0,0,0c0,0,0,0,0,0c0,0,0,0,0,0c0,0,0,0,0,0.1c0,0,0,0,0,0c0,0,0,0,0-0.1c0,0,0,0,0-0.1
						c0,0,0,0,0,0c0,0,0,0,0,0c0,0,0,0,0.1,0c0,0,0,0,0.1,0c0,0,0,0,0.1,0c0,0,0,0,0.1,0c0,0,0,0,0,0c0,0,0,0,0,0c0,0,0,0,0,0
						c0,0,0,0,0,0c0,0,0,0,0,0c0,0,0,0,0,0c0,0,0,0,0,0.1c0,0,0,0.1,0,0.1C-271.8,242.6-271.8,242.6-271.8,242.7
						C-271.8,242.7-271.8,242.7-271.8,242.7C-271.8,242.7-271.8,242.7-271.8,242.7"/>
				</g>
				<g id="g318" transform="translate(323.3535,144.3525)">
					<path id="path320" class="st5" d="M-310.8,245.6C-310.8,245.6-310.8,245.6-310.8,245.6C-310.8,245.6-310.8,245.6-310.8,245.6
						C-310.8,245.6-310.8,245.6-310.8,245.6C-310.8,245.6-310.8,245.6-310.8,245.6C-310.8,245.6-310.8,245.6-310.8,245.6
						C-310.8,245.6-310.8,245.6-310.8,245.6 M-311.1,245.6C-311.1,245.6-311.1,245.6-311.1,245.6
						C-311,245.6-311.1,245.6-311.1,245.6C-311.1,245.6-311.1,245.6-311.1,245.6C-311.1,245.6-311.1,245.6-311.1,245.6
						C-311.1,245.6-311.1,245.6-311.1,245.6C-311.1,245.6-311.1,245.6-311.1,245.6C-311.1,245.6-311.1,245.6-311.1,245.6
						C-311.1,245.6-311.1,245.6-311.1,245.6 M-310.9,245.7C-310.9,245.7-310.9,245.6-310.9,245.7
						C-310.9,245.6-310.9,245.6-310.9,245.7C-310.9,245.6-310.9,245.6-310.9,245.7C-310.9,245.6-310.9,245.6-310.9,245.7
						C-310.9,245.6-310.9,245.6-310.9,245.7C-310.9,245.6-310.9,245.6-310.9,245.7C-310.9,245.6-310.9,245.6-310.9,245.7
						 M-310.7,245.7C-310.7,245.7-310.7,245.7-310.7,245.7C-310.7,245.6-310.7,245.6-310.7,245.7
						C-310.7,245.6-310.7,245.6-310.7,245.7C-310.7,245.6-310.7,245.6-310.7,245.7C-310.7,245.6-310.7,245.6-310.7,245.7
						C-310.7,245.6-310.7,245.7-310.7,245.7 M-310.9,245.7C-310.9,245.7-310.9,245.7-310.9,245.7
						C-310.8,245.7-310.8,245.6-310.9,245.7C-310.8,245.6-310.8,245.6-310.9,245.7C-310.8,245.6-310.8,245.6-310.9,245.7
						C-310.9,245.6-310.9,245.6-310.9,245.7C-310.9,245.6-310.9,245.6-310.9,245.7C-310.9,245.7-310.9,245.7-310.9,245.7
						C-310.9,245.7-310.9,245.7-310.9,245.7 M-310.7,245.9C-310.7,245.9-310.7,245.9-310.7,245.9
						C-310.8,245.9-310.8,245.9-310.7,245.9C-310.7,245.8-310.7,245.9-310.7,245.9c0-0.1,0-0.1,0.1-0.1c0,0,0-0.1,0-0.1c0,0,0,0,0,0
						c0,0,0,0-0.1,0c0,0,0,0,0-0.1c0,0,0,0-0.1,0c0,0,0,0-0.1,0c0,0,0,0.1,0,0.1c0,0-0.1,0,0-0.1c0,0,0,0,0-0.1c0,0,0-0.1,0-0.1
						c0,0,0,0,0,0c0,0,0,0,0,0c0,0,0,0-0.1-0.1c0,0,0,0,0-0.1c0,0,0,0,0,0c0,0,0,0,0,0c0,0-0.1,0-0.1,0c0,0,0,0,0,0
						c0,0,0.1,0,0.1,0.1c0,0,0,0,0.1,0c0,0,0.1,0,0.1,0c0,0,0.1,0,0.1,0c0,0,0,0,0,0.1c0,0,0,0,0,0c0,0,0.1,0,0.1,0c0,0,0,0,0.1,0
						c0,0,0.1,0,0.1,0c0,0,0,0,0,0c0,0-0.1,0-0.1,0c0,0,0,0.1,0,0.1C-310.6,245.8-310.6,245.9-310.7,245.9
						C-310.6,245.9-310.7,245.9-310.7,245.9z"/>
				</g>
				<g id="g322" transform="translate(311.9072,141.1396)">
					<path id="path324" class="st5" d="M-299.8,248.7C-299.8,248.7-299.8,248.7-299.8,248.7C-299.8,248.7-299.8,248.7-299.8,248.7
						C-299.8,248.7-299.8,248.7-299.8,248.7C-299.8,248.7-299.8,248.7-299.8,248.7c0.1,0.1,0.1,0.1,0.1,0.1c0,0,0,0,0,0c0,0,0,0,0,0
						c0,0,0,0,0,0c0,0,0,0,0,0c0,0,0,0,0,0c0,0,0,0,0,0c0,0,0,0,0,0c0,0,0,0,0,0c0,0,0,0,0,0c0,0,0,0,0,0
						C-299.7,248.7-299.7,248.7-299.8,248.7C-299.7,248.7-299.7,248.7-299.8,248.7C-299.8,248.7-299.8,248.7-299.8,248.7
						C-299.8,248.7-299.8,248.7-299.8,248.7C-299.8,248.7-299.8,248.7-299.8,248.7L-299.8,248.7z"/>
				</g>
				<g id="g326" transform="translate(307.3398,140.8398)">
					<path id="path328" class="st5" d="M-295.4,249C-295.4,249-295.4,249-295.4,249C-295.4,249-295.4,249-295.4,249
						C-295.4,249-295.4,249-295.4,249C-295.4,249-295.4,249-295.4,249C-295.4,249-295.4,249-295.4,249c0.1,0,0.1,0,0.1,0
						c0,0,0,0,0,0C-295.3,249-295.3,249-295.4,249C-295.3,248.9-295.3,248.9-295.4,249C-295.4,249-295.4,249-295.4,249
						C-295.4,249-295.4,249-295.4,249C-295.4,249-295.4,249-295.4,249C-295.4,249-295.4,249-295.4,249
						C-295.4,248.9-295.4,248.9-295.4,249C-295.4,248.9-295.4,248.9-295.4,249"/>
				</g>
				<g id="g330" transform="translate(302.9805,144.1484)">
					<path id="path332" class="st5" d="M-291.2,245.8C-291.2,245.8-291.2,245.8-291.2,245.8C-291.2,245.8-291.2,245.8-291.2,245.8
						C-291.2,245.8-291.2,245.8-291.2,245.8C-291.2,245.7-291.3,245.7-291.2,245.8C-291.3,245.8-291.3,245.8-291.2,245.8
						C-291.3,245.8-291.2,245.8-291.2,245.8 M-291.5,245.8C-291.5,245.8-291.5,245.8-291.5,245.8
						C-291.5,245.8-291.5,245.8-291.5,245.8c0.1,0,0.1,0,0.1,0c0,0,0,0,0,0c0,0,0,0,0-0.1c0,0,0,0,0,0c0,0,0,0,0,0c0,0,0,0,0,0
						c0,0,0,0,0,0c0,0,0,0,0,0c0,0,0,0,0,0C-291.4,245.7-291.5,245.7-291.5,245.8C-291.5,245.7-291.5,245.7-291.5,245.8
						C-291.6,245.8-291.6,245.8-291.5,245.8C-291.6,245.8-291.6,245.8-291.5,245.8C-291.5,245.8-291.5,245.8-291.5,245.8
						 M-291.6,245.9C-291.6,245.9-291.6,245.9-291.6,245.9C-291.6,245.8-291.6,245.8-291.6,245.9c0-0.1,0-0.1-0.1-0.1
						C-291.7,245.8-291.7,245.8-291.6,245.9c-0.1,0-0.1-0.1-0.1-0.1c0,0,0,0,0-0.1c0,0,0-0.1,0-0.1c0,0,0,0-0.1,0c0,0,0,0,0,0
						c0,0,0.1,0,0.1,0c0,0,0,0,0,0c0,0,0.1,0,0.1,0c0,0,0.1,0,0.1,0c0,0,0,0,0-0.1c0,0,0,0,0,0c0,0,0,0,0,0.1c0,0,0.1,0,0.1,0
						c0,0,0,0,0,0c0,0,0,0,0,0.1c0,0,0,0,0,0.1c0,0,0,0-0.1,0c0,0,0,0,0-0.1c0,0,0,0,0,0c0,0,0,0,0,0c0,0,0,0-0.1,0c0,0-0.1,0-0.1,0
						C-291.5,245.8-291.5,245.8-291.6,245.9C-291.6,245.8-291.6,245.9-291.6,245.9C-291.6,245.9-291.6,245.9-291.6,245.9"/>
				</g>
				<g id="g334" transform="translate(299.9868,181.8457)">
					<path id="path336" class="st1" d="M-288.4,209.6c0.8,0.7,0.8,1.6,0.8,1.6c0,0,0,0-0.1,0c-0.2,0-0.6,0.1-0.7,0.2
						c-0.1-0.1-0.5-0.2-0.7-0.2c0,0,0,0-0.1,0C-289.1,211.2-289.2,210.2-288.4,209.6L-288.4,209.6z"/>
				</g>
				<g id="g338" transform="translate(299.9868,181.8457)">
					<path id="path340" class="st11" d="M-288.4,209.6c0.8,0.7,0.8,1.6,0.8,1.6c0,0,0,0-0.1,0c-0.2,0-0.6,0.1-0.7,0.2
						c-0.1-0.1-0.5-0.2-0.7-0.2c0,0,0,0-0.1,0C-289.1,211.2-289.2,210.2-288.4,209.6L-288.4,209.6z"/>
				</g>
				<g id="g342" transform="translate(318.1465,221.3062)">
					<path id="path344" class="st1" d="M-305.8,171.7C-305.8,171.7-305.8,171.7-305.8,171.7c-0.2,0-0.6,0.1-0.7,0.2
						c-0.2-0.1-0.5-0.2-0.7-0.2c0,0,0,0,0,0c0,0,0-0.1,0-0.1c0-0.1,0-0.3,0.1-0.4c0.1-0.4,0.3-0.7,0.6-1c0.3,0.3,0.5,0.6,0.6,1
						c0,0.1,0.1,0.3,0.1,0.4C-305.8,171.6-305.8,171.6-305.8,171.7"/>
				</g>
				<g id="g346" transform="translate(318.1465,221.3062)">
					<path id="path348" class="st12" d="M-305.8,171.7C-305.8,171.7-305.8,171.7-305.8,171.7c-0.2,0-0.6,0.1-0.7,0.2
						c-0.2-0.1-0.5-0.2-0.7-0.2c0,0,0,0,0,0c0,0,0-0.1,0-0.1c0-0.1,0-0.3,0.1-0.4c0.1-0.4,0.3-0.7,0.6-1c0.3,0.3,0.5,0.6,0.6,1
						c0,0.1,0.1,0.3,0.1,0.4C-305.8,171.6-305.8,171.6-305.8,171.7z"/>
				</g>
				<g id="g350" transform="translate(292.9204,223.3135)">
					<path id="path352" class="st5" d="M-281.6,169.7c-0.2,0-0.3-0.1-0.4-0.1c0,0,0,0,0,0c0,0,0-0.1,0-0.1c0-0.1,0-0.3,0.1-0.4
						c0.1-0.3,0.2-0.5,0.4-0.7V169.7z"/>
				</g>
				<g id="g354" transform="translate(306.666,223.3735)">
					<path id="path356" class="st5" d="M-294.8,169.7v-1.3c0.2,0.2,0.3,0.5,0.4,0.7c0,0.1,0.1,0.3,0.1,0.4c0,0,0,0.1,0,0.1
						c0,0,0,0,0,0C-294.5,169.6-294.6,169.6-294.8,169.7"/>
				</g>
				<g id="g358" transform="translate(308.2061,231.2734)">
					<path id="path360" class="st1" d="M-296.3,162.1C-296.2,162.1-296.3,162.2-296.3,162.1c0,0,0.2,0,0.2,0c-0.1,0-0.2,0.4-0.2,0.7
						c0,0.3,0,0.4-0.1,0.4c-0.1,0.1-0.2,0.1-0.3,0.1c-0.1,0-0.1,0-0.1,0c-0.1,0-0.2,0-0.3,0c0,0-0.1-0.2,0-0.2
						c0.1,0.1,0.2,0,0.2-0.1c0-0.1,0-0.3,0-0.5c-0.1-0.2-0.3-0.5-0.3-0.5c0.1,0,0.2,0.1,0.2,0.1l0-0.1c0.1,0.1,0.2,0.1,0.2,0.1
						l0.1-0.1c0,0,0.1,0.1,0.1,0.1S-296.4,162.1-296.3,162.1L-296.3,162.1z"/>
				</g>
				<g id="g362" transform="translate(308.2061,231.2734)">
					<path id="path364" class="st13" d="M-296.3,162.1C-296.2,162.1-296.3,162.2-296.3,162.1c0,0,0.2,0,0.2,0
						c-0.1,0-0.2,0.4-0.2,0.7c0,0.3,0,0.4-0.1,0.4c-0.1,0.1-0.2,0.1-0.3,0.1c-0.1,0-0.1,0-0.1,0c-0.1,0-0.2,0-0.3,0
						c0,0-0.1-0.2,0-0.2c0.1,0.1,0.2,0,0.2-0.1c0-0.1,0-0.3,0-0.5c-0.1-0.2-0.3-0.5-0.3-0.5c0.1,0,0.2,0.1,0.2,0.1l0-0.1
						c0.1,0.1,0.2,0.1,0.2,0.1l0.1-0.1c0,0,0.1,0.1,0.1,0.1S-296.4,162.1-296.3,162.1L-296.3,162.1z"/>
				</g>
				<g id="g366" transform="translate(297.4131,248.2866)">
					<path id="path368" class="st14" d="M-285.9,145.7c0,0-0.1-0.4-0.2-0.6"/>
				</g>
				<g id="g370" transform="translate(299.7671,248.5732)">
					<path id="path372" class="st14" d="M-288.2,145.5c0,0,0-0.4-0.1-0.6"/>
				</g>
				<g id="g374" transform="translate(301.8535,248.1265)">
					<path id="path376" class="st14" d="M-290.2,145.9c0,0,0-0.5,0-0.6"/>
				</g>
				<g id="g378" transform="translate(304.4941,247.5264)">
					<path id="path380" class="st14" d="M-292.7,146.5c0,0,0-0.4,0.1-0.5"/>
				</g>
				<g id="g382" transform="translate(294.7202,253.5933)">
					<path id="path384" class="st5" d="M-283.3,140.6C-283.3,140.7-283.3,140.7-283.3,140.6c-0.1,0.2-0.2,0.2-0.2,0.2
						c0,0,0,0.1,0.1,0.1c0,0,0.2,0,0.3-0.2C-283.2,140.7-283.3,140.7-283.3,140.6C-283.3,140.7-283.3,140.6-283.3,140.6"/>
				</g>
				<g id="g386" transform="translate(294.7202,253.5933)">
					<path id="path388" class="st15" d="M-283.3,140.6C-283.3,140.7-283.3,140.7-283.3,140.6c-0.1,0.2-0.2,0.2-0.2,0.2
						c0,0,0,0.1,0.1,0.1c0,0,0.2,0,0.3-0.2C-283.2,140.7-283.3,140.7-283.3,140.6C-283.3,140.7-283.3,140.6-283.3,140.6z"/>
				</g>
				<g id="g390" transform="translate(288.2939,260.4932)">
					<path id="path392" class="st5" d="M-277.1,134C-277.1,134-277.1,134.1-277.1,134c0.1,0.1,0.2,0.1,0.3,0c0,0,0,0.1,0.1,0
						c0.1,0,0.3-0.1,0.3-0.1c0,0,0,0,0-0.1h0c0,0-0.1,0-0.1,0c0,0,0,0-0.1,0c0,0,0,0-0.1,0c0,0,0,0,0,0c0,0,0,0,0,0c0,0,0,0,0,0
						c0,0-0.1,0-0.1,0.1C-276.9,134.1-277,134.1-277.1,134C-277.1,134.1-277.1,134-277.1,134L-277.1,134L-277.1,134z"/>
				</g>
				<g id="g394" transform="translate(288.2939,260.4932)">
					<path id="path396" class="st15" d="M-277.1,134C-277.1,134-277.1,134.1-277.1,134c0.1,0.1,0.2,0.1,0.3,0c0,0,0,0.1,0.1,0
						c0.1,0,0.3-0.1,0.3-0.1c0,0,0,0,0-0.1h0c0,0-0.1,0-0.1,0c0,0,0,0-0.1,0c0,0,0,0-0.1,0c0,0,0,0,0,0c0,0,0,0,0,0c0,0,0,0,0,0
						c0,0-0.1,0-0.1,0.1C-276.9,134.1-277,134.1-277.1,134C-277.1,134.1-277.1,134-277.1,134L-277.1,134L-277.1,134z"/>
				</g>
				<g id="g398" transform="translate(299.2163,260.3359)">
					<path id="path400" class="st1" d="M-287.6,134.2C-287.6,134.2-287.6,134.2-287.6,134.2C-287.6,134.1-287.6,134.1-287.6,134.2
						C-287.6,134.1-287.7,134.1-287.6,134.2C-287.7,134.2-287.6,134.2-287.6,134.2"/>
				</g>
			</g>
		</g>
	</g>
</g>
</svg>
