<?xml version="1.0" encoding="utf-8"?>
<!-- Generator: Adobe Illustrator 21.1.0, SVG Export Plug-In . SVG Version: 6.00 Build 0)  -->
<svg version="1.1"
	 id="svg2" xmlns:cc="http://creativecommons.org/ns#" xmlns:dc="http://purl.org/dc/elements/1.1/" xmlns:rdf="http://www.w3.org/1999/02/22-rdf-syntax-ns#" xmlns:svg="http://www.w3.org/2000/svg"
	 xmlns="http://www.w3.org/2000/svg" xmlns:xlink="http://www.w3.org/1999/xlink" x="0px" y="0px" viewBox="0 0 31 21"
	 style="enable-background:new 0 0 31 21;" xml:space="preserve">
<style type="text/css">
	.st0{fill:#1E703E;}
	.st1{clip-path:url(#SVGID_2_);}
	.st2{fill:#FFFFFF;}
</style>
<g id="g10" transform="matrix(1.3333333,0,0,-1.3333333,0,533.33333)">
	<path id="path12" class="st0" d="M0,384.3h23.3V400H0V384.3z"/>
	<g id="g14">
		<g>
			<defs>
				<rect id="SVGID_1_" x="-3.9" y="381.6" width="31" height="21"/>
			</defs>
			<clipPath id="SVGID_2_">
				<use xlink:href="#SVGID_1_"  style="overflow:visible;"/>
			</clipPath>
			<g id="g16" class="st1">
				<g id="g22" transform="translate(377.4941,107.0645)">
					<path id="path24" class="st2" d="M-362.9,281.4C-362.9,281.4-362.9,281.4-362.9,281.4c0.3,0,0.6,0,0.8,0c0,0,0-0.1,0-0.1
						c0,0,0,0,0,0c0,0,0,0,0,0c0,0,0,0,0,0c-0.1,0-0.1,0-0.2,0c0,0,0,0,0,0c0,0.1-0.2,0.1-0.2,0c0,0,0,0,0,0c0,0,0,0,0,0
						c0,0,0,0,0,0c0,0,0,0,0,0c0,0,0,0,0,0c-0.1,0-0.2,0-0.4,0C-362.9,281.3-362.9,281.4-362.9,281.4 M-363,282.1
						C-363,282.1-363,282.1-363,282.1c-0.2,0-0.2-0.2-0.1-0.3c-1.9,0-4.9,0-5.6,0c-0.4,0-1.5,0-1.5,0c0.2-0.4,0.6-0.4,1.1-0.4
						c0.9,0,4.9,0,6,0c-0.1-0.1,0-0.4,0.1-0.4c0,0,0,0,0,0c0,0,0,0,0,0c0,0,0,0,0,0c0.1,0,0.1,0,0.1,0.1c0.1,0,0.8,0,0.9,0
						c0,0,0,0,0,0c0-0.1,0.1-0.1,0.2-0.1c0.1,0,0.3,0,0.3,0.3c0,0,0,0.5-0.3,0.5c-0.1,0-0.3,0-0.3,0c-0.2,0-0.4,0-0.7,0
						c0,0,0.1,0.2,0,0.2C-362.9,282-362.9,282-363,282.1L-363,282.1C-362.9,282-363,282-363,282.1C-363,282-363,282-363,282.1
						C-363,282-363,282-363,282.1C-363,282-363,282-363,282.1C-363,282-363,282-363,282.1C-363,282-363,282.1-363,282.1
						C-363,282.1-363,282.1-363,282.1C-363,282.1-363,282.1-363,282.1C-363,282.1-363,282.1-363,282.1L-363,282.1
						C-363,282.1-363,282.1-363,282.1C-363,282.1-363,282.1-363,282.1z M-361.3,285.5C-361.4,285.5-361.4,285.5-361.3,285.5
						c-0.1,0-0.1,0-0.1-0.1c0-0.1,0-0.1,0.1-0.1c0,0,0-0.1,0-0.1c0,0-0.1-0.1-0.1-0.1c0,0,0-0.1,0-0.1c0.1,0,0.4,0.1,0.4,0.1
						c0,0,0,0.1,0,0.1c0,0-0.1,0-0.1,0c0,0-0.1,0,0,0.1c0,0,0,0.1,0,0.1C-361.2,285.5-361.2,285.5-361.3,285.5
						C-361.3,285.5-361.3,285.5-361.3,285.5L-361.3,285.5L-361.3,285.5z M-365.3,285.7C-365.3,285.7-365.3,285.7-365.3,285.7
						c0,0-0.2-0.1-0.2-0.2c0,0,0,0,0-0.1c0,0,0.1,0,0.1,0c0.1,0,0.1,0,0.1-0.1c0-0.1,0-0.1,0-0.1c0,0,0,0,0.1,0
						c0.1,0,0.2,0.1,0.4,0.1c0,0,0,0.1,0,0.1c-0.1,0-0.2,0-0.3-0.1c-0.1,0-0.1,0-0.1,0.1C-365.3,285.5-365.2,285.6-365.3,285.7
						C-365.2,285.6-365.3,285.7-365.3,285.7 M-371.5,286.1C-371.5,286.1-371.5,286-371.5,286.1c-0.2-0.3-0.2-0.8-0.1-0.9
						c0.1-0.1,0.1-0.1,0.2-0.1c0.1,0.1,0.2,0.3,0.1,0.4c0,0.1-0.1,0.1-0.1,0c-0.1-0.2-0.1-0.1-0.1,0
						C-371.6,285.7-371.5,285.8-371.5,286.1C-371.5,286-371.5,286.1-371.5,286.1L-371.5,286.1L-371.5,286.1z M-366.7,286.3
						C-366.7,286.3-366.7,286.3-366.7,286.3L-366.7,286.3c0.1,0,0.3,0,0.5-0.1c0.1,0,0.2-0.1,0.1-0.2c-0.1,0-0.2-0.1-0.2-0.2
						c0-0.1,0-0.1,0-0.2c0,0,0,0,0,0l0,0c0,0,0,0,0,0c0,0,0,0,0,0l0,0c0,0,0,0,0,0c0,0,0,0,0,0c0,0,0,0,0,0c0,0-0.1,0-0.1,0
						c-0.1,0.1-0.3,0.2-0.3,0.5C-366.8,286.2-366.8,286.3-366.7,286.3L-366.7,286.3L-366.7,286.3z M-368.7,286.6
						C-368.7,286.6-368.8,286.5-368.7,286.6c-0.1-0.1,0.1-0.2,0.1-0.3c0,0,0-0.2,0-0.2c0,0,0.1,0.1,0.1,0.2
						C-368.5,286.3-368.5,286.5-368.7,286.6C-368.6,286.6-368.6,286.6-368.7,286.6L-368.7,286.6L-368.7,286.6z M-362,286.9
						c-0.1,0-0.1-0.1-0.1-0.1c0,0,0.1-0.2,0.1-0.3c0-0.1,0-0.2,0-0.3c0,0,0.1,0.1,0.1,0.3C-361.9,286.5-361.9,286.8-362,286.9
						C-362,286.9-362,286.9-362,286.9L-362,286.9z M-369.8,287C-369.8,287-369.8,287-369.8,287c0.1-0.1,0.1-0.1,0.1-0.2c0,0,0,0,0,0
						c0,0,0,0,0,0c0,0-0.1,0-0.1,0c0,0-0.1,0-0.1,0C-370,286.9-369.9,286.9-369.8,287C-369.9,286.9-369.9,286.9-369.8,287
						C-369.9,287-369.9,287-369.8,287C-369.9,287-369.9,287-369.8,287C-369.8,287-369.8,287-369.8,287 M-370.8,287.1
						c-0.3,0-0.8-0.4-0.8-0.6c0.3,0.2,0.6,0.3,1,0.5C-370.7,287-370.6,287.1-370.8,287.1 M-365.7,287.2
						C-365.6,287.2-365.6,287.2-365.7,287.2c0.1,0,0.2-0.1,0.2-0.1c0,0,0,0,0,0c0,0,0,0,0,0c0,0,0,0,0,0c0,0,0,0,0,0c0,0,0,0,0,0
						c0,0,0,0,0,0c0,0-0.1,0-0.1,0C-365.7,287.1-365.7,287.2-365.7,287.2C-365.7,287.2-365.7,287.2-365.7,287.2
						C-365.7,287.2-365.7,287.2-365.7,287.2C-365.7,287.2-365.7,287.2-365.7,287.2C-365.7,287.2-365.7,287.2-365.7,287.2
						C-365.7,287.2-365.7,287.2-365.7,287.2C-365.7,287.2-365.7,287.2-365.7,287.2 M-361.9,287.3
						C-361.9,287.3-361.9,287.3-361.9,287.3c0,0-0.6-0.4-0.6-0.4c-0.1-0.1,0-0.2,0-0.2c0,0,0.6,0.4,0.6,0.4
						C-361.9,287.1-361.9,287.3-361.9,287.3L-361.9,287.3z M-366.2,287.5C-366.2,287.5-366.3,287.4-366.2,287.5
						c-0.1-0.1,0-0.1-0.1-0.1c0,0-0.1,0-0.1,0.1c0,0,0,0,0,0.1c0,0,0,0,0,0c0,0,0,0,0,0c0,0,0,0,0,0c0,0,0,0,0,0c0,0,0,0,0,0
						c0,0,0,0,0,0c0,0,0,0,0,0.1c0,0,0,0,0,0c-0.1,0-0.1-0.1-0.1-0.1c0,0,0-0.2,0.1-0.2c0.1-0.1,0.4,0,0.4,0.2
						C-366.1,287.4-366.1,287.4-366.2,287.5C-366.2,287.5-366.2,287.5-366.2,287.5 M-367.3,287.6
						C-367.3,287.6-367.3,287.6-367.3,287.6C-367.3,287.6-367.3,287.6-367.3,287.6C-367.3,287.6-367.3,287.6-367.3,287.6
						c-0.1-0.1-0.1-0.2-0.1-0.3c0,0,0.1-0.3,0.2-0.5c0.1-0.2,0.1-0.5,0.1-0.7c-0.1-0.3-0.4-0.6-0.7-0.7c-0.1,0-0.3,0-0.3,0
						c0,0,0,0,0,0c-0.1,0.1-0.1,0.1-0.1,0.2v0c0,0,0,0,0,0c0.2,0.2,0.5,0.3,0.7,0.7c0.1,0.2,0.1,0.3,0,0.5c0,0.1-0.1,0.2-0.1,0.2
						c0,0,0,0,0,0c0,0,0.1-0.1,0.2,0c0,0.1-0.1,0.3-0.2,0.4c-0.1,0.1-0.2,0.1-0.2,0c-0.1,0-0.1-0.2-0.1-0.4c0-0.1,0.2-0.1,0.2-0.4
						c0,0,0,0,0,0c0,0,0-0.2,0-0.2c0-0.1-0.5-0.5-0.5-0.5c0,0,0,0,0,0c0,0,0,0,0,0c0,0,0,0,0,0c0,0,0,0,0,0h0h0c0,0,0,0,0,0v0
						c0,0,0,0,0,0c0,0,0,0,0,0.1c0,0.1,0,0.2,0,0.2v0c0,0,0,0,0,0v0h0c-0.1-0.1-0.2-0.4-0.2-0.5c-0.4-0.3-0.8-0.5-1-0.7
						c-0.1-0.2,0.9,0.2,1,0.3c0,0,0,0,0,0c0,0,0-0.1,0.1-0.2c0.1-0.1,0.3-0.2,0.5-0.2c0.4,0.1,0.6,0.4,0.8,0.7c0,0,0.1,0.1,0.1,0
						c0.1-0.3,0.6-0.6,1.1-0.6c0.1,0.2,0.1,0.2,0,0.3c0,0-0.3,0.1-0.3,0.2c0,0.1,0,0.2,0.2,0.2c0.3,0,0.7,0.1,1,0.2
						c0,0.1,0.1,0.3,0.1,0.4c0,0.1,0,0.1,0.1,0.1c0,0,0,0,0,0c0,0,0,0,0,0c0,0,0,0,0,0v0c0,0,0,0,0,0l-0.1,0l-1.1,0c0,0,0,0,0,0
						c0,0,0,0,0,0c0,0,0,0,0,0c0,0,0,0,0,0c0,0,0,0,0,0c0,0,0,0,0,0v0c0,0,0,0,0,0v0v0v0c0,0,0,0,0,0c0,0,0,0,0,0c0,0,0,0,0,0
						c0,0,0,0,0,0c0,0,0,0,0,0c0,0,0,0,0,0c0,0,0,0,0,0c0,0,0,0,0,0c0.3,0,0.7,0.1,0.8,0.6c0,0.2-0.1,0.4-0.4,0.4
						c-0.2,0-0.4-0.2-0.3-0.5c0-0.1,0-0.2,0-0.2c-0.4,0-0.9-0.3-0.9-0.5c0,0,0,0,0,0c0,0,0,0,0,0c0,0,0,0,0,0c0,0,0,0,0,0
						c0,0,0,0,0,0c0,0,0,0,0,0c0,0,0,0,0,0c0,0,0,0,0,0c0,0,0,0,0,0c0,0,0,0,0,0c0,0-0.1,0.1-0.1,0.1c0,0.3-0.1,0.7-0.3,1
						C-367.2,287.6-367.2,287.6-367.3,287.6C-367.3,287.6-367.3,287.6-367.3,287.6C-367.3,287.6-367.3,287.6-367.3,287.6
						C-367.3,287.6-367.3,287.6-367.3,287.6C-367.3,287.6-367.3,287.6-367.3,287.6C-367.3,287.6-367.3,287.6-367.3,287.6
						L-367.3,287.6L-367.3,287.6z M-362.3,288.1c-0.1,0-0.1,0-0.1-0.1c0-0.1,0-0.1,0-0.1c0,0,0,0-0.1,0c0,0,0,0.1,0,0.1
						c-0.1,0-0.1,0-0.2,0c0,0,0-0.1,0-0.2c0.1-0.1,0.3-0.4,0.4-0.4c0,0.1,0,0.3,0,0.4c0,0,0,0.1,0,0.1c0,0,0.1,0,0.1,0
						C-362.1,287.8-362.1,288-362.3,288.1C-362.2,288-362.2,288.1-362.3,288.1C-362.3,288.1-362.3,288.1-362.3,288.1z M-368.3,288.1
						C-368.3,288.1-368.3,288.1-368.3,288.1c-0.2-0.1-0.2-0.3-0.1-0.4c0.1-0.1,0.2-0.1,0.2-0.1c0.1,0,0.2,0.2,0.2,0.2s0,0.1-0.1-0.1
						c-0.1,0-0.1,0-0.1,0C-368.3,287.9-368.3,288-368.3,288.1C-368.3,288.1-368.3,288.1-368.3,288.1L-368.3,288.1L-368.3,288.1z
						 M-364,288.1C-364.1,288.1-364.1,288.1-364,288.1c-0.1-0.1,0-0.1-0.1-0.1c0,0-0.1,0-0.1,0.1c0,0,0,0,0,0.1c0,0,0,0,0,0
						c0,0,0,0,0,0c0,0,0,0,0,0c0,0,0,0,0,0c0,0,0,0,0,0c0,0,0,0,0,0c0,0,0,0,0,0.1c0,0,0,0,0,0c-0.1,0-0.1-0.1-0.1-0.1
						c0,0,0-0.2,0.1-0.2c0.1-0.1,0.4,0,0.4,0.2C-364,288-364,288.1-364,288.1C-364,288.1-364,288.1-364,288.1L-364,288.1L-364,288.1
						z M-365,288.6C-365,288.6-365,288.6-365,288.6c0-0.1,0-0.2,0-0.2C-365,288.4-365,288.5-365,288.6
						C-365.1,288.6-365,288.6-365,288.6 M-360.9,288.7c-0.1,0-0.1,0-0.1-0.1c0,0,0.1-0.2,0.2-0.3c0-0.1,0-0.3,0-0.3
						c0,0,0.1,0.1,0.1,0.3C-360.7,288.4-360.8,288.6-360.9,288.7C-360.9,288.7-360.9,288.7-360.9,288.7 M-368.3,288.9
						C-368.2,288.9-368.2,288.9-368.3,288.9c0.1-0.1,0.1-0.1,0.1-0.2C-368.2,288.7-368.3,288.8-368.3,288.9
						C-368.3,288.9-368.3,288.9-368.3,288.9C-368.3,288.9-368.3,288.9-368.3,288.9 M-364.3,289c-0.1,0-0.1,0-0.1-0.1
						c0,0,0.1-0.2,0.2-0.3c0-0.1,0-0.3,0-0.3c0,0,0.1,0.1,0.1,0.3C-364.1,288.8-364.2,289-364.3,289C-364.3,289-364.3,289-364.3,289
						C-364.3,289-364.3,289-364.3,289z M-369.4,289C-369.4,289-369.4,289-369.4,289c-0.1,0-0.2-0.1-0.2-0.2c0.1-0.6,0.2-1,0.2-1.6
						c0-0.1,0-0.2-0.1-0.1c-0.1,0.1-0.2,0.3-0.4,0.2c-0.2,0-0.3-0.2-0.3-0.3c0-0.1,0-0.3,0-0.4c0.1-0.1,0.2-0.1,0.3-0.1
						c0.1,0,0.2,0.1,0.2,0.1c0,0,0,0,0,0c0,0,0,0,0,0c0,0,0-0.3-0.4-0.6c-0.3-0.1-0.5-0.1-0.6,0.1c-0.1,0.1,0,0.7-0.2,0.5
						c-0.5-1.3,1.2-1.5,1.4-0.1c0,0,0,0.1,0.1,0.1c0,0,0,0,0-0.1c0-1.3-1.3-1.4-1.5-1c-0.1,0.1-0.1,0.3-0.1,0.4c0,0.1,0,0.1-0.1,0.1
						c-0.1,0-0.1-0.1-0.1-0.2c0-0.1,0-0.2,0-0.3c0.1-1.1,1.7-0.6,2,0.3c0.1,0.4,0,0.8,0,0.8c0,0,0,0,0,0c0,0,0,0,0,0c0,0,0,0,0,0
						c0,0,0,0,0,0c0.2-0.2,0.4,0,0.4,0c0,0,0.1,0.1,0.1,0c0.1-0.1,0.4,0,0.4,0.1c0,0.2,0,0.3,0.1,0.5c-0.1,0-0.2,0-0.2-0.1
						c0,0,0,0,0,0c0,0,0-0.1,0-0.1c0,0,0,0,0,0c0,0,0,0,0,0c0,0-0.1,0-0.1,0c0,0.2-0.2,0.2-0.3-0.1c-0.1-0.1-0.2-0.1-0.2,0
						c0,0.2-0.1,0.2-0.2,0.1c0,0.4-0.1,0.7-0.1,1.1c0.1,0,0.1,0,0.2,0C-369.1,288.6-369.3,289-369.4,289
						C-369.3,289-369.3,289-369.4,289C-369.3,289-369.3,289-369.4,289C-369.3,289-369.4,289-369.4,289
						C-369.4,289-369.4,289-369.4,289C-369.4,289-369.4,289-369.4,289C-369.4,289-369.4,289-369.4,289L-369.4,289L-369.4,289z
						 M-370.7,289C-370.7,289-370.8,289-370.7,289c-0.1-0.2-0.1-0.4-0.1-0.5c0.1-0.2,0.1-0.4,0.1-0.7c0-0.3-0.2-0.1-0.2,0
						c0,0.2,0,0.5,0,0.6c0,0.1-0.1,0.1-0.1,0.1c-0.1,0-0.2-0.2-0.3-0.4c0,0,0-0.1-0.1-0.3c0-0.1-0.1-0.2-0.2,0
						c-0.1,0.2-0.1,0.7-0.2,0.6c0-0.4-0.1-1,0.2-1.1c0.4,0,0.2,0.6,0.3,0.8c0,0.1,0.1,0.1,0.1,0v-0.6c0-0.2,0.1-0.2,0.2-0.3
						c0.1,0,0.2,0,0.2-0.1c0-0.3,0-0.7,0-1c0,0,0.2-0.1,0.2,0.6c0,0.4-0.1,0.7,0,0.7c0,0.1,0.1,0.1,0.2,0c0.1-0.1,0.1-0.2,0.3-0.1
						c0.2,0.1,0.4,0.2,0.4,0.4c0,0.2,0,0.3-0.1,0.5c0,0,0,0.1,0,0.1c0-0.1,0.1-0.1,0.1,0c0,0.1-0.1,0.3-0.2,0.3
						c-0.1,0.1-0.2,0.1-0.2-0.1c0-0.2,0.1-0.4,0.2-0.6c0-0.1,0.1-0.2,0-0.3c-0.1,0-0.1,0-0.2,0c0,0-0.2,0.1-0.2,0.2
						c0,0.3,0,0.4,0,0.4c0,0.1-0.1,0.2-0.1,0.2c0,0-0.1,0-0.1,0c-0.1-0.1,0-0.4,0-0.6c0-0.1,0.1-0.2,0.1-0.2c0-0.1-0.1-0.1-0.1,0
						c-0.1,0.2-0.1,0.4-0.1,0.5C-370.5,288.6-370.5,288.9-370.7,289C-370.6,289-370.7,289.1-370.7,289L-370.7,289L-370.7,289z
						 M-363.8,289.1C-363.8,289.1-363.8,289.1-363.8,289.1c-0.1-0.2-0.1-0.3-0.1-0.5c0.1-0.9,0.2-1.6,0.2-2.5c0-0.1,0-0.2-0.1-0.3
						c-0.2-0.2-0.5-0.5-0.8-0.6c0,0,0.1-0.2,0.2-0.2c0.3,0,0.5,0.2,0.7,0.6c0.1,0.1,0.2,0.3,0.2,0.4c0,0.9,0,1.6-0.2,2.2
						c0,0.1,0,0.1,0,0.2c0,0,0.1,0,0.1,0.1C-363.5,288.5-363.6,288.9-363.8,289.1C-363.7,289-363.7,289.1-363.8,289.1L-363.8,289.1
						L-363.8,289.1z M-368.2,289.1c0,0-0.1,0-0.1,0c-0.1-0.1-0.1-0.2,0-0.3c0.1,0,0.1-0.1,0.1-0.1c-0.2-0.2-0.7-0.5-0.7-0.6
						c0,0,0,0,0,0c0,0,0,0,0,0c0,0,0,0,0,0c0,0,0,0,0,0c0,0,0,0,0,0s0,0,0,0c0,0,0,0,0,0c0,0,0,0,0,0l0,0c0,0,0.3,0,0.4,0
						c0,0,0,0,0,0c0,0,0,0,0,0c0,0,0,0,0,0c0.1,0,0.6,0.6,0.6,0.6c0,0,0,0-0.1,0.1c0,0,0,0,0,0.1c0.1,0.1,0.1,0.2,0,0.3
						C-368.1,289.1-368.2,289.1-368.2,289.1L-368.2,289.1L-368.2,289.1z M-369.9,289.1C-370,289.1-370,289.1-369.9,289.1
						c-0.1-0.1,0-0.1-0.1-0.1c0,0-0.1,0,0,0.1c0,0,0,0,0,0c0,0,0,0,0,0c0,0,0,0,0,0c0,0,0,0,0,0c0,0,0,0,0,0c0,0,0,0,0,0
						c0,0,0,0,0,0c0,0,0,0,0,0.1c0,0,0,0,0,0c-0.1,0-0.1-0.1-0.1-0.1c0,0,0-0.1,0.1-0.2c0.1-0.1,0.4,0,0.4,0.2
						C-369.9,289-369.9,289-369.9,289.1C-369.9,289.1-369.9,289.1-369.9,289.1L-369.9,289.1L-369.9,289.1z M-363.3,289.1
						C-363.3,289.1-363.3,289.1-363.3,289.1c-0.1-0.3-0.2-0.5-0.1-0.6c0.2-1,0.4-1.9,0.3-2.8c0.1,0,0.2,0.2,0.2,0.4
						c0,0.3,0,0.5,0,0.6c0,0.2-0.2,1.5-0.2,1.6c0,0.2,0.2,0,0.1,0.2C-363,288.6-363.2,288.9-363.3,289.1
						C-363.3,289.1-363.3,289.1-363.3,289.1 M-360.5,289.1C-360.6,289.1-360.6,289.1-360.5,289.1c-0.1-0.2-0.1-0.3-0.1-0.5
						c0.1-1,0.2-1.9,0.3-2.7c0-0.1,0-0.1-0.1-0.2c-0.1-0.1-0.2-0.2-0.3-0.3c-0.1-0.1-0.3-0.1-0.3-0.2c-0.2-0.1-0.2-0.2,0-0.2
						c0.3,0,0.6,0.1,0.8,0.4c0.1,0.1,0.1,0.3,0.1,0.5c0,0.9,0,1.8-0.1,2.4c0,0.1,0,0.2,0,0.2c0,0,0.1,0,0.1,0
						C-360.1,288.6-360.4,288.9-360.5,289.1C-360.5,289.1-360.5,289.1-360.5,289.1 M-371.3,289.1c-0.1,0-0.1,0-0.1-0.1
						c0,0,0.1-0.2,0.1-0.2c0,0,0-0.2,0-0.2c0,0,0.1,0.1,0.1,0.2C-371.1,288.8-371.1,289.1-371.3,289.1
						C-371.3,289.1-371.3,289.1-371.3,289.1L-371.3,289.1L-371.3,289.1z M-361.9,289.1C-361.9,289.1-361.9,289.1-361.9,289.1
						c-0.1-0.1-0.1-0.1-0.1-0.2c0-0.1,0-0.3,0-0.4c0,0,0,0,0-0.1c0,0,0,0,0,0c-0.3,0.3,0.1,0,0,0.3c-0.1,0.2-0.2,0.2-0.3,0.3
						c-0.1,0-0.1,0.1-0.1,0c0-0.1,0-0.2,0-0.3c0-0.1,0.1-0.2,0.1-0.2c0.2-0.2,0.3-0.4,0.5-0.7c0-0.5,0-0.9,0.1-1.4
						c0-0.2-0.1-0.5-0.1-0.5c0,0-0.1-0.1-0.2,0c0,0-0.2,0.3-0.2,0.3c-0.1,0.1-0.2,0.1-0.2,0c-0.2-0.2-0.3-0.5-0.4-0.7
						c0-0.1-0.1-0.1-0.2,0c-0.2,0.3-0.1,0.8-0.1,0.7c-0.2-0.3-0.1-0.7-0.1-0.8c0.1-0.1,0.1-0.2,0.3-0.3c0.1-0.1,0.2,0,0.3,0
						c0.1,0.1,0.1,0.5,0.2,0.6c0,0.1,0.2,0.1,0.2,0c0.1-0.1,0.1-0.1,0.2-0.2c0.1-0.1,0.3-0.1,0.4,0c0.1,0.1,0.2,0.1,0.2,0.3
						c0.1,0.2,0,1,0,1.5c0.1-0.1,0.2-0.3,0.3-0.4c0-0.4,0.1-0.8,0-1.3c0-0.1,0.3,0.2,0.3,0.4c0,0.1,0,0.3,0,0.4
						c0.1-0.2,0.3-0.5,0.4-0.7c0.1,0,0.1,0.5,0,0.6c-0.1,0.2-0.3,0.5-0.4,0.7c0,0.2-0.1,0.5-0.1,0.6c0,0.1-0.1,0.3-0.1,0.5
						c0,0.1,0,0.3,0,0.3c0,0,0.1,0,0.1,0.1c0,0-0.1,0.6-0.2,0.7c0,0.1-0.1,0-0.2-0.1c-0.1-0.1,0-0.2,0-0.4c0.1-0.4,0.1-0.8,0.2-1.2
						c-0.1,0.1-0.2,0.3-0.3,0.5c0,0,0,0.1,0,0.1c0,0,0,0.3,0,0.4c0,0,0,0,0,0c0,0,0,0,0.1,0c0,0,0.1,0.1,0,0.1
						C-361.6,288.7-361.7,288.9-361.9,289.1C-361.8,289.1-361.8,289.1-361.9,289.1 M-365.5,289.2
						C-365.5,289.2-365.6,289.1-365.5,289.2c-0.1-0.2-0.1-0.2-0.1-0.3c0-0.1,0.1-0.2,0.2-0.2c0.2-0.3,0.4-0.6,0.6-0.9
						c0-0.2,0.1-0.4,0.1-0.7c0-0.5,0-1.1,0-1.6c0.1,0,0.2,0.1,0.3,0.4c0,0.3,0,0.9,0,1.1c0,0.1,0,0.2,0,0.3c0.2-0.4,0.5-0.8,0.7-1.2
						c0.1,0,0.1,0.5,0,0.6c-0.2,0.4-0.4,0.8-0.5,0.9c0,0.1-0.1,0.2-0.2,0.4c0,0.2,0,0.4-0.1,0.5c0,0.3,0.1,0,0.1,0.1
						c0,0.3-0.2,0.4-0.3,0.7c-0.1,0.1-0.1,0.1-0.1,0c0-0.1,0-0.2,0-0.3c0,0,0,0.1-0.1,0.1c-0.1,0.1-0.2,0.1-0.3,0.2
						C-365.4,289.1-365.5,289.2-365.5,289.2L-365.5,289.2L-365.5,289.2z M-366.8,289.2c0,0-0.1,0-0.1-0.1c0-0.1-0.1-0.3,0-0.3
						c0-0.1,0.1-0.1,0.1,0C-366.7,288.9-366.7,289-366.8,289.2C-366.7,289.2-366.7,289.2-366.8,289.2L-366.8,289.2L-366.8,289.2z
						 M-366.4,289.2C-366.4,289.2-366.5,289.2-366.4,289.2c-0.1-0.2-0.2-0.3-0.1-0.5c0.1-0.1,0.1-0.3,0.1-0.6c0-0.1-0.1-0.1-0.1-0.2
						c-0.1-0.1-0.2-0.1-0.2,0c-0.1,0-0.1,0.1-0.1,0.2c0,0.2,0,0.6,0,0.6c-0.1,0.1-0.2,0.1-0.2,0c-0.2-0.2-0.3-0.5-0.3-0.7
						c-0.1-0.2-0.1-0.1-0.2-0.1c-0.1,0.1-0.1,0.8-0.2,0.7c-0.2-0.5,0.1-1.2,0.3-1.1c0.1-0.1,0.2,0.2,0.3,0.5c0,0.1,0.1,0.1,0.1,0.1
						c0-0.4,0-0.5,0.1-0.6c0.2-0.2,0.4,0,0.4,0l0.2,0.2c0,0,0.1,0,0.2,0c0.1-0.1,0-0.1,0.2-0.2c0.1,0,0.3,0,0.4,0.1
						c0.1,0.1,0.1,0.2,0.1,0.2c0,0.1,0.1,0,0.1,0c0,0-0.1-0.1,0-0.1c0.1,0,0.1,0,0.1,0c0.1,0.1,0.2,0.3,0.2,0.3c0,0.1,0,0.1-0.1,0.1
						c0,0,0,0-0.1-0.1c-0.1,0-0.2,0-0.2,0c-0.1,0.1-0.1,0.3-0.1,0.4c0,0-0.1,0.2,0,0.2c0,0,0.1,0,0.1,0c0,0.1-0.1,0.2-0.2,0.3
						c-0.1,0.1-0.2,0.1-0.3,0c-0.1-0.1-0.1-0.1-0.1-0.2c0-0.1,0-0.2,0.1-0.3c0.1-0.1,0.2-0.3,0.1-0.5c0,0-0.1-0.1-0.2-0.1
						c-0.1,0-0.1,0-0.2,0.4c0,0.2,0,0.6-0.1,0.8C-366.4,289.2-366.4,289.2-366.4,289.2L-366.4,289.2L-366.4,289.2z M-367.5,289.2
						C-367.5,289.2-367.5,289.2-367.5,289.2c-0.1-0.1-0.2-0.2-0.2-0.3c0-0.1,0-0.1,0-0.1c0-0.1,0.1,0,0.1,0c0,0,0.1,0.1,0.1,0.1
						c0,0.1-0.1,0-0.1,0.1C-367.6,289-367.5,289.1-367.5,289.2C-367.4,289.2-367.4,289.2-367.5,289.2L-367.5,289.2L-367.5,289.2z"/>
				</g>
			</g>
		</g>
	</g>
</g>
</svg>
