<?xml version="1.0" encoding="utf-8"?>
<!-- Generator: Adobe Illustrator 21.1.0, SVG Export Plug-In . SVG Version: 6.00 Build 0)  -->
<svg version="1.1"
	 id="svg2" xmlns:cc="http://creativecommons.org/ns#" xmlns:dc="http://purl.org/dc/elements/1.1/" xmlns:rdf="http://www.w3.org/1999/02/22-rdf-syntax-ns#" xmlns:svg="http://www.w3.org/2000/svg"
	 xmlns="http://www.w3.org/2000/svg" xmlns:xlink="http://www.w3.org/1999/xlink" x="0px" y="0px" viewBox="0 0 31 21"
	 style="enable-background:new 0 0 31 21;" xml:space="preserve">
<style type="text/css">
	.st0{fill:#FFFFFF;}
	.st1{fill:#2C4997;}
	.st2{clip-path:url(#SVGID_2_);}
	.st3{fill:#FDD228;stroke:#1D1D1D;stroke-width:0.6;stroke-linecap:square;stroke-miterlimit:20;}
	.st4{fill:none;stroke:#1D1D1D;stroke-width:0.6;stroke-miterlimit:20;}
	.st5{fill:#FDD228;stroke:#1D1D1D;stroke-width:0.6;stroke-miterlimit:20;}
	.st6{fill:#FDD228;}
	.st7{fill:#1D1D1D;}
</style>
<g id="g10" transform="matrix(1.3333333,0,0,-1.3333333,0,533.33333)">
	<path id="path12" class="st0" d="M0,384.3h23.2V400H0V384.3z"/>
	<path id="path14" class="st1" d="M8.6,396.5h14.6v1.8H8.6L8.6,396.5L8.6,396.5z"/>
	<path id="path16" class="st1" d="M8.6,393h14.6v1.7H8.6L8.6,393L8.6,393z"/>
	<path id="path18" class="st1" d="M0,389.5h23.2v1.8H0V389.5L0,389.5z"/>
	<path id="path20" class="st1" d="M0,386h23.2v1.8H0V386z"/>
	<g id="g22">
		<g>
			<defs>
				<rect id="SVGID_1_" x="-3.9" y="381.6" width="31" height="21"/>
			</defs>
			<clipPath id="SVGID_2_">
				<use xlink:href="#SVGID_1_"  style="overflow:visible;"/>
			</clipPath>
			<g id="g24" class="st2">
				<g id="g30" transform="translate(106.0796,267.1606)">
					<path id="path32" class="st3" d="M-102,127.6l0.3-0.4c-1.2-0.9-0.5-1.4-1.3-1.6c0.5,0.5-0.1,0.6,0.4,1.6"/>
				</g>
				<g id="g34" transform="translate(100.8213,264.0469)">
					<path id="path36" class="st4" d="M-96.9,130.6c-0.6-1.1-0.2-1.7-0.8-2"/>
				</g>
				<g id="g38" transform="translate(111.1108,288.8892)">
					<path id="path40" class="st5" d="M-106.8,106.7h0.6l-0.6-3.2l-0.6,3.2H-106.8v-3.2"/>
				</g>
				<g id="g42" transform="translate(92.189,277.0825)">
					<path id="path44" class="st3" d="M-88.6,118.1l-0.1-0.5c-1.4,0.2-1.3-0.6-2.1-0.2c0.7,0,0.3,0.5,1.4,0.9"/>
				</g>
				<g id="g46" transform="translate(86.269,278.5991)">
					<path id="path48" class="st4" d="M-82.9,116.6c-1.2-0.3-1.3-1-1.9-0.8"/>
				</g>
				<g id="g50" transform="translate(111.1108,288.8892)">
					<path id="path52" class="st5" d="M-106.8,106.7l0.4-0.4l-2.6-1.8l1.8,2.7L-106.8,106.7l-2.2-2.2"/>
				</g>
				<g id="g54" transform="translate(89.3823,293.9204)">
					<path id="path56" class="st3" d="M-85.9,101.9l-0.4-0.3c-0.8,1.2-1.3,0.5-1.6,1.3c0.5-0.5,0.5,0.1,1.6-0.4"/>
				</g>
				<g id="g58" transform="translate(86.269,299.1787)">
					<path id="path60" class="st4" d="M-82.9,96.9c-1.1,0.7-1.7,0.2-1.9,0.8"/>
				</g>
				<g id="g62" transform="translate(111.1108,288.8892)">
					<path id="path64" class="st5" d="M-106.8,106.7v-0.6l-3.1,0.6l3.1,0.6V106.7h-3.1"/>
				</g>
				<g id="g66" transform="translate(99.3047,307.811)">
					<path id="path68" class="st3" d="M-95.5,88.6l-0.5,0.1c0.2,1.5-0.6,1.3-0.2,2.1c0-0.7,0.4-0.3,0.9-1.4"/>
				</g>
				<g id="g70" transform="translate(100.8213,313.731)">
					<path id="path72" class="st4" d="M-96.9,82.9c-0.3,1.2-1,1.3-0.8,2"/>
				</g>
				<g id="g74" transform="translate(111.1108,288.8892)">
					<path id="path76" class="st5" d="M-106.8,106.7l-0.4-0.4l-1.8,2.7l2.6-1.8L-106.8,106.7l-2.2,2.2"/>
				</g>
				<g id="g78" transform="translate(116.1426,310.6177)">
					<path id="path80" class="st3" d="M-111.6,85.9l-0.3,0.4c1.2,0.9,0.5,1.4,1.3,1.6c-0.5-0.5,0.1-0.6-0.4-1.6"/>
				</g>
				<g id="g82" transform="translate(121.4009,313.731)">
					<path id="path84" class="st4" d="M-116.7,82.9c0.6,1.1,0.2,1.7,0.8,2"/>
				</g>
				<g id="g86" transform="translate(111.1108,288.8892)">
					<path id="path88" class="st5" d="M-106.8,106.7h-0.6l0.6,3.2l0.6-3.2H-106.8v3.2"/>
				</g>
				<g id="g90" transform="translate(130.0332,300.6958)">
					<path id="path92" class="st3" d="M-125,95.4l0.1,0.5c1.4-0.2,1.3,0.6,2.1,0.2c-0.7,0-0.3-0.5-1.4-0.9"/>
				</g>
				<g id="g94" transform="translate(135.9531,299.1787)">
					<path id="path96" class="st4" d="M-130.7,96.9c1.2,0.3,1.3,1,1.9,0.8"/>
				</g>
				<g id="g98" transform="translate(111.1108,288.8892)">
					<path id="path100" class="st5" d="M-106.8,106.7l-0.4,0.4l2.6,1.8l-1.8-2.7L-106.8,106.7l2.2,2.2"/>
				</g>
				<g id="g102" transform="translate(132.8394,283.8574)">
					<path id="path104" class="st3" d="M-127.7,111.6l0.4,0.3c0.8-1.2,1.3-0.5,1.6-1.3c-0.5,0.5-0.5-0.1-1.6,0.4"/>
				</g>
				<g id="g106" transform="translate(135.9531,278.5991)">
					<path id="path108" class="st4" d="M-130.7,116.6c1.1-0.7,1.7-0.2,1.9-0.8"/>
				</g>
				<g id="g110" transform="translate(111.1108,288.8892)">
					<path id="path112" class="st5" d="M-106.8,106.7v0.6l3.1-0.6l-3.1-0.6V106.7h3.1"/>
				</g>
				<g id="g114" transform="translate(122.9175,269.9668)">
					<path id="path116" class="st3" d="M-118.2,124.9l0.5-0.1c-0.2-1.5,0.6-1.3,0.2-2.1c0,0.7-0.4,0.3-0.9,1.4"/>
				</g>
				<g id="g118" transform="translate(121.4009,264.0469)">
					<path id="path120" class="st4" d="M-116.7,130.6c0.3-1.2,1-1.3,0.8-2"/>
				</g>
				<g id="g122" transform="translate(111.1108,288.8892)">
					<path id="path124" class="st5" d="M-106.8,106.7l0.4,0.4l1.8-2.7l-2.6,1.8L-106.8,106.7l2.2-2.2"/>
				</g>
				<g id="g126" transform="translate(111.1108,315.7778)">
					<path id="path128" class="st6" d="M-106.8,80.9c0.6,0,1-0.5,1-1.1s-0.5-1.1-1-1.1c-0.6,0-1,0.5-1,1.1S-107.4,80.9-106.8,80.9"
						/>
				</g>
				<g id="g130" transform="translate(111.1108,315.7778)">
					<path id="path132" class="st4" d="M-106.8,80.9c0.6,0,1-0.5,1-1.1s-0.5-1.1-1-1.1c-0.6,0-1,0.5-1,1.1S-107.4,80.9-106.8,80.9z"
						/>
				</g>
				<g id="g134" transform="translate(123.8223,297.4443)">
					<path id="path136" class="st7" d="M-119,98.5c0.1-0.1,0-0.2-0.1-0.2c-0.1,0-0.2,0.1-0.1,0.2 M-118.7,98.6
						c-0.1-0.1-0.1,0.1-0.3,0.1s-0.3-0.1-0.3-0.1c0,0,0.2,0.2,0.3,0.2C-119.1,98.8-118.8,98.7-118.7,98.6"/>
				</g>
				<g id="g138" transform="translate(116.4888,294.5112)">
					<path id="path140" class="st7" d="M-112,101.3c0,0.1,0.1-0.1,0.2-0.1c0.1,0,0.2,0,0.2,0.1c0.1,0-0.1-0.1-0.2-0.1
						C-111.9,101.2-112,101.3-112,101.3 M-112,101.4c0,0.1,0.1,0.1,0.3,0.1s0.2-0.1,0.3-0.1c-0.1,0-0.1,0.1-0.3,0.1
						S-111.9,101.5-112,101.4"/>
				</g>
				<g id="g142" transform="translate(111.1108,281.5557)">
					<path id="path144" class="st7" d="M-106.8,113.8c0.1,0,0.1,0,0.2,0c0.1,0,0.2,0,0.2-0.1c0,0,0,0.1-0.1,0.1
						c-0.1,0,0,0.1-0.1,0.2c0,0,0,0,0-0.1c0,0-0.1,0-0.1,0C-106.7,113.8-106.8,113.8-106.8,113.8 M-106.8,113.4c0.2,0,0.2,0,0.5,0.2
						C-106.5,113.6-106.6,113.5-106.8,113.4L-106.8,113.4 M-106.3,113.5c0,0.1,0,0-0.1,0.2C-106.3,113.6-106.3,113.6-106.3,113.5
						 M-106.8,113.7c0.1,0,0.1,0,0.2,0c0.1,0,0.3-0.1,0.4-0.1C-106.5,113.5-106.4,113.6-106.8,113.7L-106.8,113.7 M-106.3,114.2
						c0.1,0.1,0,0.2,0,0.2C-106.3,114.4-106.2,114.3-106.3,114.2"/>
				</g>
				<g id="g146" transform="translate(98.3999,297.4443)">
					<path id="path148" class="st7" d="M-94.6,98.5c-0.1-0.1,0-0.2,0.1-0.2s0.2,0.1,0.1,0.2 M-94.9,98.6c0.1-0.1,0.1,0.1,0.3,0.1
						s0.3-0.1,0.3-0.1c0,0-0.2,0.2-0.3,0.2C-94.6,98.8-94.8,98.7-94.9,98.6"/>
				</g>
				<g id="g150" transform="translate(105.7334,294.5112)">
					<path id="path152" class="st7" d="M-101.6,101.3c0,0.1-0.1-0.1-0.2-0.1c-0.1,0-0.2,0-0.2,0.1c-0.1,0,0.1-0.1,0.2-0.1
						C-101.7,101.2-101.6,101.3-101.6,101.3 M-101.6,101.4c0,0.1-0.1,0.1-0.3,0.1s-0.2-0.1-0.3-0.1c0.1,0,0.1,0.1,0.3,0.1
						S-101.7,101.5-101.6,101.4"/>
				</g>
				<g id="g154" transform="translate(111.1108,281.5557)">
					<path id="path156" class="st7" d="M-106.8,113.8c-0.1,0-0.1,0-0.2,0c-0.1,0-0.2,0-0.2-0.1c0,0,0,0.1,0.1,0.1
						c0.1,0,0,0.1,0.1,0.2c0,0,0,0,0-0.1c0,0,0.1,0,0.1,0C-106.9,113.8-106.9,113.8-106.8,113.8 M-106.8,113.4c-0.2,0-0.2,0-0.5,0.2
						C-107.1,113.6-107,113.5-106.8,113.4L-106.8,113.4 M-107.4,113.5c0,0.1,0,0,0.1,0.2C-107.3,113.6-107.3,113.6-107.4,113.5
						 M-106.8,113.7c-0.1,0-0.1,0-0.2,0c-0.1,0-0.3-0.1-0.4-0.1C-107.1,113.5-107.2,113.6-106.8,113.7L-106.8,113.7 M-107.3,114.2
						c-0.1,0.1,0,0.2,0,0.2C-107.4,114.4-107.4,114.3-107.3,114.2"/>
				</g>
				<g id="g158" transform="translate(111.1108,270.311)">
					<path id="path160" class="st7" d="M-106.8,124.6C-106.9,124.6-107,124.6-106.8,124.6C-106.6,124.6-106.8,124.6-106.8,124.6"/>
				</g>
			</g>
		</g>
	</g>
</g>
</svg>
