<?xml version="1.0" encoding="utf-8"?>
<!-- Generator: Adobe Illustrator 21.1.0, SVG Export Plug-In . SVG Version: 6.00 Build 0)  -->
<svg version="1.1"
	 id="svg2" xmlns:cc="http://creativecommons.org/ns#" xmlns:dc="http://purl.org/dc/elements/1.1/" xmlns:rdf="http://www.w3.org/1999/02/22-rdf-syntax-ns#" xmlns:svg="http://www.w3.org/2000/svg"
	 xmlns="http://www.w3.org/2000/svg" xmlns:xlink="http://www.w3.org/1999/xlink" x="0px" y="0px" viewBox="0 0 31 21"
	 style="enable-background:new 0 0 31 21;" xml:space="preserve">
<style type="text/css">
	.st0{fill:#333A73;}
	.st1{fill:#FFFFFF;}
	.st2{fill:#E5322E;}
</style>
<g id="g10" transform="matrix(1.3333333,0,0,-1.3333333,0,533.33333)">
	<path id="path12" class="st0" d="M0,384.3h23.2V400H0L0,384.3L0,384.3z"/>
	<g id="g14" transform="translate(150.0742,136.9521)">
		<path id="path16" class="st1" d="M-144.3,252.7l0.3-1.1l1,0.4l-0.6-0.9l0.9-0.6l-1.1-0.1l0.2-1.1l-0.8,0.8l-0.8-0.8l0.2,1.1
			l-1.1,0.1l0.9,0.6l-0.6,0.9l1-0.4L-144.3,252.7z"/>
	</g>
	<g id="g18" transform="translate(450.2217,126.7725)">
		<path id="path20" class="st1" d="M-432.8,262.5l0.2-0.5l0.5,0.2l-0.3-0.4l0.4-0.3l-0.5,0l0.1-0.5l-0.4,0.4l-0.4-0.4l0.1,0.5
			l-0.5,0l0.5,0.3l-0.3,0.4l0.5-0.2L-432.8,262.5z"/>
	</g>
	<g id="g22" transform="translate(375.1846,245.6064)">
		<path id="path24" class="st1" d="M-360.6,148.3l0.2-0.5l0.5,0.2l-0.3-0.4l0.4-0.3l-0.5,0l0.1-0.5l-0.4,0.4l-0.4-0.4l0.1,0.5
			l-0.5,0l0.4,0.3l-0.3,0.4l0.5-0.2L-360.6,148.3z"/>
	</g>
	<g id="g26" transform="translate(450.2217,350.9321)">
		<path id="path28" class="st1" d="M-432.8,47.1l0.2-0.5l0.5,0.2l-0.3-0.4l0.4-0.3l-0.5,0l0.1-0.5l-0.4,0.4l-0.4-0.4l0.1,0.5l-0.5,0
			l0.5,0.3l-0.3,0.4l0.5-0.2L-432.8,47.1z"/>
	</g>
	<g id="g30" transform="translate(516.9199,289.6387)">
		<path id="path32" class="st1" d="M-496.9,106l0.2-0.5l0.5,0.2l-0.3-0.4l0.4-0.3l-0.5,0l0.1-0.5l-0.4,0.4l-0.4-0.4l0.1,0.5l-0.5,0
			l0.5,0.3l-0.3,0.4l0.5-0.2L-496.9,106z"/>
	</g>
	<g id="g34" transform="translate(480.2363,205.4004)">
		<path id="path36" class="st1" d="M-461.6,186.9l0.1-0.3l0.3,0l-0.3-0.2l0.1-0.3l-0.3,0.2l-0.3-0.2l0.1,0.3l-0.3,0.2l0.3,0
			L-461.6,186.9z"/>
	</g>
	<g id="g38" transform="translate(125.0622,399.9996)">
		<path id="path40" class="st1" d="M-120.2,0v-2.6h-4.8v-2.6h4.8v-2.6h1.9v2.6h4.8v2.6h-4.8V0H-120.2z"/>
	</g>
	<g id="g42" transform="translate(9e-4,399.9996)">
		<path id="path44" class="st1" d="M0,0v-0.8l10.3-7h1.3V-7L1.4,0H0z"/>
	</g>
	<g id="g46" transform="translate(264.7935,399.9996)">
		<path id="path48" class="st1" d="M-254.5,0l-10.3-7v-0.9h1.3l10.3,7V0H-254.5z"/>
	</g>
	<g id="g50" transform="translate(135.0666,399.9996)">
		<path id="path52" class="st2" d="M-129.8,0v-3.1h-5.2v-1.6h5.2v-3.2h1.2v3.2h5.2v1.6h-5.2V0H-129.8z"/>
	</g>
	<g id="g54" transform="translate(275.9805,399.9996)">
		<path id="path56" class="st2" d="M-265.3,0l-3.8-2.6h0.9l3.8,2.6H-265.3z M-276,0v-0.5l3-2h0.9L-276,0L-276,0z"/>
	</g>
	<g id="g58" transform="translate(200.0988,267.345)">
		<path id="path60" class="st2" d="M-192.3,127.4l3.9-2.6v0.6l-3,2H-192.3z M-196.2,127.4l-3.9-2.6h0.9l3.9,2.6H-196.2z"/>
	</g>
</g>
</svg>
