<?xml version="1.0" encoding="utf-8"?>
<!-- Generator: Adobe Illustrator 21.1.0, SVG Export Plug-In . SVG Version: 6.00 Build 0)  -->
<svg version="1.1"
	 id="svg2" xmlns:cc="http://creativecommons.org/ns#" xmlns:dc="http://purl.org/dc/elements/1.1/" xmlns:rdf="http://www.w3.org/1999/02/22-rdf-syntax-ns#" xmlns:svg="http://www.w3.org/2000/svg"
	 xmlns="http://www.w3.org/2000/svg" xmlns:xlink="http://www.w3.org/1999/xlink" x="0px" y="0px" viewBox="0 0 31 21"
	 style="enable-background:new 0 0 31 21;" xml:space="preserve">
<style type="text/css">
	.st0{fill:#209244;}
	.st1{clip-path:url(#SVGID_2_);}
	.st2{fill:#FCC023;}
	.st3{fill:#35376E;}
	.st4{fill:#1F8F40;}
	.st5{fill:#FFFFFF;}
</style>
<g id="g10" transform="matrix(1.3333333,0,0,-1.3333333,0,533.33333)">
	<path id="path12" class="st0" d="M0,384.3h23.3V400H0V384.3z"/>
	<g id="g14">
		<g>
			<defs>
				<rect id="SVGID_1_" x="-3.9" y="381.6" width="31" height="21"/>
			</defs>
			<clipPath id="SVGID_2_">
				<use xlink:href="#SVGID_1_"  style="overflow:visible;"/>
			</clipPath>
			<g id="g16" class="st1">
				<g id="g22" transform="translate(537.1582,200.1143)">
					<path id="path24" class="st2" d="M-516.3,192l-9.2-6l-9.2,5.9v0l9.2,5.9L-516.3,192z M-521.6,192c0-2.2-1.8-3.9-3.9-3.9
						c-1.5,0-3.2,0.9-3.8,3c0,0.1-0.1,0.5-0.1,0.7v0.4c0,0.3,0.1,0.6,0.1,0.8c0.1,0.5,0.4,1.1,0.8,1.6c0.9,1,2,1.3,2.9,1.3
						C-523.4,195.9-521.6,194.2-521.6,192"/>
				</g>
				<g id="g26" transform="translate(307.4453,299.7256)">
					<path id="path28" class="st3" d="M-295.5,96.3c2.3-0.2,3.6-2.1,3.6-3.9c0-0.1,0-0.5,0-0.5c-1.6,1.4-3.3,2-4.9,2.2
						c-0.2,0-0.6,0.1-0.6,0.1h-1l-0.8-0.1v0c0.1,0.2,0.2,0.3,0.3,0.5c0.8,1.2,2,1.7,3,1.8H-295.5z M-294.6,93.7c0,0,0.1,0,0.1,0
						C-294.5,93.7-294.5,93.6-294.6,93.7c0-0.1,0-0.1,0.1-0.2c0,0-0.1,0.1-0.1,0.1c0,0-0.1,0-0.1-0.1
						C-294.7,93.5-294.7,93.6-294.6,93.7c-0.1-0.1-0.2,0-0.2,0C-294.7,93.7-294.7,93.7-294.6,93.7
						C-294.6,93.7-294.6,93.7-294.6,93.7C-294.6,93.7-294.6,93.7-294.6,93.7"/>
				</g>
				<g id="g30" transform="translate(255.2598,228.2515)">
					<path id="path32" class="st3" d="M-245.4,165c0.3,0,0.7-0.1,1-0.1c0.2-0.1,0.5-0.1,0.8-0.2c0.3-0.1,0.5-0.1,0.8-0.2
						c0.2-0.1,0.3-0.1,0.5-0.2c0.5-0.2,1-0.5,1.4-0.8c0.2-0.1,0.3-0.2,0.5-0.3c0.1-0.1,0.5-0.4,0.5-0.4c0-0.1-0.2-0.5-0.2-0.5
						c-0.2-0.6-1-1.4-1.5-1.7c-0.1,0-0.2-0.1-0.3-0.1c-0.5-0.3-1.2-0.4-1.7-0.4c-1.4,0-3.1,0.8-3.7,2.8c0,0.1-0.1,0.2-0.1,0.3
						c0,0.2-0.1,0.5-0.1,0.5v0.6c0,0.1,0,0.2,0,0.3c0,0.1,0.1,0.3,0.1,0.4c0.4,0.1,0.7,0.1,1.1,0.1H-245.4z M-246.6,164.6
						C-246.7,164.6-246.7,164.6-246.6,164.6c-0.1-0.1-0.1-0.1-0.1-0.2c0,0-0.1,0.1-0.1,0.1c0,0-0.1,0-0.1-0.1c0,0,0,0.1,0,0.1
						c0,0-0.1,0-0.1,0.1c0,0,0.1,0,0.1,0c0,0,0,0.1,0,0.1C-246.8,164.7-246.7,164.6-246.6,164.6 M-242.5,164.1
						C-242.5,164.1-242.5,164.1-242.5,164.1c-0.1-0.1,0-0.1,0-0.1C-242.5,164-242.5,164-242.5,164.1c-0.1-0.1-0.1-0.1-0.1-0.1
						c0,0,0,0,0,0.1c0,0,0,0-0.1,0.1c0,0,0.1,0,0.1,0C-242.6,164.1-242.6,164.2-242.5,164.1C-242.6,164.1-242.5,164.1-242.5,164.1
						 M-245,163.8C-245,163.7-245,163.7-245,163.8c-0.1-0.1-0.1-0.1-0.1-0.1c0,0-0.1,0-0.1,0c0,0-0.1,0-0.1-0.1c0,0,0,0.1,0,0.1
						c0,0,0,0-0.1,0.1c0,0,0.1,0,0.1,0c0,0,0,0.1,0,0.1C-245.1,163.8-245,163.7-245,163.8 M-243.5,163.3
						C-243.5,163.3-243.6,163.2-243.5,163.3c-0.1-0.1-0.1-0.1-0.1-0.1c0,0-0.1,0.1-0.1,0.1c0,0,0,0-0.1-0.1c0,0,0,0.1,0,0.1
						c0,0-0.1,0-0.1,0.1c0.1,0,0.1,0,0.1,0.1C-243.6,163.3-243.5,163.3-243.5,163.3 M-246,163.2C-246,163.2-246,163.2-246,163.2
						C-246,163.1-246,163.1-246,163.2C-246,163.1-246,163.1-246,163.2C-246.1,163.1-246.1,163.1-246,163.2c-0.1,0-0.1,0-0.1,0
						C-246.1,163.2-246.1,163.2-246,163.2C-246,163.2-246.1,163.2-246,163.2 M-246.4,163c0,0,0.1,0,0.1,0
						C-246.3,163-246.4,162.9-246.4,163c0-0.1,0-0.1,0.1-0.2c0,0-0.1,0-0.1,0.1c0,0-0.1-0.1-0.1-0.1
						C-246.5,162.8-246.5,162.9-246.4,163c-0.1-0.1-0.2,0-0.2,0C-246.5,162.9-246.4,163-246.4,163C-246.4,163-246.4,163-246.4,163
						 M-243,162.9C-243.1,162.9-243.1,162.9-243,162.9c-0.1-0.1-0.1-0.1,0-0.1c0,0-0.1,0-0.1,0.1c0,0,0,0-0.1-0.1c0,0,0,0.1,0,0.1
						c0,0-0.1,0-0.1,0.1h0.1c0,0,0,0.1,0,0.1C-243.2,163-243.1,162.9-243,162.9 M-244,162.9L-244,162.9
						C-243.9,162.9-244,162.9-244,162.9c0-0.1,0-0.1,0-0.1C-244,162.8-244,162.8-244,162.9c0-0.1-0.1-0.1-0.1-0.1
						C-244.1,162.8-244,162.8-244,162.9c-0.1,0-0.1,0-0.1,0C-244.1,162.9-244,162.9-244,162.9C-244,163-244,162.9-244,162.9
						 M-243.7,162.6C-243.8,162.6-243.8,162.6-243.7,162.6C-243.8,162.6-243.8,162.6-243.7,162.6
						C-243.8,162.6-243.8,162.6-243.7,162.6c-0.1-0.1-0.1-0.1-0.1-0.1C-243.8,162.6-243.8,162.6-243.7,162.6c-0.1,0-0.1,0-0.1,0
						C-243.9,162.6-243.8,162.6-243.7,162.6C-243.8,162.7-243.8,162.6-243.7,162.6 M-246.8,162.6
						C-246.8,162.6-246.9,162.6-246.8,162.6c-0.1-0.1,0-0.1,0-0.1c0,0,0,0-0.1,0c0,0,0,0-0.1,0c0,0,0,0,0,0.1c0,0,0,0-0.1,0.1
						C-247,162.6-246.9,162.6-246.8,162.6C-246.9,162.6-246.8,162.6-246.8,162.6 M-245.6,162.6
						C-245.6,162.6-245.5,162.6-245.6,162.6C-245.5,162.6-245.6,162.5-245.6,162.6c0-0.1,0-0.1,0-0.2c0,0-0.1,0.1-0.1,0.1
						c0,0-0.1,0-0.1-0.1C-245.7,162.5-245.7,162.5-245.6,162.6c-0.1-0.1-0.1,0-0.1,0C-245.7,162.6-245.6,162.6-245.6,162.6
						C-245.6,162.6-245.6,162.6-245.6,162.6 M-240.9,162.6c0,0,0.1,0,0.1,0C-240.8,162.5-240.8,162.5-240.9,162.6
						c0-0.1,0-0.1,0.1-0.2c0,0-0.1,0.1-0.1,0.1c0,0-0.1,0-0.1-0.1C-241,162.4-241,162.4-240.9,162.6c-0.1-0.1-0.2,0-0.2,0
						C-241,162.5-241,162.5-240.9,162.6C-240.9,162.6-240.9,162.6-240.9,162.6C-240.9,162.6-240.9,162.6-240.9,162.6 M-240.3,162.5
						C-240.3,162.5-240.3,162.5-240.3,162.5c-0.1-0.1,0-0.1,0-0.1C-240.3,162.4-240.3,162.4-240.3,162.5c-0.1-0.1-0.1-0.1-0.1-0.1
						c0,0,0,0,0,0.1c0,0,0,0-0.1,0C-240.4,162.5-240.4,162.5-240.3,162.5C-240.4,162.5-240.3,162.5-240.3,162.5 M-245.7,162.2
						C-245.7,162.2-245.6,162.2-245.7,162.2C-245.6,162.2-245.7,162.1-245.7,162.2c0-0.1,0-0.1,0-0.1
						C-245.7,162.1-245.7,162.1-245.7,162.2c-0.1-0.1-0.1-0.1-0.1-0.1C-245.8,162.1-245.8,162.1-245.7,162.2c-0.1,0-0.1,0-0.2,0
						C-245.8,162.2-245.7,162.2-245.7,162.2C-245.7,162.2-245.7,162.2-245.7,162.2 M-240.6,162.2
						C-240.6,162.2-240.7,162.1-240.6,162.2c-0.1-0.1-0.1-0.1-0.1-0.1c0,0-0.1,0.1-0.1,0.1c0,0,0,0-0.1-0.1c0,0,0,0.1,0,0.1
						c0,0,0,0-0.1,0.1c0.1,0,0.1,0,0.1,0.1C-240.7,162.2-240.7,162.2-240.6,162.2 M-243.6,162.2c0,0,0.1,0,0.1,0
						C-243.5,162.1-243.6,162.1-243.6,162.2c0-0.1,0-0.1,0.1-0.2c0,0-0.1,0.1-0.1,0.1c0,0-0.1,0-0.1-0.1
						C-243.7,162-243.7,162.1-243.6,162.2c-0.1-0.1-0.2,0-0.2,0C-243.7,162.2-243.7,162.2-243.6,162.2
						C-243.6,162.2-243.6,162.2-243.6,162.2C-243.6,162.2-243.6,162.2-243.6,162.2 M-240.9,161.9
						C-240.9,161.8-240.9,161.8-240.9,161.9c-0.1-0.1-0.1-0.1,0-0.1c0,0-0.1,0.1-0.1,0.1c0,0,0,0-0.1-0.1c0,0,0,0.1,0,0.1
						c0,0-0.1,0-0.1,0.1c0,0,0.1,0,0.1,0.1C-241,161.9-240.9,161.8-240.9,161.9 M-245,161.8C-245,161.8-245.1,161.8-245,161.8
						c-0.1-0.1-0.1-0.1-0.1-0.2c0,0-0.1,0.1-0.1,0.1c0,0-0.1,0-0.1-0.1c0,0,0,0.1,0,0.1c0,0-0.1,0.1-0.1,0.1c0,0,0.1,0,0.1,0
						c0,0,0,0.1,0,0.1C-245.2,161.9-245.1,161.8-245,161.8 M-241.6,161.7C-241.6,161.7-241.7,161.7-241.6,161.7
						c-0.1-0.1,0-0.1,0-0.1C-241.7,161.6-241.7,161.7-241.6,161.7c-0.1-0.1-0.1-0.1-0.2-0.1c0,0,0,0.1,0,0.1c0,0,0,0-0.1,0
						C-241.7,161.7-241.7,161.8-241.6,161.7C-241.7,161.8-241.6,161.7-241.6,161.7 M-242.7,161.7
						C-242.7,161.7-242.7,161.7-242.7,161.7c-0.1-0.1,0-0.1,0-0.1C-242.7,161.6-242.7,161.6-242.7,161.7c-0.1-0.1-0.1-0.1-0.2-0.1
						c0,0,0,0,0,0.1c0,0,0,0-0.1,0.1C-242.8,161.7-242.8,161.7-242.7,161.7C-242.8,161.7-242.7,161.7-242.7,161.7 M-241.2,161.7
						C-241.2,161.6-241.2,161.6-241.2,161.7c-0.1-0.1,0-0.1,0-0.1C-241.2,161.6-241.3,161.6-241.2,161.7c-0.1-0.1-0.1-0.1-0.1-0.1
						c0,0,0,0,0,0.1c0,0,0,0-0.1,0.1C-241.4,161.7-241.3,161.7-241.2,161.7C-241.3,161.7-241.2,161.7-241.2,161.7 M-242,161.6
						C-242,161.6-242.1,161.6-242,161.6c-0.1-0.1,0-0.1,0-0.1C-242.1,161.5-242.1,161.5-242,161.6c-0.1-0.1-0.1-0.1-0.1-0.1
						c0,0,0,0,0,0.1c0,0,0,0-0.1,0C-242.2,161.6-242.1,161.6-242,161.6C-242.1,161.6-242.1,161.6-242,161.6 M-241.5,161.4
						C-241.6,161.3-241.6,161.3-241.5,161.4c-0.1-0.1-0.1-0.1-0.1-0.1c0,0-0.1,0.1-0.1,0.1c0,0,0,0-0.1-0.1c0,0,0,0.1,0,0.1
						c0,0,0,0-0.1,0.1c0.1,0,0.1,0,0.1,0.1C-241.7,161.4-241.6,161.3-241.5,161.4 M-242.3,161.3
						C-242.4,161.2-242.4,161.2-242.3,161.3c-0.1-0.1-0.1-0.1,0-0.1c0,0-0.1,0.1-0.1,0.1c0,0,0,0-0.1-0.1c0,0,0,0.1,0,0.1
						c0,0,0,0-0.1,0.1c0,0,0.1,0,0.1,0c0,0,0,0.1,0,0.1C-242.5,161.3-242.4,161.2-242.3,161.3 M-241.6,160.9
						C-241.6,160.9-241.6,160.9-241.6,160.9c-0.1-0.1,0-0.1,0-0.1C-241.6,160.9-241.7,160.9-241.6,160.9c-0.1-0.1-0.1-0.1-0.1-0.1
						c0,0,0,0,0,0.1c0,0,0,0-0.1,0C-241.7,160.9-241.7,161-241.6,160.9C-241.7,161-241.6,160.9-241.6,160.9 M-243.6,160.8
						C-243.6,160.8-243.6,160.8-243.6,160.8C-243.6,160.8-243.6,160.8-243.6,160.8C-243.6,160.8-243.6,160.8-243.6,160.8
						C-243.6,160.8-243.6,160.8-243.6,160.8C-243.6,160.8-243.6,160.8-243.6,160.8C-243.6,160.8-243.6,160.8-243.6,160.8
						C-243.6,160.8-243.6,160.8-243.6,160.8"/>
				</g>
				<g id="g34" transform="translate(240.3179,240.3081)">
					<path id="path36" class="st4" d="M-231,153.4c0.1,0,0.1-0.1,0.1-0.2c0-0.1-0.1-0.2-0.2-0.2h-0.1v0.4H-231z M-230.4,153.4
						L-230.4,153.4l-0.3-0.1v-0.1c0.1,0,0.1,0,0.2,0v-0.1h-0.2v-0.1c0.2,0,0.2,0,0.3,0c0,0,0,0,0-0.1c0,0,0,0,0,0
						c-0.2,0-0.3,0-0.3,0c0,0.2,0,0.4,0,0.4C-230.5,153.4-230.5,153.4-230.4,153.4 M-231.4,153.3
						C-231.4,153.3-231.4,153.2-231.4,153.3c0-0.1,0-0.2,0-0.2l-0.1,0c0,0.1,0,0.1-0.1,0.1c0,0-0.1,0-0.1,0V153h-0.1l0,0
						c0,0.1,0,0.1,0,0.4c0.1,0,0.2,0,0.2,0C-231.4,153.4-231.4,153.4-231.4,153.3 M-230.1,153.4c0-0.1,0-0.2,0.1-0.3
						c0,0.1,0.1,0.2,0.1,0.2h0.1l0-0.4c0,0,0,0-0.1,0c0,0.1,0,0.1,0,0.2c0-0.1-0.1-0.1-0.1-0.2h-0.1l-0.1,0.2c0-0.1,0-0.1,0-0.2h0
						v0.1C-230.2,153.2-230.2,153.3-230.1,153.4L-230.1,153.4z M-231.8,153.1c0-0.1-0.1-0.2-0.2-0.2c-0.1,0-0.2,0.1-0.2,0.2
						c0,0.1,0,0.2,0.1,0.2C-231.9,153.3-231.8,153.2-231.8,153.1 M-231,153.3c0.1,0,0.1-0.1,0.1-0.1s0-0.1-0.1-0.1h-0.1v0.2
						C-231.1,153.3-231,153.3-231,153.3z M-231.4,153.3c0-0.1-0.1-0.1-0.1-0.1h0c0,0,0,0,0,0.1
						C-231.6,153.3-231.5,153.3-231.4,153.3C-231.5,153.3-231.4,153.3-231.4,153.3 M-231.9,153.1c0,0,0-0.1-0.1-0.1
						c-0.1,0-0.1,0.1-0.1,0.1c0,0.1,0,0.1,0.1,0.1C-231.9,153.3-231.9,153.2-231.9,153.1 M-229.2,153.2
						C-229.2,153.2-229.2,153.2-229.2,153.2c-0.1,0-0.1,0-0.2,0c0,0,0,0,0-0.1c0.1,0,0.1,0,0.2,0V153c-0.1,0-0.1,0-0.2,0
						c0,0,0,0,0-0.1c0.1,0,0.1,0,0.2,0c0,0,0,0,0-0.1c-0.1,0-0.2,0-0.3,0c0,0.1,0,0.2,0.1,0.3C-229.3,153.2-229.3,153.2-229.2,153.2
						 M-228.7,153.1c0.1,0,0.3,0,0.3-0.2c0-0.1-0.1-0.1-0.1-0.1c0,0-0.1,0-0.2,0c0,0,0-0.1,0-0.1c0,0-0.1,0-0.1,0L-228.7,153.1
						C-228.7,153.1-228.7,153.1-228.7,153.1z M-228.5,153C-228.5,153-228.5,152.9-228.5,153c-0.1,0-0.1,0-0.2,0l0,0.1
						C-228.7,153.1-228.5,153.1-228.5,153 M-228,152.9c0,0-0.1-0.1-0.1-0.1c0,0,0,0,0,0c0,0,0-0.1,0-0.1c-0.1,0,0,0.1,0,0.1v0
						c0,0,0,0,0,0c0,0-0.1,0.1-0.1,0.1c0,0,0-0.1-0.1-0.1c0,0,0,0,0,0c0,0,0.1,0.2,0.1,0.3C-228.1,153-228,153-228,152.9
						 M-228,152.9C-228,152.8-228.1,152.8-228,152.9c-0.1,0-0.1,0-0.2,0l0,0.1C-228.2,152.9-228,152.9-228,152.9 M-227.5,152.6
						c0-0.1-0.1-0.2-0.2-0.2c-0.1,0-0.1,0.1-0.1,0.2c0,0.1,0.1,0.2,0.2,0.2C-227.6,152.8-227.5,152.7-227.5,152.6 M-227.6,152.6
						c0-0.1,0-0.1-0.1-0.1c0,0-0.1,0.1-0.1,0.1C-227.8,152.7-227.7,152.7-227.6,152.6C-227.6,152.7-227.6,152.7-227.6,152.6
						 M-227.1,152.5C-227.1,152.5-227.1,152.5-227.1,152.5C-227.2,152.5-227.2,152.5-227.1,152.5c-0.1,0.1-0.1,0.1-0.1,0.1
						c-0.1,0-0.1-0.1-0.1-0.1c0-0.1,0-0.1,0.1-0.1c0,0,0,0,0.1,0c0,0,0,0,0,0c0,0,0,0,0,0C-227.2,152.4-227.1,152.4-227.1,152.5
						c0-0.1-0.1-0.2-0.1-0.2c0,0-0.1,0,0,0.1c-0.2,0-0.2,0.1-0.2,0.2c0,0.1,0.1,0.2,0.2,0.2C-227.1,152.6-227.1,152.6-227.1,152.5
						 M-226.6,152.3C-226.6,152.3-226.6,152.2-226.6,152.3c-0.1-0.1-0.1-0.1-0.1-0.1c0,0,0,0,0,0c0,0,0-0.1,0-0.1c0,0,0,0,0,0
						c0,0,0,0.1,0,0.1c0,0.1-0.1,0.1-0.1,0.1c0,0-0.1-0.1-0.1-0.1c0,0,0,0,0,0l0.2,0.3C-226.8,152.4-226.6,152.4-226.6,152.3
						 M-226.7,152.3C-226.7,152.3-226.7,152.2-226.7,152.3c-0.1-0.1-0.1,0-0.2,0c0,0,0,0.1,0,0.1
						C-226.8,152.4-226.7,152.3-226.7,152.3 M-226.2,152.1C-226.2,152.1-226.2,152.1-226.2,152.1l-0.2,0.1c0,0,0,0,0-0.1
						c0.1,0,0.1-0.1,0.2-0.1c0,0,0,0,0,0l-0.2,0.1c0,0,0-0.1-0.1-0.1c0.1,0,0.2-0.1,0.2-0.1c0,0,0,0,0-0.1c0,0-0.3,0.1-0.3,0.2
						c0,0,0,0.1,0.1,0.1c0,0.1,0.1,0.2,0.1,0.2L-226.2,152.1L-226.2,152.1z M-225.8,151.8C-225.8,151.8-225.8,151.8-225.8,151.8
						C-225.8,151.8-225.9,151.8-225.8,151.8c-0.1,0-0.1,0.1-0.2,0.1c0,0,0,0,0,0c0-0.1,0.1-0.1,0.1-0.2c0-0.1-0.1-0.1-0.1-0.1
						c-0.1,0-0.2,0.1-0.2,0.2c0,0,0,0,0,0c0.1,0,0.1,0,0.1-0.1c0-0.1,0.1-0.1,0.1-0.1c0,0,0,0,0,0c0,0-0.1,0.1-0.1,0.2
						c0,0.1,0,0.1,0.1,0.1C-225.9,152-225.8,151.9-225.8,151.8 M-225.4,151.5C-225.4,151.5-225.4,151.5-225.4,151.5
						C-225.4,151.5-225.5,151.5-225.4,151.5L-225.4,151.5c-0.1,0.1-0.2,0.1-0.2,0.1c0,0,0,0,0,0c0,0,0,0,0,0c0-0.1,0.1-0.1,0.1-0.2
						c0-0.1-0.1-0.1-0.1-0.1c-0.1,0-0.2,0.1-0.2,0.2c0,0,0,0,0,0.1c0,0,0,0,0.1,0c0,0,0.1-0.1,0.1-0.1c0,0,0,0,0,0
						c0,0-0.1,0.2-0.1,0.2c0,0.1,0.1,0.1,0.1,0.1C-225.5,151.7-225.4,151.6-225.4,151.5 M-225,151.2c0-0.1-0.1-0.2-0.2-0.2
						c-0.1,0-0.1,0.1-0.1,0.2c0,0.1,0.1,0.2,0.2,0.2C-225.1,151.4-225,151.3-225,151.2 M-225.1,151.2c0-0.1-0.1-0.1-0.1-0.1
						c-0.1,0-0.1,0-0.1,0.1C-225.3,151.2-225.2,151.3-225.1,151.2C-225.1,151.3-225.1,151.3-225.1,151.2"/>
				</g>
				<g id="g38" transform="translate(255.7046,242.5483)">
					<path id="path40" class="st5" d="M-245.8,151.3c0.4,0,0.8-0.1,1.2-0.1c0.3,0,0.5-0.1,0.8-0.2c0.2-0.1,0.5-0.1,0.7-0.2
						c0.6-0.2,1.2-0.5,1.8-0.8c0.1-0.1,1.2-0.8,1.2-0.9c0-0.1-0.1-0.6-0.1-0.6c-0.2,0.1-0.3,0.3-0.5,0.4c-1.5,1.1-2.9,1.6-4.4,1.8
						c-0.2,0-0.5,0-0.5,0h-0.9c-0.4,0-0.7-0.1-1.1-0.1v0c0.1,0.2,0.1,0.4,0.2,0.6c0.3,0,0.6,0.1,0.8,0.1H-245.8z M-246.4,151.2
						c0.1,0,0.1-0.1,0.1-0.2c0-0.1-0.1-0.2-0.2-0.2h-0.1v0.4C-246.6,151.2-246.4,151.2-246.4,151.2z M-245.8,151.2L-245.8,151.2
						l-0.3-0.1V151c0.1,0,0.1,0,0.2,0V151h-0.2v-0.1c0.2,0,0.2,0,0.3,0c0,0,0,0,0-0.1c0,0,0,0,0,0c-0.2,0-0.3,0-0.3,0
						c0,0.2,0,0.4,0,0.4C-245.9,151.2-245.8,151.2-245.8,151.2 M-246.7,151C-246.7,151-246.8,151-246.7,151c0-0.1,0-0.1,0-0.1
						c0,0,0-0.1,0-0.1h-0.1c0,0.1,0,0.1-0.1,0.1c0,0-0.1,0-0.1,0v-0.1h-0.1c0,0.1,0,0.2,0,0.4c0.1,0,0.2,0,0.2,0
						C-246.8,151.1-246.7,151.1-246.7,151 M-245.5,151.1c0-0.1,0-0.2,0.1-0.3c0,0.1,0.1,0.2,0.1,0.2h0.1l0-0.4c0,0,0,0-0.1,0
						c0,0.1,0,0.1,0,0.2l0,0c0-0.1-0.1-0.1-0.1-0.2h-0.1c0,0.1,0,0.1-0.1,0.2c0-0.1,0-0.1,0-0.2h-0.1L-245.5,151.1
						C-245.6,151.1-245.6,151.1-245.5,151.1 M-247.2,150.9c0-0.1-0.1-0.2-0.2-0.2c-0.1,0-0.2,0.1-0.2,0.2c0,0.1,0.1,0.2,0.2,0.2
						C-247.3,151.1-247.2,151-247.2,150.9 M-246.4,151.1c0.1,0,0.1-0.1,0.1-0.1s0-0.1-0.1-0.1h-0.1v0.2H-246.4z M-246.8,151
						c0-0.1-0.1-0.1-0.1-0.1h0v0.1C-247,151.1-246.9,151.1-246.8,151C-246.9,151.1-246.8,151.1-246.8,151 M-247.3,150.9
						c0,0,0-0.1-0.1-0.1c-0.1,0-0.1,0.1-0.1,0.1c0,0.1,0,0.1,0.1,0.1S-247.3,150.9-247.3,150.9 M-244.6,151
						C-244.6,151-244.6,150.9-244.6,151c-0.1,0-0.1,0-0.2,0c0,0,0,0,0-0.1c0.1,0,0.1,0,0.2,0v-0.1c-0.1,0-0.1,0-0.2,0l0,0
						c0,0,0,0,0-0.1c0,0,0.2-0.1,0.2-0.1c0,0,0,0,0-0.1c-0.1,0-0.2,0-0.3,0c0,0.1,0,0.2,0.1,0.3C-244.7,151-244.6,151-244.6,151
						 M-244.1,150.9c0.1,0,0.3,0,0.3-0.2c0-0.1-0.1-0.1-0.1-0.1c0,0-0.1,0-0.2,0c0,0,0-0.1,0-0.1c0,0-0.1,0-0.1,0L-244.1,150.9
						L-244.1,150.9z M-244,150.8c0,0,0.1,0,0.1-0.1c0,0,0,0,0,0C-243.9,150.7-244,150.7-244,150.8
						C-244.1,150.8-244.1,150.8-244,150.8C-244.1,150.8-244,150.8-244,150.8z M-243.3,150.6c0,0-0.1-0.1-0.1-0.1c0,0,0,0,0,0
						c0,0,0-0.1,0-0.1c-0.1,0,0,0.1,0,0.1c0,0,0,0,0,0c0,0-0.1,0.1-0.1,0.1c0,0,0-0.1-0.1-0.1c0,0,0,0-0.1,0l0.1,0.4
						C-243.5,150.7-243.3,150.7-243.3,150.6 M-243.5,150.7c0.1,0,0.1,0,0.1-0.1c0,0,0,0,0,0C-243.5,150.6-243.6,150.6-243.5,150.7
						C-243.6,150.6-243.6,150.7-243.5,150.7L-243.5,150.7z M-242.9,150.4c0-0.1-0.1-0.2-0.2-0.2c-0.1,0-0.2,0.1-0.2,0.2
						c0,0.1,0.1,0.2,0.2,0.2C-243,150.6-242.9,150.5-242.9,150.4 M-243,150.4c0-0.1,0-0.1-0.1-0.1c-0.1,0-0.1,0.1-0.1,0.1
						C-243.2,150.4-243.1,150.5-243,150.4C-243,150.5-243,150.4-243,150.4 M-242.5,150.2L-242.5,150.2c-0.1,0-0.1,0.1-0.2,0.1
						c-0.1,0-0.1-0.1-0.1-0.1c0-0.1,0-0.1,0.1-0.1c0,0,0,0,0.1,0c0,0,0,0,0,0c0,0,0,0,0,0C-242.6,150.2-242.5,150.2-242.5,150.2
						c0-0.1-0.1-0.2-0.1-0.3c0,0-0.1,0,0,0.1c-0.2,0-0.2,0.1-0.2,0.2c0,0.1,0.1,0.2,0.2,0.2C-242.5,150.4-242.5,150.4-242.5,150.2
						 M-242,150C-242,150-242,150-242,150c-0.1-0.1-0.1-0.1-0.1-0.1c0,0,0,0,0,0c0,0,0-0.1,0-0.1c0,0,0,0,0,0c0,0,0,0.1,0,0.1
						c0,0.1-0.1,0.1-0.1,0.1c0,0-0.1-0.1-0.1-0.1l-0.1,0c0.1,0.1,0.1,0.2,0.2,0.3C-242.2,150.2-242,150.2-242,150 M-242.2,150.1
						c0,0,0.1,0,0.1-0.1c0,0,0-0.1-0.1-0.1C-242.1,150-242.3,150.1-242.2,150.1C-242.3,150.1-242.2,150.1-242.2,150.1L-242.2,150.1z
						 M-241.6,149.9C-241.6,149.9-241.6,149.8-241.6,149.9l-0.2,0.1c0,0,0,0,0-0.1l0.2-0.1l0-0.1l-0.2,0.1c0,0,0-0.1-0.1-0.1
						c0.1,0,0.2-0.1,0.2-0.1c0,0,0,0,0-0.1l-0.3,0.2l0.2,0.3L-241.6,149.9L-241.6,149.9z M-241.2,149.6
						C-241.2,149.5-241.2,149.5-241.2,149.6C-241.2,149.5-241.2,149.5-241.2,149.6c-0.1,0-0.1,0.1-0.2,0.1c0,0,0,0,0,0
						c0-0.1,0.1-0.1,0.1-0.2c0-0.1-0.1-0.1-0.1-0.1c-0.1,0-0.2,0.1-0.2,0.2c0,0,0,0,0,0c0,0,0,0,0.1,0c0-0.1,0.1-0.1,0.1-0.1
						c0,0,0,0,0,0c0,0-0.1,0.1-0.1,0.2c0,0.1,0,0.1,0.1,0.1C-241.3,149.7-241.2,149.6-241.2,149.6 M-240.8,149.3
						C-240.8,149.3-240.8,149.2-240.8,149.3C-240.8,149.2-240.8,149.3-240.8,149.3L-240.8,149.3c-0.1,0.1-0.2,0.1-0.2,0.1
						c0,0,0,0,0,0c0,0,0,0,0,0c0-0.1,0.1-0.1,0.1-0.2c0-0.1-0.1-0.1-0.1-0.1c-0.1,0-0.2,0.1-0.2,0.2c0,0,0,0,0,0.1c0,0,0,0,0.1,0
						c0,0,0.1-0.1,0.1-0.1c0,0,0,0,0,0c0,0-0.1,0.2-0.1,0.2c0,0.1,0.1,0.1,0.1,0.1C-240.9,149.5-240.8,149.4-240.8,149.3
						 M-240.4,149c0-0.1-0.1-0.2-0.2-0.2c-0.1,0-0.2,0.1-0.2,0.2c0,0.1,0.1,0.2,0.2,0.2C-240.5,149.1-240.4,149.1-240.4,149
						 M-240.5,149c0-0.1-0.1-0.1-0.1-0.1c-0.1,0-0.1,0-0.1,0.1C-240.7,149-240.7,149.1-240.5,149C-240.5,149.1-240.5,149-240.5,149"
						/>
				</g>
				<g id="g42" transform="translate(332.6484,232.4917)">
					<path id="path44" class="st5" d="M-319.8,160.9C-319.7,160.9-319.7,160.9-319.8,160.9C-319.7,160.9-319.7,160.9-319.8,160.9
						c0-0.1,0-0.1,0.1-0.2c0,0-0.1,0.1-0.1,0.1c0,0-0.1,0-0.1-0.1C-319.9,160.8-319.9,160.8-319.8,160.9c-0.1-0.1-0.1,0-0.2,0
						C-319.9,160.9-319.9,160.9-319.8,160.9C-319.8,160.9-319.8,161-319.8,160.9C-319.8,161-319.8,160.9-319.8,160.9 M-324.1,160.4
						c0,0,0.1,0,0.1,0C-324,160.4-324.1,160.3-324.1,160.4c0-0.1,0.1-0.1,0.1-0.2c0,0-0.1,0.1-0.1,0.1c0,0-0.1-0.1-0.1,0
						C-324.2,160.3-324.2,160.3-324.1,160.4c-0.1-0.1-0.1,0-0.2,0C-324.2,160.4-324.2,160.4-324.1,160.4
						C-324.1,160.5-324.1,160.4-324.1,160.4 M-319.9,159.9C-319.9,159.9-319.9,159.9-319.9,159.9
						C-319.9,159.8-319.9,159.8-319.9,159.9c0-0.1,0-0.1,0-0.1C-319.9,159.8-319.9,159.8-319.9,159.9c-0.1-0.1-0.1-0.1-0.1-0.1
						C-320,159.8-320,159.8-319.9,159.9c-0.1,0-0.1,0-0.1,0C-320,159.9-320,159.9-319.9,159.9C-319.9,159.9-319.9,159.9-319.9,159.9
						 M-322.4,159.5C-322.4,159.5-322.4,159.5-322.4,159.5C-322.4,159.5-322.4,159.5-322.4,159.5c0-0.1,0-0.1,0-0.1c0,0,0,0-0.1,0
						c0,0,0,0-0.1,0C-322.5,159.4-322.5,159.4-322.4,159.5c-0.1-0.1-0.1,0-0.1,0C-322.5,159.5-322.5,159.5-322.4,159.5
						C-322.5,159.6-322.5,159.5-322.4,159.5 M-321,159L-321,159C-320.9,159-321,159-321,159c0-0.1,0-0.1,0-0.1
						C-321,158.9-321,159-321,159c0-0.1-0.1-0.1-0.1-0.1C-321.1,158.9-321,159-321,159c-0.1,0-0.1,0-0.1,0H-321
						C-321,159.1-321,159.1-321,159C-321,159.1-321,159.1-321,159 M-323.4,158.9C-323.4,158.9-323.4,158.9-323.4,158.9
						C-323.4,158.9-323.4,158.9-323.4,158.9C-323.5,158.9-323.5,158.9-323.4,158.9c-0.1,0-0.1,0-0.1,0
						C-323.5,158.9-323.4,159-323.4,158.9C-323.4,159-323.4,158.9-323.4,158.9 M-323.7,158.7C-323.7,158.7-323.8,158.7-323.7,158.7
						c-0.1-0.1-0.1-0.1-0.1-0.2c0,0-0.1,0.1-0.1,0.1c0,0-0.1,0-0.1-0.1c0,0,0,0.1,0,0.1c0,0-0.1,0-0.1,0.1c0,0,0.1,0,0.1,0
						c0,0,0,0.1,0.1,0.1C-323.8,158.7-323.7,158.7-323.7,158.7 M-320.5,158.7C-320.5,158.7-320.5,158.7-320.5,158.7
						C-320.5,158.7-320.5,158.6-320.5,158.7c0-0.1,0-0.1,0-0.1c0,0,0,0-0.1,0c0,0,0,0-0.1,0C-320.6,158.6-320.6,158.6-320.5,158.7
						c-0.1,0-0.1,0-0.1,0C-320.6,158.7-320.6,158.7-320.5,158.7C-320.5,158.7-320.5,158.7-320.5,158.7 M-321.4,158.7
						C-321.3,158.7-321.3,158.7-321.4,158.7c0,0,0-0.1,0-0.1C-321.4,158.6-321.4,158.6-321.4,158.7c-0.1-0.1-0.1-0.1-0.1-0.1
						C-321.4,158.6-321.4,158.6-321.4,158.7c-0.1,0-0.1,0-0.1,0C-321.5,158.7-321.4,158.7-321.4,158.7
						C-321.4,158.7-321.4,158.7-321.4,158.7 M-321.1,158.4C-321.2,158.4-321.1,158.4-321.1,158.4
						C-321.2,158.3-321.2,158.3-321.1,158.4C-321.2,158.3-321.2,158.3-321.1,158.4C-321.2,158.3-321.2,158.3-321.1,158.4
						c-0.1,0-0.1,0-0.1,0C-321.2,158.4-321.2,158.4-321.1,158.4L-321.1,158.4C-321.2,158.4-321.2,158.4-321.1,158.4 M-324.3,158.4
						C-324.2,158.4-324.2,158.4-324.3,158.4C-324.2,158.3-324.3,158.3-324.3,158.4c0-0.1,0-0.1,0-0.1
						C-324.3,158.3-324.3,158.3-324.3,158.4c-0.1-0.1-0.1-0.1-0.1-0.1C-324.3,158.3-324.3,158.3-324.3,158.4c-0.1,0-0.1,0-0.1,0
						C-324.4,158.4-324.3,158.4-324.3,158.4C-324.3,158.4-324.3,158.4-324.3,158.4 M-323,158.3C-323,158.3-322.9,158.3-323,158.3
						C-322.9,158.3-323,158.3-323,158.3c0-0.1,0-0.1,0-0.1C-323,158.2-323,158.2-323,158.3c0-0.1-0.1-0.1-0.1-0.1
						C-323.1,158.2-323.1,158.2-323,158.3c-0.1,0-0.1,0-0.1,0C-323.1,158.3-323,158.3-323,158.3C-323,158.4-323,158.4-323,158.3
						 M-318.2,158.3C-318.2,158.3-318.2,158.3-318.2,158.3C-318.2,158.3-318.2,158.2-318.2,158.3c0-0.1,0-0.1,0-0.2
						c0,0-0.1,0.1-0.1,0.1c0,0-0.1,0-0.1-0.1C-318.4,158.2-318.3,158.2-318.2,158.3c-0.1-0.1-0.2,0-0.2,0
						C-318.4,158.3-318.4,158.3-318.2,158.3C-318.3,158.3-318.3,158.4-318.2,158.3C-318.3,158.4-318.3,158.3-318.2,158.3
						 M-317.7,158.2C-317.7,158.2-317.7,158.2-317.7,158.2C-317.7,158.2-317.7,158.2-317.7,158.2
						C-317.7,158.1-317.7,158.2-317.7,158.2c-0.1-0.1-0.1-0.1-0.1-0.1c0,0,0,0,0,0.1c0,0,0,0,0,0c0,0,0,0,0.1,0
						C-317.8,158.3-317.8,158.3-317.7,158.2C-317.7,158.3-317.7,158.2-317.7,158.2 M-323,157.9C-323,157.9-323.1,157.9-323,157.9
						c-0.1-0.1-0.1-0.1-0.1-0.1c0,0,0,0-0.1,0c0,0,0,0-0.1,0c0,0,0,0,0,0.1c0,0,0,0-0.1,0.1c0,0,0.1,0,0.1,0c0,0,0,0,0,0.1
						C-323.1,158-323.1,157.9-323,157.9 M-321,157.9C-320.9,157.9-320.9,157.9-321,157.9C-320.9,157.9-320.9,157.9-321,157.9
						c0-0.1,0-0.1,0-0.2c0,0-0.1,0.1-0.1,0.1c0,0-0.1,0-0.1-0.1C-321.1,157.8-321.1,157.8-321,157.9c-0.1-0.1-0.1,0-0.2,0
						C-321.1,157.9-321.1,157.9-321,157.9C-321,157.9-321,158-321,157.9C-321,158-321,157.9-321,157.9 M-318.3,157.6
						C-318.3,157.6-318.3,157.6-318.3,157.6c-0.1-0.1-0.1-0.1-0.1-0.1c0,0,0,0-0.1,0c0,0,0,0-0.1,0c0,0,0,0,0,0.1c0,0,0,0-0.1,0.1
						c0,0,0.1,0,0.1,0c0,0,0,0,0,0.1C-318.4,157.6-318.3,157.6-318.3,157.6 M-322.5,157.6c0,0,0.1,0,0.1,0
						C-322.4,157.6-322.5,157.5-322.5,157.6c0-0.1,0.1-0.1,0.1-0.2c0,0-0.1,0-0.1,0.1c0,0-0.1,0-0.1-0.1
						C-322.6,157.4-322.6,157.5-322.5,157.6c-0.1-0.1-0.1,0-0.2,0C-322.6,157.6-322.6,157.6-322.5,157.6
						C-322.5,157.7-322.5,157.6-322.5,157.6 M-319.1,157.5C-319.1,157.5-319,157.5-319.1,157.5C-319,157.5-319,157.5-319.1,157.5
						c0-0.1,0-0.1,0.1-0.2c0,0,0,0-0.1,0c0,0,0,0-0.1,0C-319.1,157.4-319.1,157.4-319.1,157.5C-319.1,157.5-319.1,157.5-319.1,157.5
						C-319.1,157.5-319.1,157.5-319.1,157.5L-319.1,157.5z M-320.1,157.4C-320.1,157.4-320.1,157.4-320.1,157.4
						C-320.1,157.4-320.1,157.4-320.1,157.4c-0.1-0.1-0.1-0.1-0.1-0.1c0,0,0,0,0,0c0,0,0,0,0,0
						C-320.2,157.4-320.2,157.5-320.1,157.4C-320.2,157.5-320.1,157.5-320.1,157.4 M-318.6,157.4
						C-318.6,157.4-318.6,157.4-318.6,157.4c0-0.1,0-0.1,0-0.1C-318.6,157.3-318.7,157.3-318.6,157.4c-0.1-0.1-0.1-0.1-0.1-0.1
						c0,0,0,0,0,0c0,0,0,0,0,0.1C-318.7,157.4-318.7,157.5-318.6,157.4C-318.7,157.4-318.6,157.4-318.6,157.4 M-319.4,157.4
						C-319.4,157.3-319.5,157.3-319.4,157.4C-319.5,157.3-319.5,157.3-319.4,157.4C-319.5,157.3-319.5,157.3-319.4,157.4
						C-319.5,157.3-319.5,157.3-319.4,157.4c-0.1-0.1-0.1-0.1-0.1-0.1c0,0,0,0,0,0c0,0,0,0,0,0
						C-319.5,157.3-319.5,157.4-319.4,157.4C-319.5,157.4-319.4,157.4-319.4,157.4 M-319,157.1C-319,157.1-319,157.1-319,157.1
						C-319,157.1-319,157.1-319,157.1c0-0.1,0-0.1,0-0.1C-319,157-319,157-319,157.1c-0.1-0.1-0.1-0.1-0.1-0.1
						C-319.1,157-319.1,157-319,157.1c-0.1-0.1-0.1,0-0.1,0C-319.1,157.1-319.1,157.1-319,157.1C-319,157.2-319,157.1-319,157.1
						 M-319.8,157C-319.8,157-319.7,157-319.8,157C-319.7,157-319.8,157-319.8,157c0-0.1,0-0.1,0-0.1
						C-319.8,156.9-319.8,156.9-319.8,157c-0.1-0.1-0.1-0.1-0.1-0.1C-319.9,156.9-319.9,156.9-319.8,157c-0.1,0-0.1,0-0.1,0
						C-319.9,157-319.8,157-319.8,157C-319.8,157.1-319.8,157-319.8,157 M-319,156.7C-319,156.7-319,156.7-319,156.7
						C-319,156.7-319,156.6-319,156.7C-319,156.6-319,156.6-319,156.7c-0.1-0.1-0.1-0.1-0.1-0.1c0,0,0,0,0,0c0,0,0,0,0,0
						C-319.1,156.7-319.1,156.7-319,156.7C-319.1,156.7-319,156.7-319,156.7"/>
				</g>
				<g id="g46" transform="translate(301.6475,121.9424)">
					<path id="path48" class="st5" d="M-290,267.1C-290,267.1-290,267.1-290,267.1L-290,267.1C-290,267.1-290,267.1-290,267.1
						C-290,267.1-290,267.1-290,267.1C-290,267.1-290,267.1-290,267.1"/>
				</g>
			</g>
		</g>
	</g>
</g>
</svg>
