<?xml version="1.0" encoding="utf-8"?>
<!-- Generator: Adobe Illustrator 21.1.0, SVG Export Plug-In . SVG Version: 6.00 Build 0)  -->
<svg version="1.1"
	 id="svg2" xmlns:cc="http://creativecommons.org/ns#" xmlns:dc="http://purl.org/dc/elements/1.1/" xmlns:rdf="http://www.w3.org/1999/02/22-rdf-syntax-ns#" xmlns:svg="http://www.w3.org/2000/svg"
	 xmlns="http://www.w3.org/2000/svg" xmlns:xlink="http://www.w3.org/1999/xlink" x="0px" y="0px" viewBox="0 0 31 21"
	 style="enable-background:new 0 0 31 21;" xml:space="preserve">
<style type="text/css">
	.st0{fill:#FFFFFF;}
	.st1{fill:#D4264C;}
	.st2{fill:#27477C;}
	.st3{clip-path:url(#SVGID_2_);}
	.st4{fill:#2162AB;}
	.st5{fill:none;stroke:#2162AB;stroke-width:0.563;}
	.st6{fill:none;stroke:#27477C;stroke-width:0.563;}
	.st7{fill:none;stroke:#D4264C;stroke-width:0.563;}
	.st8{fill:none;stroke:#FFFFFF;stroke-width:0.563;}
	.st9{fill:#FFEB5B;}
	.st10{fill:none;stroke:#2F2D2E;stroke-width:0.557;stroke-linecap:round;stroke-linejoin:round;}
	.st11{fill:#D4264C;stroke:#1D1D1D;stroke-width:0.557;stroke-linecap:round;stroke-linejoin:round;}
	.st12{fill:none;stroke:#1D1D1D;stroke-width:0.557;stroke-linecap:round;stroke-linejoin:round;}
	.st13{fill:#FFEB5B;stroke:#2F2D2E;stroke-width:0.557;stroke-linecap:round;stroke-linejoin:round;}
	.st14{fill:#1D1D1D;}
	.st15{fill:none;stroke:#1D1D1D;stroke-width:1.069;stroke-linecap:round;stroke-linejoin:round;}
	.st16{fill:none;stroke:#D4264C;stroke-width:1.126;}
	.st17{fill:#D4264C;stroke:#D4264C;stroke-width:0.563;}
</style>
<g id="g10" transform="matrix(1.3333333,0,0,-1.3333333,0,533.33333)">
	<path id="path12" class="st0" d="M0,389.5h23.3v5.3H0V389.5z"/>
	<path id="path14" class="st1" d="M0,394.8h23.3v5.2H0V394.8z"/>
	<path id="path16" class="st2" d="M0,384.3h23.3v5.3H0C0,389.5,0,384.3,0,384.3z"/>
	<g id="g18">
		<g>
			<defs>
				<rect id="SVGID_1_" x="-3.9" y="381.6" width="31" height="21"/>
			</defs>
			<clipPath id="SVGID_2_">
				<use xlink:href="#SVGID_1_"  style="overflow:visible;"/>
			</clipPath>
			<g id="g20" class="st3">
				<g id="g26" transform="translate(378.7109,269.1353)">
					<path id="path28" class="st0" d="M-364,125.7c-1.9,0.9-4.2,1-6.1,0l-0.8,1.7l0.6,1l1-0.4l0.6,0.8l0.9-0.5l0.8,0.7l0.8-0.7
						l0.9,0.5l0.6-0.8l1,0.4l0.6-1L-364,125.7z"/>
				</g>
				<g id="g30" transform="translate(347.9639,283.6294)">
					<path id="path32" class="st4" d="M-334.5,111.8c0.4-0.1,0.8-0.3,1.2-0.4l0,0l0.7,1.5l-0.5,0.9l-1-0.3L-334.5,111.8
						L-334.5,111.8z"/>
				</g>
				<g id="g34" transform="translate(347.9639,283.6294)">
					<path id="path36" class="st5" d="M-334.5,111.8c0.4-0.1,0.8-0.3,1.2-0.4l0,0l0.7,1.5l-0.5,0.9l-1-0.3L-334.5,111.8
						L-334.5,111.8z"/>
				</g>
				<g id="g38" transform="translate(316.0547,289.3423)">
					<path id="path40" class="st4" d="M-303.8,106.3c-0.4,0-0.8,0-1.3,0l0,0l-0.2,1.7l0.8,0.7l0.8-0.7L-303.8,106.3L-303.8,106.3z"
						/>
				</g>
				<g id="g42" transform="translate(316.0547,289.3423)">
					<path id="path44" class="st5" d="M-303.8,106.3c-0.4,0-0.8,0-1.3,0l0,0l-0.2,1.7l0.8,0.7l0.8-0.7L-303.8,106.3L-303.8,106.3z"
						/>
				</g>
				<g id="g46" transform="translate(251.6641,283.8022)">
					<path id="path48" class="st4" d="M-241.9,111.6c-0.4-0.1-0.8-0.3-1.2-0.4l0,0l-0.7,1.5l0.5,0.9l1-0.3L-241.9,111.6
						L-241.9,111.6z"/>
				</g>
				<g id="g50" transform="translate(251.6641,283.8022)">
					<path id="path52" class="st5" d="M-241.9,111.6c-0.4-0.1-0.8-0.3-1.2-0.4l0,0l-0.7,1.5l0.5,0.9l1-0.3L-241.9,111.6
						L-241.9,111.6z"/>
				</g>
				<g id="g54" transform="translate(347.9639,283.6294)">
					<path id="path56" class="st2" d="M-334.5,111.8c-0.4,0.1-0.8,0.2-1.2,0.2l0,0l0.2,1.7l0.9,0.5l0.6-0.8L-334.5,111.8
						L-334.5,111.8z"/>
				</g>
				<g id="g58" transform="translate(347.9639,283.6294)">
					<path id="path60" class="st6" d="M-334.5,111.8c-0.4,0.1-0.8,0.2-1.2,0.2l0,0l0.2,1.7l0.9,0.5l0.6-0.8L-334.5,111.8
						L-334.5,111.8z"/>
				</g>
				<g id="g62" transform="translate(251.6641,283.8022)">
					<path id="path64" class="st2" d="M-241.9,111.6c0.4,0.1,0.8,0.2,1.2,0.2l0,0l-0.2,1.7l-0.9,0.5l-0.7-0.8L-241.9,111.6
						L-241.9,111.6z"/>
				</g>
				<g id="g66" transform="translate(251.6641,283.8022)">
					<path id="path68" class="st6" d="M-241.9,111.6c0.4,0.1,0.8,0.2,1.2,0.2l0,0l-0.2,1.7l-0.9,0.5l-0.7-0.8L-241.9,111.6
						L-241.9,111.6z"/>
				</g>
				<g id="g70" transform="translate(281.7222,310.1743)">
					<path id="path72" class="st1" d="M-270.8,86.3c-0.5,0-0.9-0.1-1.4-0.2l0.1-0.4c0.4,0.1,0.9,0.2,1.3,0.2L-270.8,86.3z"/>
				</g>
				<g id="g74" transform="translate(281.7222,310.1743)">
					<path id="path76" class="st7" d="M-270.8,86.3c-0.5,0-0.9-0.1-1.4-0.2l0.1-0.4c0.4,0.1,0.9,0.2,1.3,0.2L-270.8,86.3z"/>
				</g>
				<g id="g78" transform="translate(279.7183,332.2778)">
					<path id="path80" class="st1" d="M-268.9,65.1c-0.5,0-1-0.1-1.5-0.3l0.1-0.4c0.5,0.1,1,0.2,1.5,0.3L-268.9,65.1z"/>
				</g>
				<g id="g82" transform="translate(279.7183,332.2778)">
					<path id="path84" class="st7" d="M-268.9,65.1c-0.5,0-1-0.1-1.5-0.3l0.1-0.4c0.5,0.1,1,0.2,1.5,0.3L-268.9,65.1z"/>
				</g>
				<g id="g86" transform="translate(390.1494,296.6924)">
					<path id="path88" class="st1" d="M-375,99.2c-0.4,0.2-0.9,0.4-1.4,0.5l-0.2-0.6c0.4-0.1,0.9-0.3,1.3-0.5L-375,99.2z"/>
				</g>
				<g id="g90" transform="translate(390.1494,296.6924)">
					<path id="path92" class="st7" d="M-375,99.2c-0.4,0.2-0.9,0.4-1.4,0.5l-0.2-0.6c0.4-0.1,0.9-0.3,1.3-0.5L-375,99.2z"/>
				</g>
				<g id="g94" transform="translate(239.8579,303.4976)">
					<path id="path96" class="st0" d="M-230.6,92.7c-0.2-0.2-0.4-0.3-0.7-0.3c-0.1,0-0.1,0-0.2,0c0.1-0.1,0.2-0.2,0.4-0.2
						C-230.8,92.2-230.6,92.4-230.6,92.7C-230.6,92.7-230.6,92.7-230.6,92.7"/>
				</g>
				<g id="g98" transform="translate(239.8579,303.4976)">
					<path id="path100" class="st8" d="M-230.6,92.7c-0.2-0.2-0.4-0.3-0.7-0.3c-0.1,0-0.1,0-0.2,0c0.1-0.1,0.2-0.2,0.4-0.2
						C-230.8,92.2-230.6,92.4-230.6,92.7C-230.6,92.7-230.6,92.7-230.6,92.7z"/>
				</g>
				<g id="g102" transform="translate(350.9531,294.7285)">
					<path id="path104" class="st0" d="M-337.4,101.1c0.4-0.1,0.9-0.3,1.3-0.5l-0.1-0.1c-0.4,0.2-0.8,0.3-1.2,0.5L-337.4,101.1z"/>
				</g>
				<g id="g106" transform="translate(350.9531,294.7285)">
					<path id="path108" class="st8" d="M-337.4,101.1c0.4-0.1,0.9-0.3,1.3-0.5l-0.1-0.1c-0.4,0.2-0.8,0.3-1.2,0.5L-337.4,101.1z"/>
				</g>
				<g id="g110" transform="translate(356.3418,313.5273)">
					<path id="path112" class="st0" d="M-342.5,83.1c0.5-0.1,0.9-0.3,1.4-0.5l-0.1-0.1c-0.4,0.2-0.9,0.4-1.4,0.5L-342.5,83.1z"/>
				</g>
				<g id="g114" transform="translate(356.3418,313.5273)">
					<path id="path116" class="st8" d="M-342.5,83.1c0.5-0.1,0.9-0.3,1.4-0.5l-0.1-0.1c-0.4,0.2-0.9,0.4-1.4,0.5L-342.5,83.1z"/>
				</g>
				<g id="g118" transform="translate(219.355,323.5854)">
					<path id="path120" class="st9" d="M-210.9,73.4l0-0.2l-0.2-0.1l0.2-0.1l0-0.2l0.2,0.1l0.2-0.1l0,0.2l0.2,0.1l-0.2,0.1l0,0.2
						l-0.2-0.1C-210.7,73.3-210.9,73.4-210.9,73.4"/>
				</g>
				<g id="g122" transform="translate(381.8779,327.9492)">
					<path id="path124" class="st9" d="M-367.1,69.2l0-0.2l0.2-0.1l-0.2-0.1l0-0.2l-0.2,0.1l-0.2-0.1l0,0.2l-0.2,0.1l0.2,0.1l0,0.2
						l0.2-0.1C-367.2,69.1-367.1,69.2-367.1,69.2"/>
				</g>
				<g id="g126" transform="translate(328.8799,321.8164)">
					<path id="path128" class="st9" d="M-316.1,75.1C-316.2,75.1-316.2,75.1-316.1,75.1c-0.1,0-0.1,0-0.1,0c0,0-0.1,0-0.1,0
						c0,0,0,0,0-0.1c0,0,0.1,0,0.1,0c0,0-0.1-0.2-0.1-0.2c0,0,0,0,0,0c0,0,0,0,0.1,0c0,0,0,0,0.1,0c0,0,0,0,0-0.1c0,0,0,0,0-0.1
						c0,0,0,0-0.1-0.1c0,0,0,0,0,0c0,0,0,0,0,0c0,0,0,0,0,0c0,0,0-0.1-0.1-0.2l0,0l0,0c0,0,0,0,0,0c0,0,0,0,0,0.1c0,0,0,0,0,0.1
						c0,0,0.1,0.1,0.1,0.1c0,0,0,0,0.1,0c0,0,0-0.1,0-0.2c0,0,0-0.1,0-0.1c0,0,0-0.1,0-0.1l0,0c0,0,0,0,0,0c0,0,0,0,0,0.1
						c0,0,0,0.1,0,0.1c0,0,0,0,0,0.1c0,0,0.1,0.1,0.1,0.1c0,0,0,0,0,0c0,0,0,0,0,0c0,0,0,0,0,0c0,0,0,0,0,0c0,0,0,0,0,0c0,0,0,0,0,0
						c0,0,0,0,0,0c0,0,0,0,0.1,0c0,0,0,0,0-0.1c0,0,0,0-0.1-0.1c0,0-0.1-0.1,0-0.1l0,0l0,0c0,0,0,0,0.1,0.1c0,0,0,0.1,0,0.1
						c0,0,0.1,0,0.1,0.1l0,0c0,0,0,0,0.1-0.1c0,0,0-0.1,0-0.1c0,0,0,0,0-0.1c0,0,0-0.1,0-0.1l0.1,0c0,0,0,0.1,0,0.1c0,0,0,0,0,0.1
						c0,0,0.1,0.1,0.1,0.2l0,0l0,0l0,0l0,0l0,0l0,0l0,0c0,0,0,0,0,0.1c0,0,0,0,0,0c0,0,0.1,0,0.1,0.1c0,0,0,0.1,0,0.1c0,0,0,0,0,0.1
						l0,0c0,0,0,0.1,0,0.1c0,0-0.1,0-0.1,0c0,0-0.1,0.1-0.1,0l0,0c0,0,0,0-0.1,0l0,0c0,0,0,0-0.1,0l0,0c0,0-0.1,0-0.1,0
						c0,0-0.1,0-0.1,0.1c0,0-0.1,0-0.1,0.1c0,0,0,0,0,0c0,0,0,0,0.1,0c0,0,0,0,0,0c0,0,0,0-0.1,0c0,0,0,0,0,0
						C-316,75-316,75-316.1,75.1C-316.1,75.1-316.1,75.1-316.1,75.1"/>
				</g>
				<g id="g130" transform="translate(328.8799,321.8164)">
					<path id="path132" class="st10" d="M-316.1,75.1C-316.2,75.1-316.2,75.1-316.1,75.1c-0.1,0-0.1,0-0.1,0c0,0-0.1,0-0.1,0
						c0,0,0,0,0-0.1c0,0,0.1,0,0.1,0c0,0-0.1-0.2-0.1-0.2c0,0,0,0,0,0c0,0,0,0,0.1,0c0,0,0,0,0.1,0c0,0,0,0,0-0.1c0,0,0,0,0-0.1
						c0,0,0,0-0.1-0.1c0,0,0,0,0,0c0,0,0,0,0,0c0,0,0,0,0,0c0,0,0-0.1-0.1-0.2l0,0l0,0c0,0,0,0,0,0c0,0,0,0,0,0.1c0,0,0,0,0,0.1
						c0,0,0.1,0.1,0.1,0.1c0,0,0,0,0.1,0c0,0,0-0.1,0-0.2c0,0,0-0.1,0-0.1c0,0,0-0.1,0-0.1l0,0c0,0,0,0,0,0c0,0,0,0,0,0.1
						c0,0,0,0.1,0,0.1c0,0,0,0,0,0.1c0,0,0.1,0.1,0.1,0.1c0,0,0,0,0,0c0,0,0,0,0,0c0,0,0,0,0,0c0,0,0,0,0,0c0,0,0,0,0,0c0,0,0,0,0,0
						c0,0,0,0,0,0c0,0,0,0,0.1,0c0,0,0,0,0-0.1c0,0,0,0-0.1-0.1c0,0-0.1-0.1,0-0.1l0,0l0,0c0,0,0,0,0.1,0.1c0,0,0,0.1,0,0.1
						c0,0,0.1,0,0.1,0.1l0,0c0,0,0,0,0.1-0.1c0,0,0-0.1,0-0.1c0,0,0,0,0-0.1c0,0,0-0.1,0-0.1l0.1,0c0,0,0,0.1,0,0.1c0,0,0,0,0,0.1
						c0,0,0.1,0.1,0.1,0.2l0,0l0,0l0,0l0,0l0,0l0,0l0,0c0,0,0,0,0,0.1c0,0,0,0,0,0c0,0,0.1,0,0.1,0.1c0,0,0,0.1,0,0.1c0,0,0,0,0,0.1
						l0,0c0,0,0,0.1,0,0.1c0,0-0.1,0-0.1,0c0,0-0.1,0.1-0.1,0l0,0c0,0,0,0-0.1,0l0,0c0,0,0,0-0.1,0l0,0c0,0-0.1,0-0.1,0
						c0,0-0.1,0-0.1,0.1c0,0-0.1,0-0.1,0.1c0,0,0,0,0,0c0,0,0,0,0.1,0c0,0,0,0,0,0c0,0,0,0-0.1,0c0,0,0,0,0,0
						C-316,75-316,75-316.1,75.1C-316.1,75.1-316.1,75.1-316.1,75.1z"/>
				</g>
				<g id="g134" transform="translate(328.3691,321.771)">
					<path id="path136" class="st11" d="M-315.6,75.1c0.1,0.1,0.2,0.1,0.2,0.1c0.1,0,0.2-0.1,0.2-0.1c0,0,0.1,0,0.1,0
						c0,0,0-0.1-0.1,0c-0.1,0-0.2,0-0.2,0C-315.4,75.2-315.5,75.2-315.6,75.1"/>
				</g>
				<g id="g138" transform="translate(330.5049,320.9507)">
					<path id="path140" class="st11" d="M-317.7,75.9c0,0,0.1,0,0.2,0c0.1,0,0.1,0,0.2-0.1c0.1-0.1,0.2,0,0.2,0s-0.1-0.1-0.2,0
						c-0.1,0.1-0.1,0.1-0.2,0.1C-317.6,75.9-317.6,75.9-317.7,75.9"/>
				</g>
				<g id="g142" transform="translate(324.3721,297.1904)">
					<path id="path144" class="st1" d="M-311.8,98.8C-311.8,98.8-311.8,98.8-311.8,98.8C-311.9,98.8-311.9,98.8-311.8,98.8
						C-311.9,98.7-311.8,98.7-311.8,98.8"/>
				</g>
				<g id="g146" transform="translate(324.3721,297.1904)">
					<path id="path148" class="st12" d="M-311.8,98.8C-311.8,98.8-311.8,98.8-311.8,98.8C-311.9,98.8-311.9,98.8-311.8,98.8
						C-311.9,98.7-311.8,98.7-311.8,98.8z"/>
				</g>
				<g id="g150" transform="translate(329.1055,292.6475)">
					<path id="path152" class="st1" d="M-316.4,103.1C-316.4,103.2-316.4,103.2-316.4,103.1C-316.4,103.2-316.4,103.1-316.4,103.1
						C-316.4,103.1-316.4,103.1-316.4,103.1"/>
				</g>
				<g id="g154" transform="translate(329.1055,292.6475)">
					<path id="path156" class="st12" d="M-316.4,103.1C-316.4,103.2-316.4,103.2-316.4,103.1C-316.4,103.2-316.4,103.1-316.4,103.1
						C-316.4,103.1-316.4,103.1-316.4,103.1z"/>
				</g>
				<g id="g158" transform="translate(337.4277,295.146)">
					<path id="path160" class="st1" d="M-324.4,100.7C-324.4,100.8-324.4,100.8-324.4,100.7C-324.4,100.8-324.4,100.7-324.4,100.7
						C-324.4,100.7-324.4,100.7-324.4,100.7"/>
				</g>
				<g id="g162" transform="translate(337.4277,295.146)">
					<path id="path164" class="st12" d="M-324.4,100.7C-324.4,100.8-324.4,100.8-324.4,100.7C-324.4,100.8-324.4,100.7-324.4,100.7
						C-324.4,100.7-324.4,100.7-324.4,100.7z"/>
				</g>
				<g id="g166" transform="translate(344.3467,292.874)">
					<path id="path168" class="st1" d="M-331,102.9C-331,102.9-331,103-331,102.9C-331.1,102.9-331.1,102.9-331,102.9
						C-331.1,102.9-331,102.9-331,102.9"/>
				</g>
				<g id="g170" transform="translate(344.3467,292.874)">
					<path id="path172" class="st12" d="M-331,102.9C-331,102.9-331,103-331,102.9C-331.1,102.9-331.1,102.9-331,102.9
						C-331.1,102.9-331,102.9-331,102.9z"/>
				</g>
				<g id="g174" transform="translate(333.7549,305.0044)">
					<path id="path176" class="st10" d="M-320.8,91.3C-320.8,91.3-320.8,91.2-320.8,91.3"/>
				</g>
				<g id="g178" transform="translate(329.9004,322.9961)">
					<path id="path180" class="st10" d="M-317.1,74C-317.1,74-317.1,74-317.1,74"/>
				</g>
				<g id="g182" transform="translate(332.04,323.8604)">
					<path id="path184" class="st10" d="M-319.2,73.1C-319.2,73.1-319.1,73.1-319.2,73.1"/>
				</g>
				<g id="g186" transform="translate(334.1289,324.2246)">
					<path id="path188" class="st10" d="M-321.2,72.8C-321.2,72.8-321.2,72.8-321.2,72.8"/>
				</g>
				<g id="g190" transform="translate(336.1221,323.9512)">
					<path id="path192" class="st10" d="M-323.1,73.1C-323.1,73-323.1,73-323.1,73.1"/>
				</g>
				<g id="g194" transform="translate(337.9854,323.4502)">
					<path id="path196" class="st10" d="M-324.9,73.5C-324.9,73.5-324.9,73.5-324.9,73.5"/>
				</g>
				<g id="g198" transform="translate(339.748,322.9487)">
					<path id="path200" class="st10" d="M-326.6,74C-326.6,74-326.6,74-326.6,74"/>
				</g>
				<g id="g202" transform="translate(341.3721,322.8159)">
					<path id="path204" class="st10" d="M-328.1,74.1C-328.1,74.1-328.1,74.1-328.1,74.1"/>
				</g>
				<g id="g206" transform="translate(331.9424,321.4521)">
					<path id="path208" class="st10" d="M-319.1,75.5C-319.1,75.5-319,75.4-319.1,75.5"/>
				</g>
				<g id="g210" transform="translate(333.9863,321.7246)">
					<path id="path212" class="st10" d="M-321,75.2C-321,75.2-321,75.2-321,75.2"/>
				</g>
				<g id="g214" transform="translate(336.0332,321.4077)">
					<path id="path216" class="st10" d="M-323,75.5C-323,75.5-323,75.5-323,75.5"/>
				</g>
				<g id="g218" transform="translate(337.6592,320.769)">
					<path id="path220" class="st10" d="M-324.6,76.1C-324.6,76.1-324.6,76.1-324.6,76.1"/>
				</g>
				<g id="g222" transform="translate(339.4209,319.7256)">
					<path id="path224" class="st10" d="M-326.3,77.1C-326.2,77.1-326.3,77.1-326.3,77.1"/>
				</g>
				<g id="g226" transform="translate(341.0039,318.8149)">
					<path id="path228" class="st10" d="M-327.8,78C-327.8,78-327.8,78-327.8,78"/>
				</g>
				<g id="g230" transform="translate(342.6279,318.3599)">
					<path id="path232" class="st10" d="M-329.4,78.4C-329.3,78.4-329.3,78.4-329.4,78.4"/>
				</g>
				<g id="g234" transform="translate(328.3936,317.1021)">
					<path id="path236" class="st10" d="M-315.7,79.6C-315.7,79.6-315.7,79.6-315.7,79.6C-315.7,79.7-315.7,79.7-315.7,79.6
						C-315.7,79.7-315.7,79.7-315.7,79.6C-315.7,79.6-315.7,79.6-315.7,79.6z"/>
				</g>
				<g id="g238" transform="translate(327.3916,317.4556)">
					<path id="path240" class="st10" d="M-314.7,79.3C-314.7,79.3-314.7,79.3-314.7,79.3"/>
				</g>
				<g id="g242" transform="translate(329.6201,314.3193)">
					<path id="path244" class="st10" d="M-316.8,82.3C-316.8,82.3-316.8,82.3-316.8,82.3"/>
				</g>
				<g id="g246" transform="translate(329.6201,309.2319)">
					<path id="path248" class="st10" d="M-316.8,87.2C-316.8,87.2-316.9,87.2-316.8,87.2"/>
				</g>
				<g id="g250" transform="translate(332.917,310.7739)">
					<path id="path252" class="st10" d="M-320,85.7C-320,85.7-320.1,85.7-320,85.7"/>
				</g>
				<g id="g254" transform="translate(329.9482,306.2759)">
					<path id="path256" class="st10" d="M-317.2,90C-317.2,90-317.2,90-317.2,90"/>
				</g>
				<g id="g258" transform="translate(327.2998,305.1851)">
					<path id="path260" class="st10" d="M-314.6,91.1C-314.6,91.1-314.6,91-314.6,91.1"/>
				</g>
				<g id="g262" transform="translate(335.9395,305.687)">
					<path id="path264" class="st10" d="M-322.9,90.6C-322.9,90.6-322.9,90.6-322.9,90.6"/>
				</g>
				<g id="g266" transform="translate(338.4473,306.1855)">
					<path id="path268" class="st10" d="M-325.3,90.1C-325.3,90.1-325.4,90.1-325.3,90.1"/>
				</g>
				<g id="g270" transform="translate(341.0498,305.6416)">
					<path id="path272" class="st10" d="M-327.8,90.6C-327.8,90.6-327.9,90.6-327.8,90.6"/>
				</g>
				<g id="g274" transform="translate(343.4648,306.0073)">
					<path id="path276" class="st10" d="M-330.2,90.3C-330.2,90.3-330.2,90.2-330.2,90.3"/>
				</g>
				<g id="g278" transform="translate(343.834,307.8218)">
					<path id="path280" class="st10" d="M-330.5,88.5C-330.5,88.5-330.5,88.5-330.5,88.5"/>
				</g>
				<g id="g282" transform="translate(343.1865,309.1411)">
					<path id="path284" class="st10" d="M-329.9,87.3C-329.9,87.3-329.8,87.3-329.9,87.3"/>
				</g>
				<g id="g286" transform="translate(338.957,310.3662)">
					<path id="path288" class="st10" d="M-325.8,86.1C-325.8,86.1-325.8,86.1-325.8,86.1"/>
				</g>
				<g id="g290" transform="translate(335.2881,310.0488)">
					<path id="path292" class="st10" d="M-322.3,86.4C-322.3,86.4-322.2,86.4-322.3,86.4"/>
				</g>
				<g id="g294" transform="translate(341.1406,302.415)">
					<path id="path296" class="st10" d="M-327.9,93.7C-327.9,93.7-327.9,93.7-327.9,93.7"/>
				</g>
				<g id="g298" transform="translate(345.2305,302.3267)">
					<path id="path300" class="st10" d="M-331.9,93.8C-331.9,93.8-331.8,93.8-331.9,93.8"/>
				</g>
				<g id="g302" transform="translate(290.2256,318.9517)">
					<path id="path304" class="st9" d="M-279,77.9C-279,77.9-279,77.9-279,77.9L-279,77.9C-278.9,77.9-278.9,77.9-279,77.9
						c0.1,0,0.1,0,0.1,0c0,0,0,0.1,0,0.1c0,0,0.1,0,0.1,0c0,0,0,0.1,0,0.1c0,0,0.1,0,0.1,0c0,0,0,0.1,0,0.1c0,0,0.1,0,0.1,0
						c0,0.1,0,0.1,0,0.1c0,0,0.1,0,0.1,0c0,0-0.1,0-0.1,0c0,0,0,0,0,0c0,0-0.1,0-0.1,0c0,0,0,0,0.1,0.1c0,0-0.1,0-0.1,0h-0.3
						c0,0,0,0-0.1,0c0,0,0,0,0.1-0.1c0,0-0.1,0-0.1,0c0,0,0,0,0,0c0,0,0,0-0.1,0c0,0,0,0,0.1,0c0,0,0,0,0-0.1c0,0,0,0,0.1,0
						c0,0,0,0,0-0.1c0,0,0,0,0.1,0c0,0,0,0,0-0.1c0,0,0,0,0.1,0c0,0,0,0,0-0.1C-279.1,77.9-279.1,77.9-279,77.9
						C-279.1,77.9-279,77.9-279,77.9L-279,77.9C-279,77.9-279,77.9-279,77.9"/>
				</g>
				<g id="g306" transform="translate(290.2256,318.9517)">
					<path id="path308" class="st10" d="M-279,77.9C-279,77.9-279,77.9-279,77.9L-279,77.9C-278.9,77.9-278.9,77.9-279,77.9
						c0.1,0,0.1,0,0.1,0c0,0,0,0.1,0,0.1c0,0,0.1,0,0.1,0c0,0,0,0.1,0,0.1c0,0,0.1,0,0.1,0c0,0,0,0.1,0,0.1c0,0,0.1,0,0.1,0
						c0,0.1,0,0.1,0,0.1c0,0,0.1,0,0.1,0c0,0-0.1,0-0.1,0c0,0,0,0,0,0c0,0-0.1,0-0.1,0c0,0,0,0,0.1,0.1c0,0-0.1,0-0.1,0h-0.3
						c0,0,0,0-0.1,0c0,0,0,0,0.1-0.1c0,0-0.1,0-0.1,0c0,0,0,0,0,0c0,0,0,0-0.1,0c0,0,0,0,0.1,0c0,0,0,0,0-0.1c0,0,0,0,0.1,0
						c0,0,0,0,0-0.1c0,0,0,0,0.1,0c0,0,0,0,0-0.1c0,0,0,0,0.1,0c0,0,0,0,0-0.1C-279.1,77.9-279.1,77.9-279,77.9
						C-279.1,77.9-279,77.9-279,77.9L-279,77.9C-279,77.9-279,77.9-279,77.9z"/>
				</g>
				<g id="g310" transform="translate(293.9473,330.6743)">
					<path id="path312" class="st9" d="M-282.6,66.6C-282.6,66.6-282.6,66.7-282.6,66.6c0,0.1,0.1,0.1,0.1,0.1l0,0
						C-282.5,66.7-282.5,66.7-282.6,66.6C-282.6,66.7-282.6,66.7-282.6,66.6L-282.6,66.6c-0.1,0.1-0.1,0.1-0.1,0.1c0,0,0,0,0,0
						c0,0,0,0,0,0h0c0,0,0,0,0,0c0,0,0,0,0,0c0,0,0,0,0-0.1h0c0,0,0,0,0,0c-0.1,0-0.1,0-0.1,0l0,0c0,0,0,0,0-0.1c0,0,0-0.1,0-0.1
						H-282.6z"/>
				</g>
				<g id="g314" transform="translate(293.9473,330.6743)">
					<path id="path316" class="st10" d="M-282.6,66.6C-282.6,66.6-282.6,66.7-282.6,66.6c0,0.1,0.1,0.1,0.1,0.1l0,0
						C-282.5,66.7-282.5,66.7-282.6,66.6C-282.6,66.7-282.6,66.7-282.6,66.6L-282.6,66.6c-0.1,0.1-0.1,0.1-0.1,0.1c0,0,0,0,0,0
						c0,0,0,0,0,0h0c0,0,0,0,0,0c0,0,0,0,0,0c0,0,0,0,0-0.1h0c0,0,0,0,0,0c-0.1,0-0.1,0-0.1,0l0,0c0,0,0,0,0-0.1c0,0,0-0.1,0-0.1
						H-282.6z"/>
				</g>
				<g id="g318" transform="translate(309.7422,318.9517)">
					<path id="path320" class="st9" d="M-297.7,77.9C-297.7,77.9-297.7,77.9-297.7,77.9L-297.7,77.9
						C-297.7,77.9-297.7,77.9-297.7,77.9c0.1,0,0.1,0,0.1,0c0,0,0,0.1,0,0.1c0,0,0.1,0,0.1,0c0,0,0,0.1,0,0.1c0,0,0.1,0,0.1,0
						c0,0,0,0.1,0,0.1c0,0,0.1,0,0.1,0c0,0.1,0,0.1,0,0.1c0,0,0.1,0,0.1,0c0,0-0.1,0-0.1,0c0,0,0,0,0,0c0,0-0.1,0-0.1,0
						c0,0,0,0,0.1,0.1c0,0-0.1,0-0.1,0h-0.3c0,0,0,0-0.1,0c0,0,0,0,0.1-0.1c0,0-0.1,0-0.1,0c0,0,0,0,0,0c0,0,0,0-0.1,0
						c0,0,0,0,0.1,0c0,0,0,0,0-0.1c0,0,0,0,0.1,0c0,0,0,0,0-0.1c0,0,0,0,0.1,0c0,0,0,0,0-0.1c0,0,0,0,0.1,0c0,0,0,0,0-0.1
						C-297.9,77.9-297.8,77.9-297.7,77.9C-297.8,77.9-297.8,77.9-297.7,77.9L-297.7,77.9C-297.8,77.9-297.8,77.9-297.7,77.9"/>
				</g>
				<g id="g322" transform="translate(309.7422,318.9517)">
					<path id="path324" class="st10" d="M-297.7,77.9C-297.7,77.9-297.7,77.9-297.7,77.9L-297.7,77.9
						C-297.7,77.9-297.7,77.9-297.7,77.9c0.1,0,0.1,0,0.1,0c0,0,0,0.1,0,0.1c0,0,0.1,0,0.1,0c0,0,0,0.1,0,0.1c0,0,0.1,0,0.1,0
						c0,0,0,0.1,0,0.1c0,0,0.1,0,0.1,0c0,0.1,0,0.1,0,0.1c0,0,0.1,0,0.1,0c0,0-0.1,0-0.1,0c0,0,0,0,0,0c0,0-0.1,0-0.1,0
						c0,0,0,0,0.1,0.1c0,0-0.1,0-0.1,0h-0.3c0,0,0,0-0.1,0c0,0,0,0,0.1-0.1c0,0-0.1,0-0.1,0c0,0,0,0,0,0c0,0,0,0-0.1,0
						c0,0,0,0,0.1,0c0,0,0,0,0-0.1c0,0,0,0,0.1,0c0,0,0,0,0-0.1c0,0,0,0,0.1,0c0,0,0,0,0-0.1c0,0,0,0,0.1,0c0,0,0,0,0-0.1
						C-297.9,77.9-297.8,77.9-297.7,77.9C-297.8,77.9-297.8,77.9-297.7,77.9L-297.7,77.9C-297.8,77.9-297.8,77.9-297.7,77.9z"/>
				</g>
				<g id="g326" transform="translate(313.4521,330.6743)">
					<path id="path328" class="st9" d="M-301.3,66.6C-301.3,66.6-301.3,66.7-301.3,66.6c0,0.1,0.1,0.1,0.1,0.1l0,0
						C-301.3,66.7-301.3,66.7-301.3,66.6C-301.3,66.7-301.3,66.7-301.3,66.6L-301.3,66.6c-0.1,0.1-0.1,0.1-0.1,0.1c0,0,0,0,0,0
						c0,0,0,0,0,0h0c0,0,0,0,0,0c0,0,0,0,0,0c0,0,0,0,0-0.1h0c0,0,0,0,0,0c-0.1,0-0.1,0-0.1,0l0,0c0,0,0,0,0-0.1c0,0,0-0.1,0-0.1
						H-301.3z"/>
				</g>
				<g id="g330" transform="translate(313.4521,330.6743)">
					<path id="path332" class="st10" d="M-301.3,66.6C-301.3,66.6-301.3,66.7-301.3,66.6c0,0.1,0.1,0.1,0.1,0.1l0,0
						C-301.3,66.7-301.3,66.7-301.3,66.6C-301.3,66.7-301.3,66.7-301.3,66.6L-301.3,66.6c-0.1,0.1-0.1,0.1-0.1,0.1c0,0,0,0,0,0
						c0,0,0,0,0,0h0c0,0,0,0,0,0c0,0,0,0,0,0c0,0,0,0,0-0.1h0c0,0,0,0,0,0c-0.1,0-0.1,0-0.1,0l0,0c0,0,0,0,0-0.1c0,0,0-0.1,0-0.1
						H-301.3z"/>
				</g>
				<g id="g334" transform="translate(299.9824,302.6865)">
					<path id="path336" class="st9" d="M-288.4,93.5C-288.3,93.5-288.3,93.5-288.4,93.5L-288.4,93.5
						C-288.3,93.5-288.3,93.5-288.4,93.5c0.1,0,0.1,0,0.1,0c0,0,0,0.1,0,0.1c0,0,0.1,0,0.1,0c0,0,0,0.1,0,0.1c0,0,0.1,0,0.1,0
						c0,0,0,0.1,0,0.1c0,0,0.1,0,0.1,0c0,0.1,0,0.1,0,0.1c0,0,0.1,0,0.1,0c0,0-0.1,0-0.1,0c0,0,0,0,0,0c0,0-0.1,0-0.1,0
						c0,0,0,0,0.1,0.1c0,0-0.1,0-0.1,0h-0.3c0,0,0,0-0.1,0c0,0,0,0,0.1-0.1c0,0-0.1,0-0.1,0c0,0,0,0,0,0c0,0,0,0-0.1,0
						c0,0,0,0,0.1,0c0,0,0,0,0-0.1c0,0,0,0,0.1,0c0,0,0,0,0-0.1c0,0,0,0,0.1,0c0,0,0,0,0-0.1c0,0,0,0,0.1,0c0,0,0,0,0-0.1
						C-288.5,93.5-288.5,93.5-288.4,93.5C-288.4,93.5-288.4,93.5-288.4,93.5L-288.4,93.5C-288.4,93.5-288.4,93.5-288.4,93.5"/>
				</g>
				<g id="g338" transform="translate(299.9824,302.6865)">
					<path id="path340" class="st10" d="M-288.4,93.5C-288.3,93.5-288.3,93.5-288.4,93.5L-288.4,93.5
						C-288.3,93.5-288.3,93.5-288.4,93.5c0.1,0,0.1,0,0.1,0c0,0,0,0.1,0,0.1c0,0,0.1,0,0.1,0c0,0,0,0.1,0,0.1c0,0,0.1,0,0.1,0
						c0,0,0,0.1,0,0.1c0,0,0.1,0,0.1,0c0,0.1,0,0.1,0,0.1c0,0,0.1,0,0.1,0c0,0-0.1,0-0.1,0c0,0,0,0,0,0c0,0-0.1,0-0.1,0
						c0,0,0,0,0.1,0.1c0,0-0.1,0-0.1,0h-0.3c0,0,0,0-0.1,0c0,0,0,0,0.1-0.1c0,0-0.1,0-0.1,0c0,0,0,0,0,0c0,0,0,0-0.1,0
						c0,0,0,0,0.1,0c0,0,0,0,0-0.1c0,0,0,0,0.1,0c0,0,0,0,0-0.1c0,0,0,0,0.1,0c0,0,0,0,0-0.1c0,0,0,0,0.1,0c0,0,0,0,0-0.1
						C-288.5,93.5-288.5,93.5-288.4,93.5C-288.4,93.5-288.4,93.5-288.4,93.5L-288.4,93.5C-288.4,93.5-288.4,93.5-288.4,93.5z"/>
				</g>
				<g id="g342" transform="translate(303.6973,314.4097)">
					<path id="path344" class="st9" d="M-291.9,82.2C-291.9,82.2-291.9,82.3-291.9,82.2c0,0.1,0.1,0.1,0.1,0.1l0,0
						C-291.9,82.3-291.9,82.3-291.9,82.2C-292,82.3-292,82.3-291.9,82.2L-291.9,82.2c-0.1,0.1-0.1,0.1-0.1,0.1c0,0,0,0,0,0
						c0,0,0,0,0,0h0c0,0,0,0,0,0c0,0,0,0,0,0c0,0,0,0,0-0.1h0c0,0,0,0,0,0c-0.1,0-0.1,0-0.1,0l0,0c0,0,0,0,0-0.1c0,0,0-0.1,0-0.1
						H-291.9z"/>
				</g>
				<g id="g346" transform="translate(303.6973,314.4097)">
					<path id="path348" class="st10" d="M-291.9,82.2C-291.9,82.2-291.9,82.3-291.9,82.2c0,0.1,0.1,0.1,0.1,0.1l0,0
						C-291.9,82.3-291.9,82.3-291.9,82.2C-292,82.3-292,82.3-291.9,82.2L-291.9,82.2c-0.1,0.1-0.1,0.1-0.1,0.1c0,0,0,0,0,0
						c0,0,0,0,0,0h0c0,0,0,0,0,0c0,0,0,0,0,0c0,0,0,0,0-0.1h0c0,0,0,0,0,0c-0.1,0-0.1,0-0.1,0l0,0c0,0,0,0,0-0.1c0,0,0-0.1,0-0.1
						H-291.9z"/>
				</g>
				<g id="g350" transform="translate(287.0908,328.3379)">
					<path id="path352" class="st13" d="M-276,68.8C-276,68.8-275.9,68.8-276,68.8c0.1,0,0.1,0,0.1,0c0,0,0,0,0,0"/>
				</g>
				<g id="g354" transform="translate(288.6943,326.2344)">
					<path id="path356" class="st9" d="M-277.5,70.9C-277.5,70.9-277.5,70.9-277.5,70.9C-277.5,70.9-277.5,70.9-277.5,70.9
						C-277.5,70.9-277.5,70.9-277.5,70.9C-277.5,70.9-277.5,70.9-277.5,70.9"/>
				</g>
				<g id="g358" transform="translate(288.6943,326.2344)">
					<path id="path360" class="st10" d="M-277.5,70.9C-277.5,70.9-277.5,70.9-277.5,70.9C-277.5,70.9-277.5,70.9-277.5,70.9
						C-277.5,70.9-277.5,70.9-277.5,70.9C-277.5,70.9-277.5,70.9-277.5,70.9z"/>
				</g>
				<g id="g362" transform="translate(289.1973,325.1128)">
					<path id="path364" class="st13" d="M-278,71.9C-278,71.9-278,71.9-278,71.9"/>
				</g>
				<g id="g366" transform="translate(290.2256,323.8604)">
					<path id="path368" class="st13" d="M-279,73.1C-279,73.1-279,73.1-279,73.1"/>
				</g>
				<g id="g370" transform="translate(289.8086,321.5889)">
					<path id="path372" class="st13" d="M-278.6,75.3C-278.6,75.3-278.6,75.3-278.6,75.3"/>
				</g>
				<g id="g374" transform="translate(293.3662,328.3379)">
					<path id="path376" class="st13" d="M-282,68.8C-282,68.8-282,68.8-282,68.8c-0.1,0-0.1,0-0.1,0c0,0,0,0,0,0"/>
				</g>
				<g id="g378" transform="translate(291.7578,326.2344)">
					<path id="path380" class="st9" d="M-280.5,70.9C-280.5,70.9-280.5,70.9-280.5,70.9C-280.5,70.9-280.5,70.9-280.5,70.9
						C-280.4,70.9-280.4,70.9-280.5,70.9C-280.4,70.9-280.4,70.9-280.5,70.9"/>
				</g>
				<g id="g382" transform="translate(291.7578,326.2344)">
					<path id="path384" class="st10" d="M-280.5,70.9C-280.5,70.9-280.5,70.9-280.5,70.9C-280.5,70.9-280.5,70.9-280.5,70.9
						C-280.4,70.9-280.4,70.9-280.5,70.9C-280.4,70.9-280.4,70.9-280.5,70.9z"/>
				</g>
				<g id="g386" transform="translate(291.2549,325.1128)">
					<path id="path388" class="st13" d="M-280,71.9C-280,71.9-280,71.9-280,71.9"/>
				</g>
				<g id="g390" transform="translate(290.2256,323.8604)">
					<path id="path392" class="st13" d="M-279,73.1C-279,73.1-279,73.1-279,73.1"/>
				</g>
				<g id="g394" transform="translate(289.8086,321.269)">
					<path id="path396" class="st13" d="M-278.6,75.6C-278.6,75.6-278.6,75.6-278.6,75.6"/>
				</g>
				<g id="g398" transform="translate(285.8174,326.4048)">
					<path id="path400" class="st13" d="M-274.7,70.7C-274.7,70.7-274.7,70.7-274.7,70.7"/>
				</g>
				<g id="g402" transform="translate(294.6416,326.4048)">
					<path id="path404" class="st13" d="M-283.2,70.7C-283.2,70.7-283.2,70.7-283.2,70.7"/>
				</g>
				<g id="g406" transform="translate(288.6943,326.2344)">
					<path id="path408" class="st10" d="M-277.5,70.9L-277.5,70.9"/>
				</g>
				<g id="g410" transform="translate(291.7578,326.2344)">
					<path id="path412" class="st10" d="M-280.5,70.9L-280.5,70.9"/>
				</g>
				<g id="g414" transform="translate(306.5977,328.3379)">
					<path id="path416" class="st13" d="M-294.7,68.8C-294.7,68.8-294.7,68.8-294.7,68.8c0.1,0,0.1,0,0.1,0c0,0,0,0,0,0"/>
				</g>
				<g id="g418" transform="translate(308.2041,326.2344)">
					<path id="path420" class="st9" d="M-296.3,70.9C-296.2,70.9-296.2,70.9-296.3,70.9C-296.2,70.9-296.2,70.9-296.3,70.9
						C-296.3,70.9-296.3,70.9-296.3,70.9C-296.3,70.9-296.3,70.9-296.3,70.9"/>
				</g>
				<g id="g422" transform="translate(308.2041,326.2344)">
					<path id="path424" class="st10" d="M-296.3,70.9C-296.2,70.9-296.2,70.9-296.3,70.9C-296.2,70.9-296.2,70.9-296.3,70.9
						C-296.3,70.9-296.3,70.9-296.3,70.9C-296.3,70.9-296.3,70.9-296.3,70.9z"/>
				</g>
				<g id="g426" transform="translate(308.71,325.1128)">
					<path id="path428" class="st13" d="M-296.7,71.9C-296.7,71.9-296.7,71.9-296.7,71.9"/>
				</g>
				<g id="g430" transform="translate(309.7422,323.8604)">
					<path id="path432" class="st13" d="M-297.7,73.1C-297.7,73.1-297.7,73.1-297.7,73.1"/>
				</g>
				<g id="g434" transform="translate(309.3203,321.5889)">
					<path id="path436" class="st13" d="M-297.3,75.3C-297.3,75.3-297.3,75.3-297.3,75.3"/>
				</g>
				<g id="g438" transform="translate(312.8779,328.3379)">
					<path id="path440" class="st13" d="M-300.8,68.8C-300.8,68.8-300.8,68.8-300.8,68.8c-0.1,0-0.1,0-0.1,0c0,0,0,0,0,0"/>
				</g>
				<g id="g442" transform="translate(311.2725,326.2344)">
					<path id="path444" class="st9" d="M-299.2,70.9C-299.2,70.9-299.2,70.9-299.2,70.9C-299.2,70.9-299.2,70.9-299.2,70.9
						C-299.2,70.9-299.2,70.9-299.2,70.9C-299.2,70.9-299.2,70.9-299.2,70.9"/>
				</g>
				<g id="g446" transform="translate(311.2725,326.2344)">
					<path id="path448" class="st10" d="M-299.2,70.9C-299.2,70.9-299.2,70.9-299.2,70.9C-299.2,70.9-299.2,70.9-299.2,70.9
						C-299.2,70.9-299.2,70.9-299.2,70.9C-299.2,70.9-299.2,70.9-299.2,70.9z"/>
				</g>
				<g id="g450" transform="translate(310.7686,325.1128)">
					<path id="path452" class="st13" d="M-298.7,71.9C-298.7,71.9-298.8,71.9-298.7,71.9"/>
				</g>
				<g id="g454" transform="translate(309.7422,323.8604)">
					<path id="path456" class="st13" d="M-297.7,73.1C-297.7,73.1-297.7,73.1-297.7,73.1"/>
				</g>
				<g id="g458" transform="translate(309.3203,321.269)">
					<path id="path460" class="st13" d="M-297.3,75.6C-297.3,75.6-297.3,75.6-297.3,75.6"/>
				</g>
				<g id="g462" transform="translate(305.3232,326.4048)">
					<path id="path464" class="st13" d="M-293.5,70.7C-293.5,70.7-293.5,70.7-293.5,70.7"/>
				</g>
				<g id="g466" transform="translate(314.1494,326.4048)">
					<path id="path468" class="st13" d="M-302,70.7C-302,70.7-302,70.7-302,70.7"/>
				</g>
				<g id="g470" transform="translate(308.2041,326.2344)">
					<path id="path472" class="st10" d="M-296.3,70.9L-296.3,70.9"/>
				</g>
				<g id="g474" transform="translate(311.2725,326.2344)">
					<path id="path476" class="st10" d="M-299.2,70.9L-299.2,70.9"/>
				</g>
				<g id="g478" transform="translate(296.8447,312.0732)">
					<path id="path480" class="st13" d="M-285.3,84.5C-285.3,84.4-285.3,84.4-285.3,84.5c0.1,0,0.1,0,0.1,0c0,0,0,0,0,0"/>
				</g>
				<g id="g482" transform="translate(298.4482,309.9673)">
					<path id="path484" class="st9" d="M-286.9,86.5C-286.9,86.5-286.9,86.5-286.9,86.5C-286.9,86.5-286.9,86.5-286.9,86.5
						C-286.9,86.5-286.9,86.5-286.9,86.5C-286.9,86.5-286.9,86.5-286.9,86.5"/>
				</g>
				<g id="g486" transform="translate(298.4482,309.9673)">
					<path id="path488" class="st10" d="M-286.9,86.5C-286.9,86.5-286.9,86.5-286.9,86.5C-286.9,86.5-286.9,86.5-286.9,86.5
						C-286.9,86.5-286.9,86.5-286.9,86.5C-286.9,86.5-286.9,86.5-286.9,86.5z"/>
				</g>
				<g id="g490" transform="translate(298.9512,308.8477)">
					<path id="path492" class="st13" d="M-287.4,87.6C-287.4,87.6-287.3,87.5-287.4,87.6"/>
				</g>
				<g id="g494" transform="translate(299.9824,307.5947)">
					<path id="path496" class="st13" d="M-288.4,88.8C-288.4,88.7-288.4,88.7-288.4,88.8"/>
				</g>
				<g id="g498" transform="translate(299.5625,305.3218)">
					<path id="path500" class="st13" d="M-288,91C-288,91-287.9,91-288,91"/>
				</g>
				<g id="g502" transform="translate(303.123,312.0732)">
					<path id="path504" class="st13" d="M-291.4,84.5C-291.4,84.4-291.4,84.4-291.4,84.5c-0.1,0-0.1,0-0.1,0c0,0,0,0,0,0"/>
				</g>
				<g id="g506" transform="translate(301.5137,309.9673)">
					<path id="path508" class="st9" d="M-289.8,86.5C-289.8,86.5-289.9,86.5-289.8,86.5C-289.9,86.5-289.8,86.5-289.8,86.5
						C-289.8,86.5-289.8,86.5-289.8,86.5C-289.8,86.5-289.8,86.5-289.8,86.5"/>
				</g>
				<g id="g510" transform="translate(301.5137,309.9673)">
					<path id="path512" class="st10" d="M-289.8,86.5C-289.8,86.5-289.9,86.5-289.8,86.5C-289.9,86.5-289.8,86.5-289.8,86.5
						C-289.8,86.5-289.8,86.5-289.8,86.5C-289.8,86.5-289.8,86.5-289.8,86.5z"/>
				</g>
				<g id="g514" transform="translate(301.0117,308.8477)">
					<path id="path516" class="st13" d="M-289.3,87.6C-289.4,87.6-289.4,87.5-289.3,87.6"/>
				</g>
				<g id="g518" transform="translate(299.9824,307.5947)">
					<path id="path520" class="st13" d="M-288.4,88.8C-288.4,88.7-288.4,88.7-288.4,88.8"/>
				</g>
				<g id="g522" transform="translate(299.5625,305.0044)">
					<path id="path524" class="st13" d="M-288,91.3C-288,91.3-287.9,91.3-288,91.3"/>
				</g>
				<g id="g526" transform="translate(295.5693,310.1401)">
					<path id="path528" class="st13" d="M-284.1,86.3C-284.1,86.3-284.1,86.3-284.1,86.3"/>
				</g>
				<g id="g530" transform="translate(304.3926,310.1401)">
					<path id="path532" class="st13" d="M-292.6,86.3C-292.6,86.3-292.6,86.3-292.6,86.3"/>
				</g>
				<g id="g534" transform="translate(298.4482,309.9673)">
					<path id="path536" class="st10" d="M-286.9,86.5L-286.9,86.5"/>
				</g>
				<g id="g538" transform="translate(301.5137,309.9673)">
					<path id="path540" class="st10" d="M-289.8,86.5L-289.8,86.5"/>
				</g>
				<g id="g542" transform="translate(357.3555,300.9614)">
					<path id="path544" class="st14" d="M-343.5,95.1C-343.5,95.2-343.5,95.2-343.5,95.1c0.1,0.1,0.1,0.1,0.1,0.1c0,0,0,0,0,0
						c0,0,0,0,0,0c0,0,0,0,0,0c0,0,0-0.1,0-0.1c0,0,0.1,0,0.1,0c0,0,0.2,0.1,0.4-0.1c0.1,0,0.2,0,0.3,0c0-0.1-0.2,0-0.2,0
						c0-0.1,0.1,0,0.1-0.1c0,0,0-0.1,0-0.1c-0.1,0,0,0,0,0.1c0,0,0,0,0,0.1c0,0-0.1,0-0.1,0.1c0,0-0.2-0.1-0.2,0c0,0,0,0,0.1,0.1
						c0,0-0.1,0-0.2,0.1c-0.1,0-0.1,0-0.2,0c-0.1,0-0.2,0-0.2,0.1c0,0,0,0,0.1,0c0,0-0.2,0-0.2,0c0,0,0.1,0,0.1,0c0,0,0.1,0,0.1,0
						l0,0C-343.4,95-343.4,95.1-343.5,95.1C-343.4,95.1-343.5,95.1-343.5,95.1"/>
				</g>
				<g id="g546" transform="translate(367.5244,295.3286)">
					<path id="path548" class="st0" d="M-353.3,100.6c0.1-0.1,0.2-0.1,0.2-0.1c0,0,0.1,0.1-0.1,0.1
						C-353.2,100.6-353.3,100.6-353.3,100.6"/>
				</g>
				<g id="g550" transform="translate(367.5244,295.3286)">
					<path id="path552" class="st15" d="M-353.3,100.6c0.1-0.1,0.2-0.1,0.2-0.1c0,0,0.1,0.1-0.1,0.1
						C-353.2,100.6-353.3,100.6-353.3,100.6z"/>
				</g>
				<g id="g554" transform="translate(381.8701,176.0986)">
					<path id="path556" class="st0" d="M-367.1,215.1c0-1.7-1.4-3.1-3.2-3.1c-1.7,0-3.2,1.4-3.2,3.1v3.7h6.3L-367.1,215.1z"/>
				</g>
				<g id="g558" transform="translate(381.8701,176.0986)">
					<path id="path560" class="st16" d="M-367.1,215.1c0-1.7-1.4-3.1-3.2-3.1c-1.7,0-3.2,1.4-3.2,3.1v3.7h6.3L-367.1,215.1z"/>
				</g>
				<path id="path562" class="st17" d="M8.6,394.7h1.2v-1.3H8.6V394.7z"/>
				<path id="path564" class="st17" d="M11,394.7h1.2v-1.3H11V394.7z"/>
				<path id="path566" class="st17" d="M13.5,394.7h1.2v-1.3h-1.2V394.7z"/>
				<path id="path568" class="st17" d="M9.8,393.4H11v-1.3H9.8V393.4z"/>
				<path id="path570" class="st17" d="M12.2,393.4h1.2v-1.3h-1.2V393.4z"/>
				<g id="g572" transform="translate(221.999,165.9189)">
					<path id="path574" class="st17" d="M-213.4,224.9h1.2v1.3h-1.2v-0.9"/>
				</g>
				<path id="path576" class="st17" d="M11,392.1h1.2v-1.3H11V392.1z"/>
				<g id="g578" transform="translate(378.5762,175.5312)">
					<path id="path580" class="st17" d="M-363.9,215.6v0.9h-1.2v-1.3h1.2"/>
				</g>
				<path id="path582" class="st17" d="M9.8,390.8H11v-1.3H9.8V390.8z"/>
				<path id="path584" class="st17" d="M12.2,390.8h1.2v-1.3h-1.2V390.8z"/>
				<g id="g586" transform="translate(221.3667,176.0508)">
					<path id="path588" class="st17" d="M-212.8,215.1L-212.8,215.1"/>
				</g>
				<g id="g590" transform="translate(221.3667,175.7363)">
					<path id="path592" class="st17" d="M-212.8,215.4c0-0.1,0-0.3,0-0.4"/>
				</g>
				<g id="g594" transform="translate(234.9878,132.4658)">
					<path id="path596" class="st1" d="M-225.9,257c0.2-0.3,0.4-0.5,0.7-0.7l0,0v0.7L-225.9,257L-225.9,257z"/>
				</g>
				<g id="g598" transform="translate(234.9878,132.4658)">
					<path id="path600" class="st7" d="M-225.9,257c0.2-0.3,0.4-0.5,0.7-0.7l0,0v0.7L-225.9,257L-225.9,257z"/>
				</g>
				<g id="g602" transform="translate(315.6973,100.3936)">
					<path id="path604" class="st1" d="M-303.5,287.8c-0.2,0-0.4-0.1-0.6-0.1c-0.2,0-0.4,0-0.6,0.1l0,0v1.3h1.2L-303.5,287.8
						L-303.5,287.8z"/>
				</g>
				<g id="g606" transform="translate(315.6973,100.3936)">
					<path id="path608" class="st7" d="M-303.5,287.8c-0.2,0-0.4-0.1-0.6-0.1c-0.2,0-0.4,0-0.6,0.1l0,0v1.3h1.2L-303.5,287.8
						L-303.5,287.8z"/>
				</g>
				<g id="g610" transform="translate(364.9727,132.4766)">
					<path id="path612" class="st1" d="M-350.8,257c-0.2-0.3-0.4-0.5-0.7-0.7l0,0v0.7L-350.8,257L-350.8,257z"/>
				</g>
				<g id="g614" transform="translate(364.9727,132.4766)">
					<path id="path616" class="st7" d="M-350.8,257c-0.2-0.3-0.4-0.5-0.7-0.7l0,0v0.7L-350.8,257L-350.8,257z"/>
				</g>
				<g id="g618" transform="translate(377.9521,165.9434)">
					<path id="path620" class="st17" d="M-363.3,224.8c0,0.1,0,0.3,0,0.4"/>
				</g>
			</g>
		</g>
	</g>
</g>
</svg>
