<?xml version="1.0" encoding="utf-8"?>
<!-- Generator: Adobe Illustrator 21.1.0, SVG Export Plug-In . SVG Version: 6.00 Build 0)  -->
<svg version="1.1"
	 id="svg2" xmlns:cc="http://creativecommons.org/ns#" xmlns:dc="http://purl.org/dc/elements/1.1/" xmlns:rdf="http://www.w3.org/1999/02/22-rdf-syntax-ns#" xmlns:svg="http://www.w3.org/2000/svg"
	 xmlns="http://www.w3.org/2000/svg" xmlns:xlink="http://www.w3.org/1999/xlink" x="0px" y="0px" viewBox="0 0 31 21"
	 style="enable-background:new 0 0 31 21;" xml:space="preserve">
<style type="text/css">
	.st0{fill:#DB2226;}
	.st1{fill:#FFFFFF;}
	.st2{fill:#2FA147;}
	.st3{clip-path:url(#SVGID_2_);}
	.st4{fill:none;stroke:#FFFFFF;stroke-width:2;}
	.st5{clip-path:url(#SVGID_4_);}
</style>
<g id="g10" transform="matrix(1.3333333,0,0,-1.3333333,0,533.33333)">
	<path id="path12" class="st0" d="M0,384.3h23.3V400H0V384.3z"/>
	<path id="path14" class="st1" d="M0,389.5h23.3V400H0V389.5L0,389.5z"/>
	<path id="path16" class="st2" d="M0,394.8h23.3v5.2H0V394.8z"/>
	<g id="g18">
		<g>
			<defs>
				<rect id="SVGID_1_" x="-3.9" y="381.6" width="31" height="21"/>
			</defs>
			<clipPath id="SVGID_2_">
				<use xlink:href="#SVGID_1_"  style="overflow:visible;"/>
			</clipPath>
			<g id="g20" class="st3">
				<g id="g26" transform="translate(18.667,288.4443)">
					<path id="path28" class="st4" d="M-17.9,107.2v-0.6 M-18.2,107.2v-0.6h0.5v0.6 M-18.4,106.6h-0.3v0.2h0.5 M-19.7,106.6h0.1
						 M-19.9,106.6v0.3h0.5v-0.2h0.5v0.2h-0.3 M-19.9,107.1h1.6"/>
				</g>
				<g id="g30" transform="translate(-1.5552,266.667)">
					<path id="path32" class="st4" d="M1.5,128.1h1.1 M0.3,128.1h1.1"/>
				</g>
				<g id="g34" transform="translate(-1.5552,133.333)">
					<path id="path36" class="st4" d="M1.5,256.2h1.1 M0.3,256.2h1.1"/>
				</g>
				<g id="g38" transform="translate(18.667,127.1113)">
					<path id="path40" class="st4" d="M-17.9,262.1v-0.6 M-18.2,262.1v-0.6h0.5v0.6 M-18.4,261.6h-0.3v0.2h0.5 M-19.7,261.6h0.1
						 M-19.9,261.5v0.3h0.5v-0.2h0.5v0.2h-0.3 M-19.9,262.1h1.6"/>
				</g>
			</g>
		</g>
	</g>
	<g id="g42" transform="translate(80.8896,288.4443)">
		<path id="path44" class="st4" d="M-77.8,107.2v-0.6 M-78,107.2v-0.6h0.5v0.6 M-78.2,106.6h-0.3v0.2h0.5 M-79.5,106.6h0.1
			 M-79.7,106.6v0.3h0.5v-0.2h0.5v0.2H-79 M-79.7,107.1h1.6"/>
	</g>
	<g id="g46" transform="translate(60.667,266.667)">
		<path id="path48" class="st4" d="M-58.3,128.1h1.1 M-59.5,128.1h1.1"/>
	</g>
	<g id="g50" transform="translate(60.667,133.333)">
		<path id="path52" class="st4" d="M-58.3,256.2h1.1 M-59.5,256.2h1.1"/>
	</g>
	<g id="g54" transform="translate(80.8896,127.1113)">
		<path id="path56" class="st4" d="M-77.8,262.1v-0.6 M-78,262.1v-0.6h0.5v0.6 M-78.2,261.6h-0.3v0.2h0.5 M-79.5,261.6h0.1
			 M-79.7,261.5v0.3h0.5v-0.2h0.5v0.2H-79 M-79.7,262.1h1.6"/>
	</g>
	<g id="g58" transform="translate(143.1118,288.4443)">
		<path id="path60" class="st4" d="M-137.6,107.2v-0.6 M-137.8,107.2v-0.6h0.5v0.6 M-138,106.6h-0.3v0.2h0.5 M-139.3,106.6h0.1
			 M-139.5,106.6v0.3h0.5v-0.2h0.5v0.2h-0.3 M-139.6,107.1h1.6"/>
	</g>
	<g id="g62" transform="translate(122.8892,266.667)">
		<path id="path64" class="st4" d="M-118.1,128.1h1.1 M-119.3,128.1h1.1"/>
	</g>
	<g id="g66" transform="translate(122.8892,133.333)">
		<path id="path68" class="st4" d="M-118.1,256.2h1.1 M-119.3,256.2h1.1"/>
	</g>
	<g id="g70" transform="translate(143.1118,127.1113)">
		<path id="path72" class="st4" d="M-137.6,262.1v-0.6 M-137.8,262.1v-0.6h0.5v0.6 M-138,261.6h-0.3v0.2h0.5 M-139.3,261.6h0.1
			 M-139.5,261.5v0.3h0.5v-0.2h0.5v0.2h-0.3 M-139.6,262.1h1.6"/>
	</g>
	<g id="g74" transform="translate(205.3335,288.4443)">
		<path id="path76" class="st4" d="M-197.4,107.2v-0.6 M-197.6,107.2v-0.6h0.5v0.6 M-197.8,106.6h-0.3v0.2h0.5 M-199.1,106.6h0.1
			 M-199.3,106.6v0.3h0.5v-0.2h0.5v0.2h-0.3 M-199.4,107.1h1.6"/>
	</g>
	<g id="g78" transform="translate(185.1108,266.667)">
		<path id="path80" class="st4" d="M-177.9,128.1h1.1 M-179.1,128.1h1.1"/>
	</g>
	<g id="g82" transform="translate(185.1108,133.333)">
		<path id="path84" class="st4" d="M-177.9,256.2h1.1 M-179.1,256.2h1.1"/>
	</g>
	<g id="g86" transform="translate(205.3335,127.1113)">
		<path id="path88" class="st4" d="M-197.4,262.1v-0.6 M-197.6,262.1v-0.6h0.5v0.6 M-197.8,261.6h-0.3v0.2h0.5 M-199.1,261.6h0.1
			 M-199.3,261.5v0.3h0.5v-0.2h0.5v0.2h-0.3 M-199.4,262.1h1.6"/>
	</g>
	<g id="g90" transform="translate(267.5557,288.4443)">
		<path id="path92" class="st4" d="M-257.2,107.2v-0.6 M-257.4,107.2v-0.6h0.5v0.6 M-257.6,106.6h-0.3v0.2h0.5 M-258.9,106.6h0.1
			 M-259.1,106.6v0.3h0.5v-0.2h0.5v0.2h-0.3 M-259.2,107.1h1.6"/>
	</g>
	<g id="g94" transform="translate(247.333,266.667)">
		<path id="path96" class="st4" d="M-237.7,128.1h1.1 M-239,128.1h1.1"/>
	</g>
	<g id="g98" transform="translate(247.333,133.333)">
		<path id="path100" class="st4" d="M-237.7,256.2h1.1 M-239,256.2h1.1"/>
	</g>
	<g id="g102" transform="translate(267.5557,127.1113)">
		<path id="path104" class="st4" d="M-257.2,262.1v-0.6 M-257.4,262.1v-0.6h0.5v0.6 M-257.6,261.6h-0.3v0.2h0.5 M-258.9,261.6h0.1
			 M-259.1,261.5v0.3h0.5v-0.2h0.5v0.2h-0.3 M-259.2,262.1h1.6"/>
	</g>
	<g id="g106" transform="translate(329.7773,288.4443)">
		<path id="path108" class="st4" d="M-317,107.2v-0.6 M-317.2,107.2v-0.6h0.5v0.6 M-317.4,106.6h-0.3v0.2h0.5 M-318.7,106.6h0.1
			 M-318.9,106.6v0.3h0.5v-0.2h0.5v0.2h-0.3 M-319,107.1h1.6"/>
	</g>
	<g id="g110" transform="translate(309.5557,266.667)">
		<path id="path112" class="st4" d="M-297.6,128.1h1.1 M-298.8,128.1h1.1"/>
	</g>
	<g id="g114" transform="translate(309.5557,133.333)">
		<path id="path116" class="st4" d="M-297.6,256.2h1.1 M-298.8,256.2h1.1"/>
	</g>
	<g id="g118" transform="translate(329.7773,127.1113)">
		<path id="path120" class="st4" d="M-317,262.1v-0.6 M-317.2,262.1v-0.6h0.5v0.6 M-317.4,261.6h-0.3v0.2h0.5 M-318.7,261.6h0.1
			 M-318.9,261.5v0.3h0.5v-0.2h0.5v0.2h-0.3 M-319,262.1h1.6"/>
	</g>
	<g id="g122" transform="translate(392,288.4443)">
		<path id="path124" class="st4" d="M-376.8,107.2v-0.6 M-377.1,107.2v-0.6h0.5v0.6 M-377.2,106.6h-0.3v0.2h0.5 M-378.6,106.6h0.1
			 M-378.7,106.6v0.3h0.5v-0.2h0.5v0.2h-0.3 M-378.8,107.1h1.6"/>
	</g>
	<g id="g126" transform="translate(371.7783,266.667)">
		<path id="path128" class="st4" d="M-357.4,128.1h1.1 M-358.6,128.1h1.1"/>
	</g>
	<g id="g130" transform="translate(371.7783,133.333)">
		<path id="path132" class="st4" d="M-357.4,256.2h1.1 M-358.6,256.2h1.1"/>
	</g>
	<g id="g134" transform="translate(392,127.1113)">
		<path id="path136" class="st4" d="M-376.8,262.1v-0.6 M-377.1,262.1v-0.6h0.5v0.6 M-377.2,261.6h-0.3v0.2h0.5 M-378.6,261.6h0.1
			 M-378.7,261.5v0.3h0.5v-0.2h0.5v0.2h-0.3 M-378.8,262.1h1.6"/>
	</g>
	<g id="g138" transform="translate(454.2217,288.4443)">
		<path id="path140" class="st4" d="M-436.6,107.2v-0.6 M-436.9,107.2v-0.6h0.5v0.6 M-437,106.6h-0.3v0.2h0.5 M-438.4,106.6h0.1
			 M-438.5,106.6v0.3h0.5v-0.2h0.5v0.2h-0.3 M-438.6,107.1h1.6"/>
	</g>
	<g id="g142" transform="translate(434,266.667)">
		<path id="path144" class="st4" d="M-417.2,128.1h1.1 M-418.4,128.1h1.1"/>
	</g>
	<g id="g146" transform="translate(434,133.333)">
		<path id="path148" class="st4" d="M-417.2,256.2h1.1 M-418.4,256.2h1.1"/>
	</g>
	<g id="g150" transform="translate(454.2217,127.1113)">
		<path id="path152" class="st4" d="M-436.6,262.1v-0.6 M-436.9,262.1v-0.6h0.5v0.6 M-437,261.6h-0.3v0.2h0.5 M-438.4,261.6h0.1
			 M-438.5,261.5v0.3h0.5v-0.2h0.5v0.2h-0.3 M-438.6,262.1h1.6"/>
	</g>
	<g id="g154" transform="translate(516.4434,288.4443)">
		<path id="path156" class="st4" d="M-496.4,107.2v-0.6 M-496.7,107.2v-0.6h0.5v0.6 M-496.9,106.6h-0.3v0.2h0.5 M-498.2,106.6h0.1
			 M-498.4,106.6v0.3h0.5v-0.2h0.5v0.2h-0.3 M-498.4,107.1h1.6"/>
	</g>
	<g id="g158" transform="translate(496.2227,266.667)">
		<path id="path160" class="st4" d="M-477,128.1h1.1 M-478.2,128.1h1.1"/>
	</g>
	<g id="g162" transform="translate(496.2227,133.333)">
		<path id="path164" class="st4" d="M-477,256.2h1.1 M-478.2,256.2h1.1"/>
	</g>
	<g id="g166" transform="translate(516.4434,127.1113)">
		<path id="path168" class="st4" d="M-496.4,262.1v-0.6 M-496.7,262.1v-0.6h0.5v0.6 M-496.9,261.6h-0.3v0.2h0.5 M-498.2,261.6h0.1
			 M-498.4,261.5v0.3h0.5v-0.2h0.5v0.2h-0.3 M-498.4,262.1h1.6"/>
	</g>
	<g id="g170" transform="translate(578.666,288.4443)">
		<path id="path172" class="st4" d="M-556.2,107.2v-0.6 M-556.5,107.2v-0.6h0.5v0.6 M-556.7,106.6h-0.3v0.2h0.5 M-558,106.6h0.1
			 M-558.2,106.6v0.3h0.5v-0.2h0.5v0.2h-0.3 M-558.2,107.1h1.6"/>
	</g>
	<g id="g174" transform="translate(558.4453,266.667)">
		<path id="path176" class="st4" d="M-536.8,128.1h1.1 M-538,128.1h1.1"/>
	</g>
	<g id="g178" transform="translate(558.4453,133.333)">
		<path id="path180" class="st4" d="M-536.8,256.2h1.1 M-538,256.2h1.1"/>
	</g>
	<g id="g182" transform="translate(578.666,127.1113)">
		<path id="path184" class="st4" d="M-556.2,262.1v-0.6 M-556.5,262.1v-0.6h0.5v0.6 M-556.7,261.6h-0.3v0.2h0.5 M-558,261.6h0.1
			 M-558.2,261.5v0.3h0.5v-0.2h0.5v0.2h-0.3 M-558.2,262.1h1.6"/>
	</g>
	<g id="g186">
		<g>
			<defs>
				<rect id="SVGID_3_" x="-3.9" y="381.6" width="31" height="21"/>
			</defs>
			<clipPath id="SVGID_4_">
				<use xlink:href="#SVGID_3_"  style="overflow:visible;"/>
			</clipPath>
			<g id="g188" class="st5">
				<g id="g194" transform="translate(640.8877,288.4443)">
					<path id="path196" class="st4" d="M-616.1,107.2v-0.6 M-616.3,107.2v-0.6h0.5v0.6 M-616.5,106.6h-0.3v0.2h0.5 M-617.8,106.6
						h0.1 M-618,106.6v0.3h0.5v-0.2h0.5v0.2h-0.3 M-618,107.1h1.6"/>
				</g>
				<g id="g198" transform="translate(620.667,266.667)">
					<path id="path200" class="st4" d="M-596.6,128.1h1.1 M-597.8,128.1h1.1"/>
				</g>
				<g id="g202" transform="translate(620.667,133.333)">
					<path id="path204" class="st4" d="M-596.6,256.2h1.1 M-597.8,256.2h1.1"/>
				</g>
				<g id="g206" transform="translate(640.8877,127.1113)">
					<path id="path208" class="st4" d="M-616.1,262.1v-0.6 M-616.3,262.1v-0.6h0.5v0.6 M-616.5,261.6h-0.3v0.2h0.5 M-617.8,261.6
						h0.1 M-618,261.5v0.3h0.5v-0.2h0.5v0.2h-0.3 M-618,262.1h1.6"/>
				</g>
				<g id="g210" transform="translate(280.5928,158.1816)">
					<path id="path212" class="st0" d="M-269.7,232.3c0.9-0.3,1.9,0.2,2.2,1.2c0.2,0.7,0,1.4-0.5,1.9c0.6-0.9,0.4-2.1-0.5-2.7
						C-268.9,232.4-269.3,232.3-269.7,232.3"/>
				</g>
				<g id="g214" transform="translate(338.917,166.9297)">
					<path id="path216" class="st0" d="M-325.8,223.9c0.7,0.4,0.9,1.3,0.5,2.1c-0.2,0.4-0.5,0.6-0.9,0.7
						C-325.3,226-325.1,224.8-325.8,223.9C-325.8,223.9-325.8,223.9-325.8,223.9"/>
				</g>
				<g id="g218" transform="translate(308,150)">
					<path id="path220" class="st0" d="M-296.1,240.2l-0.1,2l0.1,1.5c0.1-0.1,0.1-0.2,0.2-0.2v-1.2l-0.1-2L-296.1,240.2z"/>
				</g>
				<g id="g222" transform="translate(307,242.4995)">
					<path id="path224" class="st0" d="M-295.1,151.3L-295.1,151.3c0.1-0.2,0.3-0.2,0.4-0.1c0.1,0.1,0.1,0.2,0.1,0.3
						c0-0.1-0.2-0.2-0.3-0.2c-0.1,0-0.1,0.1-0.2,0.1"/>
				</g>
				<g id="g226" transform="translate(335.4082,158.1816)">
					<path id="path228" class="st0" d="M-322.4,232.3c-0.9-0.3-1.9,0.2-2.2,1.2c-0.2,0.7,0,1.4,0.5,1.9c-0.6-0.9-0.4-2.1,0.5-2.7
						C-323.2,232.4-322.8,232.3-322.4,232.3"/>
				</g>
				<g id="g230" transform="translate(277.083,166.9297)">
					<path id="path232" class="st0" d="M-266.3,223.9c-0.7,0.4-0.9,1.3-0.5,2.1c0.2,0.4,0.5,0.6,0.9,0.7
						C-266.8,226-267,224.8-266.3,223.9C-266.3,223.9-266.3,223.9-266.3,223.9"/>
				</g>
				<g id="g234" transform="translate(308,150)">
					<path id="path236" class="st0" d="M-296.1,240.2l0.1,2l-0.1,1.5c-0.1-0.1-0.1-0.2-0.2-0.2v-1.2l0.1-2L-296.1,240.2z"/>
				</g>
				<g id="g238" transform="translate(309,242.4995)">
					<path id="path240" class="st0" d="M-297,151.3L-297,151.3c-0.1-0.2-0.3-0.2-0.4-0.1c-0.1,0.1-0.1,0.2-0.1,0.3
						c0-0.1,0.2-0.2,0.3-0.2c0.1,0,0.1,0.1,0.2,0.1"/>
				</g>
			</g>
		</g>
	</g>
</g>
</svg>
