<?xml version="1.0" encoding="utf-8"?>
<!-- Generator: Adobe Illustrator 21.1.0, SVG Export Plug-In . SVG Version: 6.00 Build 0)  -->
<svg version="1.1"
	 id="svg2" xmlns:cc="http://creativecommons.org/ns#" xmlns:dc="http://purl.org/dc/elements/1.1/" xmlns:rdf="http://www.w3.org/1999/02/22-rdf-syntax-ns#" xmlns:svg="http://www.w3.org/2000/svg"
	 xmlns="http://www.w3.org/2000/svg" xmlns:xlink="http://www.w3.org/1999/xlink" x="0px" y="0px" viewBox="0 0 31 21"
	 style="enable-background:new 0 0 31 21;" xml:space="preserve">
<style type="text/css">
	.st0{fill:#FFFFFF;}
	.st1{fill:#222221;}
	.st2{fill:#C2121B;}
	.st3{fill:#3A4A94;}
</style>
<rect id="back" class="st0" width="31" height="21"/>
<polygon id="f20" class="st1" points="10.2,3.8 7.4,8.1 6.7,7.7 9.5,3.4 "/>
<polygon id="f19" class="st1" points="7.5,19 4.7,14.6 5.4,14.2 8.2,18.5 "/>
<polygon id="f18" class="st1" points="21.8,3.1 24.6,7.5 25.3,7 22.5,2.7 "/>
<polygon id="f17" class="st1" points="8.5,2.7 5.7,7.1 6.4,7.5 9.2,3.2 "/>
<polygon id="f16" class="st1" points="23.6,8.1 24.3,7.7 23,5.7 22.3,6.1 "/>
<polygon id="f15" class="st1" points="26.2,14.6 25.5,14.2 24.2,16.2 24.9,16.6 "/>
<polygon id="f14" class="st1" points="8.5,18.3 9.2,17.9 7.9,15.9 7.2,16.3 "/>
<polygon id="f13" class="st1" points="25.6,6.8 26.3,6.4 25,4.4 24.3,4.8 "/>
<polygon id="f12" class="st1" points="24.2,13.3 23.5,12.9 22.2,14.9 22.9,15.3 "/>
<polygon id="f11" class="st1" points="25.2,14 24.5,13.5 23.2,15.5 23.9,16 "/>
<polygon id="f10" class="st1" points="22.1,5.8 22.8,5.4 21.5,3.3 20.8,3.8 "/>
<polygon id="f9" class="st1" points="24.7,17 24,16.5 22.7,18.5 23.4,19 "/>
<polygon id="f8" class="st1" points="7,16 7.7,15.5 6.4,13.5 5.7,14 "/>
<polygon id="f7" class="st1" points="24.1,4.5 24.8,4 23.5,2 22.8,2.5 "/>
<polygon id="f6" class="st1" points="22.7,15.7 22,15.2 20.7,17.2 21.4,17.7 "/>
<polygon id="f5" class="st1" points="23.7,16.3 23,15.9 21.7,17.9 22.4,18.3 "/>
<polygon id="f4" class="st1" points="8.2,2.5 5.4,6.8 4.7,6.4 7.5,2.1 "/>
<polygon id="f3" class="st1" points="9.5,17.7 6.7,13.3 7.4,12.9 10.2,17.2 "/>
<path id="f2" class="st2" d="M14.2,5.4c-0.5,0.1-1,0.4-1.5,0.7c-0.5,0.3-0.8,0.7-1.2,1.1c-0.3,0.4-0.6,0.9-0.8,1.4
	c-0.2,0.5-0.3,1-0.3,1.6c0,0.5,0,1.1,0.2,1.6c0.1,0.5,0.4,1,0.7,1.5c0.3,0.5,0.7,0.9,1.1,1.2c0.4,0.3,0.9,0.6,1.4,0.8
	c0.5,0.2,1,0.3,1.5,0.3c0.5,0,1.1,0,1.6-0.2c0.5-0.1,1-0.4,1.5-0.7c0.5-0.3,0.8-0.7,1.2-1.1c0.3-0.4,0.6-0.9,0.8-1.4
	c0.2-0.5,0.3-1,0.3-1.5c0-0.5-0.1-1.1-0.2-1.6c-0.1-0.5-0.4-1-0.7-1.5c-0.3-0.5-0.7-0.9-1.1-1.2c-0.4-0.3-0.9-0.6-1.4-0.8
	c-0.5-0.2-1-0.3-1.5-0.3C15.2,5.2,14.7,5.3,14.2,5.4L14.2,5.4z"/>
<path id="f1" class="st3" d="M10.6,9.2c-0.1,0.3-0.1,0.6-0.1,1c0,0.5,0,1.1,0.2,1.6c0.1,0.5,0.4,1,0.7,1.5c0.3,0.5,0.7,0.9,1.1,1.2
	c0.4,0.3,0.9,0.6,1.4,0.8c0.5,0.2,1,0.3,1.5,0.3c0.5,0,1.1,0,1.6-0.2c0.5-0.1,1-0.4,1.5-0.7c0.5-0.3,0.8-0.7,1.2-1.1
	c0.3-0.4,0.6-0.9,0.8-1.4c0,0,0-0.1,0-0.1c0,0,0,0,0,0c0-0.2,0.1-0.3,0.1-0.5c0-0.2,0-0.5,0-0.7c0-0.2-0.1-0.4-0.2-0.6
	c-0.1-0.1-0.1-0.2-0.2-0.3C20,9.9,20,9.8,19.9,9.7c-0.1-0.1-0.1-0.2-0.2-0.2c-0.1-0.1-0.1-0.1-0.2-0.2c-0.1-0.1-0.2-0.1-0.3-0.2
	c-0.1,0-0.2-0.1-0.3-0.1c-0.2-0.1-0.4-0.1-0.6-0.2c-0.2,0-0.4,0-0.7,0c-0.2,0-0.4,0.1-0.6,0.2c-0.1,0-0.2,0.1-0.3,0.1
	s-0.2,0.1-0.3,0.2c-0.1,0.1-0.2,0.1-0.3,0.2c-0.1,0.1-0.1,0.2-0.2,0.3c-0.1,0.1-0.2,0.3-0.3,0.5c-0.1,0.2-0.2,0.4-0.3,0.5
	c-0.1,0.1-0.1,0.2-0.2,0.3c-0.1,0.1-0.1,0.2-0.2,0.2c-0.1,0.1-0.2,0.2-0.3,0.2c-0.1,0.1-0.2,0.1-0.3,0.2c-0.1,0.1-0.2,0.1-0.3,0.2
	c-0.2,0.1-0.4,0.1-0.6,0.2c-0.2,0-0.4,0-0.7,0c-0.2,0-0.4-0.1-0.6-0.2c-0.1,0-0.2-0.1-0.3-0.1c-0.1,0-0.2-0.1-0.3-0.2
	c-0.1-0.1-0.2-0.1-0.2-0.2c-0.1-0.1-0.2-0.2-0.2-0.3C11.1,11.1,11,11,11,10.9c-0.1-0.1-0.1-0.2-0.2-0.3c-0.1-0.2-0.1-0.4-0.2-0.6
	C10.6,9.8,10.6,9.5,10.6,9.2C10.6,9.3,10.6,9.2,10.6,9.2L10.6,9.2z"/>
</svg>
