<?xml version="1.0" encoding="utf-8"?>
<!-- Generator: Adobe Illustrator 21.1.0, SVG Export Plug-In . SVG Version: 6.00 Build 0)  -->
<svg version="1.1"
	 id="svg2" xmlns:cc="http://creativecommons.org/ns#" xmlns:dc="http://purl.org/dc/elements/1.1/" xmlns:rdf="http://www.w3.org/1999/02/22-rdf-syntax-ns#" xmlns:svg="http://www.w3.org/2000/svg"
	 xmlns="http://www.w3.org/2000/svg" xmlns:xlink="http://www.w3.org/1999/xlink" x="0px" y="0px" viewBox="0 0 31 21"
	 style="enable-background:new 0 0 31 21;" xml:space="preserve">
<style type="text/css">
	.st0{fill:#FFFFFF;}
	.st1{fill:#316AB1;}
	.st2{fill:#D2243E;}
</style>
<g id="g10" transform="matrix(1.3333333,0,0,-1.3333333,0,533.33333)">
	<path id="path12" class="st0" d="M0,384.3h23.2V400H0V384.3z"/>
	<g id="g14" transform="translate(150,350)">
		<path id="path16" class="st1" d="M-144.2,48l-0.6-1.9l0.9-0.3L-144.2,48z"/>
	</g>
	<g id="g18" transform="translate(150,350)">
		<path id="path20" class="st1" d="M-144.2,48l0.6-1.9l-0.9-0.3L-144.2,48z"/>
	</g>
	<g id="g22" transform="translate(197.5527,315.4507)">
		<path id="path24" class="st1" d="M-189.9,81.2h-1.9v-1L-189.9,81.2z"/>
	</g>
	<g id="g26" transform="translate(197.5527,315.4507)">
		<path id="path28" class="st1" d="M-189.9,81.2l-1.6-1.2l-0.6,0.8L-189.9,81.2z"/>
	</g>
	<g id="g30" transform="translate(102.4473,315.4507)">
		<path id="path32" class="st1" d="M-98.5,81.2l1.6-1.2l0.6,0.8L-98.5,81.2z"/>
	</g>
	<g id="g34" transform="translate(102.4473,315.4507)">
		<path id="path36" class="st1" d="M-98.5,81.2h1.9v-1L-98.5,81.2z"/>
	</g>
	<g id="g38" transform="translate(179.3892,259.5493)">
		<path id="path40" class="st1" d="M-172.4,134.9l-0.6,1.9l-0.9-0.3L-172.4,134.9z"/>
	</g>
	<g id="g42" transform="translate(179.3892,259.5493)">
		<path id="path44" class="st1" d="M-172.4,134.9l-1.6,1.2l0.6,0.8L-172.4,134.9z"/>
	</g>
	<g id="g46" transform="translate(120.6108,259.5493)">
		<path id="path48" class="st1" d="M-115.9,134.9l1.6,1.2l-0.6,0.8L-115.9,134.9z"/>
	</g>
	<g id="g50" transform="translate(120.6108,259.5493)">
		<path id="path52" class="st1" d="M-115.9,134.9l0.6,1.9l0.9-0.3L-115.9,134.9z"/>
	</g>
	<path id="path54" class="st1" d="M0,384.3h11.6v7.9H0V384.3z"/>
	<path id="path56" class="st2" d="M11.6,392.1h11.6v7.9H11.6L11.6,392.1L11.6,392.1z"/>
	<g id="g58" transform="translate(450,150)">
		<path id="path60" class="st2" d="M-432.6,240.2l-0.6-1.9l0.9-0.3L-432.6,240.2z"/>
	</g>
	<g id="g62" transform="translate(450,150)">
		<path id="path64" class="st2" d="M-432.6,240.2l0.6-1.9l-0.9-0.3L-432.6,240.2z"/>
	</g>
	<g id="g66" transform="translate(497.5518,115.4502)">
		<path id="path68" class="st2" d="M-478.3,273.3h-1.9v-1L-478.3,273.3z"/>
	</g>
	<g id="g70" transform="translate(497.5518,115.4502)">
		<path id="path72" class="st2" d="M-478.3,273.3l-1.6-1.2l-0.6,0.8L-478.3,273.3z"/>
	</g>
	<g id="g74" transform="translate(402.4482,115.4502)">
		<path id="path76" class="st2" d="M-386.9,273.3l1.6-1.2l0.6,0.8L-386.9,273.3z"/>
	</g>
	<g id="g78" transform="translate(402.4482,115.4502)">
		<path id="path80" class="st2" d="M-386.9,273.3h1.9v-1L-386.9,273.3z"/>
	</g>
	<g id="g82" transform="translate(479.3896,59.5498)">
		<path id="path84" class="st2" d="M-460.8,327l-0.6,1.9l-0.9-0.3L-460.8,327z"/>
	</g>
	<g id="g86" transform="translate(479.3896,59.5498)">
		<path id="path88" class="st2" d="M-460.8,327l-1.6,1.2l0.6,0.8L-460.8,327z"/>
	</g>
	<g id="g90" transform="translate(420.6104,59.5498)">
		<path id="path92" class="st2" d="M-404.3,327l1.6,1.2l-0.6,0.8L-404.3,327z"/>
	</g>
	<g id="g94" transform="translate(420.6104,59.5498)">
		<path id="path96" class="st2" d="M-404.3,327l0.6,1.9l0.9-0.3L-404.3,327z"/>
	</g>
</g>
</svg>
