<?xml version="1.0" encoding="utf-8"?>
<!-- Generator: Adobe Illustrator 21.1.0, SVG Export Plug-In . SVG Version: 6.00 Build 0)  -->
<svg version="1.1"
	 id="svg2" xmlns:cc="http://creativecommons.org/ns#" xmlns:dc="http://purl.org/dc/elements/1.1/" xmlns:rdf="http://www.w3.org/1999/02/22-rdf-syntax-ns#" xmlns:svg="http://www.w3.org/2000/svg"
	 xmlns="http://www.w3.org/2000/svg" xmlns:xlink="http://www.w3.org/1999/xlink" x="0px" y="0px" viewBox="0 0 31 21"
	 style="enable-background:new 0 0 31 21;" xml:space="preserve">
<style type="text/css">
	.st0{fill:#1F8847;}
	.st1{fill:#FBEC50;}
	.st2{fill:#E32D30;}
</style>
<g id="g10" transform="matrix(1.3333333,0,0,-1.3333333,0,533.33333)">
	<path id="path12" class="st0" d="M0,384.3h7.7V400H0V384.3z"/>
	<path id="path14" class="st1" d="M7.8,384.3h7.7V400H7.8V384.3z"/>
	<path id="path16" class="st2" d="M15.5,384.3h7.8V400h-7.8V384.3z"/>
	<g id="g18" transform="translate(300,266.6665)">
		<path id="path20" class="st0" d="M-288.4,128.1l-0.8-2.5l1.2-0.4L-288.4,128.1z"/>
	</g>
	<g id="g22" transform="translate(300,266.6665)">
		<path id="path24" class="st0" d="M-288.4,128.1l0.8-2.5l-1.2-0.4L-288.4,128.1z"/>
	</g>
	<g id="g26" transform="translate(363.4033,220.6016)">
		<path id="path28" class="st0" d="M-349.3,172.3h-2.6V171L-349.3,172.3z"/>
	</g>
	<g id="g30" transform="translate(363.4033,220.6016)">
		<path id="path32" class="st0" d="M-349.3,172.3l-2.1-1.5l-0.8,1.1L-349.3,172.3z"/>
	</g>
	<g id="g34" transform="translate(339.1855,146.0654)">
		<path id="path36" class="st0" d="M-326,243.9l-0.8,2.5l-1.2-0.4L-326,243.9z"/>
	</g>
	<g id="g38" transform="translate(339.1855,146.0654)">
		<path id="path40" class="st0" d="M-326,243.9l-2.1,1.5l0.8,1.1L-326,243.9z"/>
	</g>
	<g id="g42" transform="translate(260.8145,146.0654)">
		<path id="path44" class="st0" d="M-250.7,243.9l2.1,1.5l-0.8,1.1L-250.7,243.9z"/>
	</g>
	<g id="g46" transform="translate(260.8145,146.0654)">
		<path id="path48" class="st0" d="M-250.7,243.9l0.8,2.5l1.2-0.4L-250.7,243.9z"/>
	</g>
	<g id="g50" transform="translate(236.5962,220.6016)">
		<path id="path52" class="st0" d="M-227.4,172.3l2.1-1.5l0.8,1.1L-227.4,172.3z"/>
	</g>
	<g id="g54" transform="translate(236.5962,220.6016)">
		<path id="path56" class="st0" d="M-227.4,172.3h2.6V171L-227.4,172.3z"/>
	</g>
</g>
</svg>
