<?xml version="1.0" encoding="utf-8"?>
<!-- Generator: Adobe Illustrator 21.1.0, SVG Export Plug-In . SVG Version: 6.00 Build 0)  -->
<svg version="1.1"
	 id="svg2" xmlns:cc="http://creativecommons.org/ns#" xmlns:dc="http://purl.org/dc/elements/1.1/" xmlns:rdf="http://www.w3.org/1999/02/22-rdf-syntax-ns#" xmlns:svg="http://www.w3.org/2000/svg"
	 xmlns="http://www.w3.org/2000/svg" xmlns:xlink="http://www.w3.org/1999/xlink" x="0px" y="0px" viewBox="0 0 31 21"
	 style="enable-background:new 0 0 31 21;" xml:space="preserve">
<style type="text/css">
	.st0{fill:#E42229;}
	.st1{clip-path:url(#SVGID_2_);}
	.st2{fill:#FFFFFF;}
</style>
<g id="g10" transform="matrix(1.3333333,0,0,-1.3333333,0,533.33333)">
	<path id="path12" class="st0" d="M0,384.3h23.3V400H0V384.3z"/>
	<g id="g14">
		<g>
			<defs>
				<rect id="SVGID_1_" x="-3.9" y="381.6" width="31" height="21"/>
			</defs>
			<clipPath id="SVGID_2_">
				<use xlink:href="#SVGID_1_"  style="overflow:visible;"/>
			</clipPath>
			<g id="g16" class="st1">
				<g id="g22" transform="translate(300,300)">
					<path id="path24" class="st2" d="M-288.4,96.1c2.1,0,3.9-1.8,3.9-3.9c0-2.2-1.7-3.9-3.9-3.9c-2.1,0-3.9,1.8-3.9,3.9
						C-292.3,94.3-290.5,96.1-288.4,96.1"/>
				</g>
				<g id="g26" transform="translate(300,275)">
					<path id="path28" class="st0" d="M-288.4,120.1c1.6,0,2.9-1.3,2.9-3c0-1.6-1.3-3-2.9-3c-1.6,0-2.9,1.3-2.9,3
						C-291.3,118.8-290,120.1-288.4,120.1"/>
				</g>
				<g id="g30" transform="translate(320,260)">
					<path id="path32" class="st2" d="M-307.6,134.5c1.3,0,2.3-1.1,2.3-2.4c0-1.3-1-2.4-2.3-2.4s-2.3,1.1-2.3,2.4
						C-309.9,133.4-308.9,134.5-307.6,134.5"/>
				</g>
				<g id="g34" transform="translate(275,200)">
					<path id="path36" class="st0" d="M-264.3,192.1l3.2,1l-1.9-2.7v3.4l1.9-2.7L-264.3,192.1z"/>
				</g>
			</g>
		</g>
	</g>
</g>
</svg>
